SplineFontDB: 3.0
FontName: MrDeHaviland-Regular
FullName: Mr De Haviland Regular
FamilyName: Mr De Haviland
Weight: Normal
Copyright: Copyright (c) 2006 Alejandro Paul (sudtipos@sudtipos.com),\nwith Reserved Font Name "Mr De Haviland"
Version: 001.001
ItalicAngle: 0
UnderlinePosition: -50
UnderlineWidth: 50
Ascent: 800
Descent: 200
sfntRevision: 0x00010000
LayerCount: 2
Layer: 0 1 "Back"  1
Layer: 1 1 "Fore"  0
NeedsXUIDChange: 1
XUID: [1021 288 713564382 10427490]
FSType: 0
OS2Version: 2
OS2_WeightWidthSlopeOnly: 0
OS2_UseTypoMetrics: 1
CreationTime: 1322382959
ModificationTime: 1322411804
PfmFamily: 17
TTFWeight: 400
TTFWidth: 5
LineGap: 0
VLineGap: 0
Panose: 2 0 0 0 0 0 0 0 0 0
OS2TypoAscent: 75
OS2TypoAOffset: 1
OS2TypoDescent: -242
OS2TypoDOffset: 1
OS2TypoLinegap: 0
OS2WinAscent: -16
OS2WinAOffset: 1
OS2WinDescent: 0
OS2WinDOffset: 1
HheadAscent: -16
HheadAOffset: 1
HheadDescent: 0
HheadDOffset: 1
OS2SubXSize: 700
OS2SubYSize: 650
OS2SubXOff: 0
OS2SubYOff: 140
OS2SupXSize: 700
OS2SupYSize: 650
OS2SupXOff: 0
OS2SupYOff: 477
OS2StrikeYSize: 50
OS2StrikeYPos: 250
OS2Vendor: 'SUDT'
OS2CodePages: 20000001.00000000
OS2UnicodeRanges: 80000027.5000004b.00000000.00000000
Lookup: 258 0 0 "'kern' Horizontal Kerning in Latin lookup 0"  {"'kern' Horizontal Kerning in Latin lookup 0 subtable"  } ['kern' ('DFLT' <'dflt' > 'latn' <'dflt' > ) ]
MarkAttachClasses: 1
DEI: 91125
TtTable: prep
PUSHW_1
 511
SCANCTRL
PUSHB_1
 4
SCANTYPE
EndTTInstrs
LangName: 1033 "" "" "" "AlejandroPaul: Mr De Haviland Regular: 2006" "MrDeHaviland-Regular" "Version 1.000" "" "Mr De Haviland is a trademark of Alejandro Paul." "Alejandro Paul" "Alejandro Paul" "" "http://www.sudtipos.com" "http://www.sudtipos.com" "This Font Software is licensed under the SIL Open Font License,+AA0A-Version 1.1. This license is available with a FAQ at:+AA0A-http://scripts.sil.org/OFL" "http://scripts.sil.org/OFL" 
GaspTable: 1 65535 15
Encoding: UnicodeBmp
UnicodeInterp: none
NameList: Adobe Glyph List

StartChar: B
Encoding: 66 66 1
Width: 731
Flags: HMW
HStem: -82 26<175.5 250 175.5 252.5> 141 24<448.5 543> 311 41<16 77.5 16 87> 355 23<548 573> 703 33<446.5 591.5>
VStem: -57 42<378.5 460.5> 85 47<-38.5 -4.5 -38.5 -4.5> 653 35<264.5 294.5> 682 29<70 90> 694 47<599 650>
LayerCount: 2
Fore
SplineSet
711 84 m 0,0,1
 711 45.25 711 45.25 658 32 c 0,2,3
 655 32 655 32 655 36 c 128,-1,4
 655 40 655 40 662 45 c 0,5,6
 682 60 682 60 682 78 c 0,7,8
 682 113 682 113 626 129 c 1,9,10
 552 38 552 38 420.5 -22 c 128,-1,11
 289 -82 289 -82 187 -82 c 128,-1,12
 85 -82 85 -82 85 -40 c 0,13,14
 85 -5 85 -5 154.5 43.5 c 128,-1,15
 224 92 224 92 333.5 128.5 c 128,-1,16
 443 165 443 165 540 165 c 0,17,18
 588 165 588 165 622 158 c 1,19,20
 653 213 653 213 653 273 c 0,21,22
 653 308 653 308 622 331.5 c 128,-1,23
 591 355 591 355 539 355 c 128,-1,24
 487 355 487 355 440 334 c 1,25,26
 430 327 430 327 423.5 327 c 0,27,28
 413 327 413 327 413 332.5 c 128,-1,29
 413 338 413 338 428 346 c 1,30,31
 450 353 450 353 512.5 400 c 128,-1,32
 575 447 575 447 634.5 514.5 c 128,-1,33
 694 582 694 582 694 628 c 0,34,35
 694 703 694 703 532 703 c 0,36,37
 418 703 418 703 289.5 656.5 c 128,-1,38
 161 610 161 610 73 535.5 c 128,-1,39
 -15 461 -15 461 -15 390 c 0,40,41
 -15 352 -15 352 32 352 c 0,42,43
 99 352 99 352 164 385.5 c 128,-1,44
 229 419 229 419 334 507 c 1,45,46
 347 522 347 522 352.5 522 c 0,47,48
 363 522 363 522 363 515 c 0,49,50
 363 513 363 513 356 501 c 1,51,52
 330.117647059 475.117647059 330.117647059 475.117647059 283.058823529 438.058823529 c 128,-1,53
 236 401 236 401 196 376 c 128,-1,54
 156 351 156 351 105.5 331 c 128,-1,55
 55 311 55 311 14 311 c 0,56,57
 -57 311 -57 311 -57 374 c 0,58,59
 -57 456 -57 456 50 542.5 c 128,-1,60
 157 629 157 629 301.5 682.5 c 128,-1,61
 446 736 446 736 560 736 c 0,62,63
 741 736 741 736 741 647 c 0,64,65
 741 582 741 582 654.5 493.5 c 128,-1,66
 568 405 568 405 499 372 c 1,67,68
 530 378 530 378 557 378 c 0,69,70
 620 378 620 378 654 354 c 128,-1,71
 688 330 688 330 688 289 c 0,72,73
 688 219 688 219 643 152 c 1,74,75
 711 132 711 132 711 84 c 0,0,1
529 141 m 0,76,77
 453 141 453 141 357 109 c 128,-1,78
 261 77 261 77 196.5 36 c 128,-1,79
 132 -5 132 -5 132 -30.5 c 128,-1,80
 132 -56 132 -56 193.5 -56 c 128,-1,81
 255 -56 255 -56 328.5 -36.5 c 128,-1,82
 402 -17 402 -17 482.5 28.5 c 128,-1,83
 563 74 563 74 606 134 c 1,84,85
 568 141 568 141 529 141 c 0,76,77
540 639 m 1,86,87
 540 635.795555556 540 635.795555556 423.5 434.897777778 c 128,-1,88
 307 234 307 234 252 142 c 1,89,90
 246 129 246 129 230 122 c 128,-1,91
 214 115 214 115 205.5 115 c 128,-1,92
 197 115 197 115 197 119.5 c 128,-1,93
 197 124 197 124 271 248.5 c 128,-1,94
 345 373 345 373 418.5 496 c 128,-1,95
 492 619 492 619 490 620 c 1,96,97
 496 630 496 630 510 635 c 2,98,-1
 535 643 l 1,99,-1
 540 639 l 1,86,87
EndSplineSet
EndChar

StartChar: C
Encoding: 67 67 2
Width: 459
Flags: HMW
HStem: -34 26<138.5 222> 243 22<301.5 367 301.5 370> 531 182<459 475> 689 24<459 564>
VStem: 0 37<90.5 293> 243 30<291 337> 623 42<557 637.5>
LayerCount: 2
Fore
SplineSet
449 108 m 1,0,1
 457 108 457 108 457 96 c 0,2,3
 457 81 457 81 410.5 50 c 128,-1,4
 364 19 364 19 290.5 -7.5 c 128,-1,5
 217 -34 217 -34 156 -34 c 0,6,7
 0 -34 0 -34 0 139 c 0,8,9
 0 227 0 227 39.5 316 c 128,-1,10
 79 405 79 405 141.5 474.5 c 128,-1,11
 204 544 204 544 277.5 599 c 128,-1,12
 351 654 351 654 423.5 683.5 c 128,-1,13
 496 713 496 713 551 713 c 0,14,15
 665 713 665 713 665 625 c 0,16,17
 665 559 665 559 604 468 c 128,-1,18
 543 377 543 377 455 310 c 128,-1,19
 367 243 367 243 297 243 c 0,20,21
 243 243 243 243 243 294 c 0,22,23
 243 359 243 359 327.5 454.5 c 128,-1,24
 412 550 412 550 472 550 c 0,25,26
 480 550 480 550 480 544 c 1,27,-1
 475 531 l 1,28,29
 439 531 439 531 390 490 c 128,-1,30
 341 449 341 449 307 395 c 128,-1,31
 273 341 273 341 273 305 c 0,32,33
 273 265 273 265 314 265 c 0,34,35
 365 265 365 265 439.5 327 c 128,-1,36
 514 389 514 389 568.5 473.5 c 128,-1,37
 623 558 623 558 623 616 c 0,38,39
 623 689 623 689 531 689 c 0,40,41
 483 689 483 689 418 661.5 c 128,-1,42
 353 634 353 634 287 582 c 128,-1,43
 221 530 221 530 164.5 465 c 128,-1,44
 108 400 108 400 72.5 316.5 c 128,-1,45
 37 233 37 233 37 150 c 0,46,47
 37 -8 37 -8 177 -8 c 0,48,49
 250 -8 250 -8 335 31.5 c 128,-1,50
 420 71 420 71 449 108 c 1,0,1
EndSplineSet
EndChar

StartChar: D
Encoding: 68 68 3
Width: 584
Flags: HMW
HStem: -63 20<76.5 133.5> 141 24<306.5 388> 334 41<-63 -1.5 -63 8> 703 34<356.5 533.5>
VStem: -136 42<401.5 471> -2 49<-21.5 38 -21.5 39> 529 29<70 90> 688 41<502.5 589>
LayerCount: 2
Fore
SplineSet
558 84 m 0,0,1
 558 45.25 558 45.25 505 32 c 0,2,3
 502 32 502 32 502 36 c 128,-1,4
 502 40 502 40 509 45 c 0,5,6
 529 60 529 60 529 78 c 0,7,8
 529 113 529 113 471 130 c 1,9,10
 374 42 374 42 268 -10.5 c 128,-1,11
 162 -63 162 -63 69 -63 c 0,12,13
 -2 -63 -2 -63 -2 -13.5 c 128,-1,14
 -2 36 -2 36 62 78.5 c 128,-1,15
 126 121 126 121 215 143 c 128,-1,16
 304 165 304 165 369 165 c 128,-1,17
 434 165 434 165 466 158 c 1,18,19
 564 253 564 253 626 356.5 c 128,-1,20
 688 460 688 460 688 538.5 c 128,-1,21
 688 617 688 617 629.5 660 c 128,-1,22
 571 703 571 703 453 703 c 128,-1,23
 335 703 335 703 208.5 660.5 c 128,-1,24
 82 618 82 618 -6 549 c 128,-1,25
 -94 480 -94 480 -94 413 c 0,26,27
 -94 375 -94 375 -47 375 c 0,28,29
 20 375 20 375 85 408.5 c 128,-1,30
 150 442 150 442 255 530 c 1,31,32
 268 545 268 545 273.5 545 c 0,33,34
 284 545 284 545 284 538 c 0,35,36
 284 536 284 536 277 524 c 1,37,38
 251.117647059 498.117647059 251.117647059 498.117647059 204.058823529 461.058823529 c 128,-1,39
 157 424 157 424 117 399 c 128,-1,40
 77 374 77 374 26.5 354 c 128,-1,41
 -24 334 -24 334 -65 334 c 0,42,43
 -136 334 -136 334 -136 397 c 0,44,45
 -136 468 -136 468 -34.5 549 c 128,-1,46
 67 630 67 630 213 683.5 c 128,-1,47
 359 737 359 737 484 737 c 128,-1,48
 609 737 609 737 669 690 c 128,-1,49
 729 643 729 643 729 559 c 128,-1,50
 729 475 729 475 663.5 363 c 128,-1,51
 598 251 598 251 494 151 c 1,52,53
 558 131 558 131 558 84 c 0,0,1
442 136 m 1,54,55
 409 141 409 141 355.5 141 c 128,-1,56
 302 141 302 141 228 124 c 128,-1,57
 154 107 154 107 100.5 71 c 128,-1,58
 47 35 47 35 47 -10 c 0,59,60
 47 -43 47 -43 90 -43 c 0,61,62
 166 -43 166 -43 259.5 6 c 128,-1,63
 353 55 353 55 442 136 c 1,54,55
442 646 m 1,64,65
 442 641.152671756 442 641.152671756 324 433.076335878 c 128,-1,66
 206 225 206 225 171 166 c 1,67,68
 165 153 165 153 149 146 c 128,-1,69
 133 139 133 139 124.5 139 c 128,-1,70
 116 139 116 139 116 143.5 c 128,-1,71
 116 148 116 148 186 268 c 0,72,73
 394.64516129 625.677419355 394.64516129 625.677419355 392 627 c 1,74,75
 398 637 398 637 412 642 c 2,76,-1
 437 650 l 1,77,-1
 442 646 l 1,64,65
EndSplineSet
EndChar

StartChar: E
Encoding: 69 69 4
Width: 400
Flags: HMW
HStem: -54 28<95 137 95 158.5> 323 23<173.5 194> 495 241<408.5 412.5> 711 25<414.5 499>
VStem: -14 54<42.5 88.5> 48 51<390.5 452> 351 38
LayerCount: 2
Fore
SplineSet
378 495 m 0,0,1
 351 495 351 495 351 511 c 0,2,3
 351 536 351 536 409.5 583.5 c 128,-1,4
 468 631 468 631 539 659 c 1,5,6
 540 661 540 661 540 666 c 0,7,8
 540 711 540 711 478 711 c 128,-1,9
 416 711 416 711 325.5 657.5 c 128,-1,10
 235 604 235 604 167 531.5 c 128,-1,11
 99 459 99 459 99 409 c 0,12,13
 99 346 99 346 215 346 c 0,14,15
 283 346 283 346 332 378 c 1,16,17
 335 382 335 382 339 382 c 0,18,19
 346 382 346 382 346 371.5 c 128,-1,20
 346 361 346 361 339 358 c 0,21,22
 213.746922025 300.592339261 213.746922025 300.592339261 132.5 228.5 c 0,23,24
 97 197 97 197 68.5 150.5 c 128,-1,25
 40 104 40 104 40 64.5 c 128,-1,26
 40 25 40 25 60.5 -0.5 c 128,-1,27
 81 -26 81 -26 137 -26 c 1,28,29
 156 -25 156 -25 180 -20 c 128,-1,30
 204 -15 204 -15 261 14 c 128,-1,31
 318 43 318 43 370 91 c 1,32,33
 378 101 378 101 383 101 c 0,34,35
 389 100 389 100 389 93 c 0,36,37
 389 76 389 76 342 41 c 128,-1,38
 295 6 295 6 224.5 -24 c 128,-1,39
 154 -54 154 -54 101 -54 c 0,40,41
 25.1707317073 -54 25.1707317073 -54 -3 -1.5 c 0,42,43
 -14 19 -14 19 -14 46 c 0,44,45
 -14 112 -14 112 62.5 194.5 c 128,-1,46
 139 277 139 277 261 333 c 1,47,48
 214 323 214 323 174 323 c 0,49,50
 48 323 48 323 48 393 c 0,51,52
 48 436 48 436 95 496.5 c 128,-1,53
 142 557 142 557 208.5 609 c 128,-1,54
 275 661 275 661 352.5 698.5 c 128,-1,55
 430 736 430 736 485 736 c 0,56,57
 570 736 570 736 570 678 c 0,58,59
 570 672 570 672 569 669 c 1,60,61
 613 683 613 683 635 683 c 128,-1,62
 657 683 657 683 663 681.5 c 128,-1,63
 669 680 669 680 669 669 c 128,-1,64
 669 658 669 658 661 656 c 1,65,66
 615 656 615 656 561 639 c 1,67,68
 539 586 539 586 483.5 540.5 c 128,-1,69
 428 495 428 495 378 495 c 0,0,1
384 523 m 0,70,71
 384 514 384 514 400 514 c 0,72,73
 430 514 430 514 471 550.5 c 128,-1,74
 512 587 512 587 530 628 c 1,75,76
 472 604 472 604 428 571.5 c 128,-1,77
 384 539 384 539 384 523 c 0,70,71
EndSplineSet
EndChar

StartChar: F
Encoding: 70 70 5
Width: 410
Flags: HMW
HStem: -23 21G<127.5 133.5> 194 34 308 38<-58.5 6.5 -58.5 34> 662 38 684 20G<914.5 921>
VStem: -128 21<377.5 431>
LayerCount: 2
Fore
SplineSet
527 662 m 1,0,-1
 438 663 l 1,1,-1
 428 663 l 2,2,3
 322 663 322 663 219.5 633 c 128,-1,4
 117 603 117 603 47.5 559.5 c 128,-1,5
 -22 516 -22 516 -64.5 470 c 128,-1,6
 -107 424 -107 424 -107 391 c 0,7,8
 -107 346 -107 346 -38.5 346 c 128,-1,9
 30 346 30 346 127.5 392.5 c 128,-1,10
 225 439 225 439 291 510 c 0,11,12
 302 521 302 521 306 521 c 0,13,14
 308 521 308 521 308 518 c 128,-1,15
 308 515 308 515 307 513 c 0,16,17
 279 447 279 447 171.5 377.5 c 128,-1,18
 64 308 64 308 -39 308 c 0,19,20
 -83 308 -83 308 -105.5 326 c 128,-1,21
 -128 344 -128 344 -128 381.5 c 128,-1,22
 -128 419 -128 419 -86.5 473.5 c 128,-1,23
 -45 528 -45 528 27 579 c 128,-1,24
 99 630 99 630 214.5 665 c 128,-1,25
 330 700 330 700 459 700 c 0,26,27
 883 700 883 700 897 702 c 128,-1,28
 911 704 911 704 920.5 704 c 128,-1,29
 930 704 930 704 930 700 c 128,-1,30
 930 696 930 696 919.5 687.5 c 128,-1,31
 909 679 909 679 883.5 670.5 c 128,-1,32
 858 662 858 662 826 662 c 0,33,34
 676.5 662 676.5 662 527 662 c 1,0,-1
491 618 m 1,35,36
 491 616 491 616 489 612 c 2,37,-1
 290 226 l 1,38,39
 372 228 372 228 408 228 c 2,40,-1
 446 228 l 1,41,42
 511 227 511 227 511 220.5 c 128,-1,43
 511 214 511 214 496.5 203.5 c 128,-1,44
 482 193 482 193 469 193 c 0,45,46
 441 195 441 195 336 195 c 2,47,-1
 274 195 l 1,48,-1
 176 4 l 2,49,50
 170 -9 170 -9 154 -16 c 128,-1,51
 138 -23 138 -23 129.5 -23 c 128,-1,52
 121 -23 121 -23 121 -18 c 128,-1,53
 121 -13 121 -13 230 194 c 1,54,55
 106 190 106 190 40 182 c 0,56,57
 32 182 32 182 32 185.5 c 0,58,59
 32 191.111111111 32 191.111111111 51 208 c 1,60,61
 66.7974683544 217.873417722 66.7974683544 217.873417722 246 224 c 1,62,63
 443 597 443 597 441 599 c 1,64,65
 447 609 447 609 461 614 c 2,66,-1
 486 622 l 1,67,-1
 491 618 l 1,35,36
EndSplineSet
EndChar

StartChar: G
Encoding: 71 71 6
Width: 495
Flags: HMW
HStem: -317 21G<145.5 157.5> 24 29<86.5 176.5> 423 27<435.5 444> 709 23<491.5 579.5>
VStem: -6 45<106.5 281> 388 37<459.5 480>
LayerCount: 2
Fore
SplineSet
471 273 m 1,0,1
 383.781818182 176.090909091 383.781818182 176.090909091 297 110.5 c 0,2,3
 254 78 254 78 198 51 c 128,-1,4
 142 24 142 24 97 24 c 0,5,6
 -6 24 -6 24 -6 121 c 0,7,8
 -6 212 -6 212 38 306.5 c 128,-1,9
 82 401 82 401 150.5 475 c 128,-1,10
 219 549 219 549 298 608.5 c 128,-1,11
 377 668 377 668 450.5 700 c 128,-1,12
 524 732 524 732 574 732 c 0,13,14
 639 732 639 732 642 675 c 1,15,16
 677 690 677 690 695 690 c 1,17,18
 707 687 707 687 707 679 c 128,-1,19
 707 671 707 671 702 664 c 128,-1,20
 697 657 697 657 685 657 c 128,-1,21
 673 657 673 657 639 645 c 1,22,23
 625 565 625 565 545 494 c 128,-1,24
 465 423 465 423 414 423 c 0,25,26
 388 423 388 423 388 447 c 0,27,28
 388 493 388 493 461 557.5 c 128,-1,29
 534 622 534 622 616 663 c 1,30,-1
 616 664 l 2,31,32
 616 709 616 709 563 709 c 0,33,34
 520 709 520 709 454 679.5 c 128,-1,35
 388 650 388 650 316.5 594.5 c 128,-1,36
 245 539 245 539 182.5 469.5 c 128,-1,37
 120 400 120 400 79.5 309.5 c 128,-1,38
 39 219 39 219 39 130 c 0,39,40
 39 53 39 53 112 53 c 0,41,42
 271 53 271 53 548 384 c 0,43,44
 565 404 565 404 578 404 c 128,-1,45
 591 404 591 404 591 401.5 c 128,-1,46
 591 399 591 399 585 387.5 c 128,-1,47
 579 376 579 376 516.5 276 c 128,-1,48
 454 176 454 176 382.5 61 c 0,49,50
 195.677419355 -239.483870968 195.677419355 -239.483870968 180 -263 c 0,51,52
 177 -269 177 -269 177 -273 c 128,-1,53
 177 -277 177 -277 186 -277 c 2,54,-1
 211 -275 l 2,55,56
 219 -275 219 -275 219 -278 c 0,57,58
 219 -283 219 -283 190 -300 c 128,-1,59
 161 -317 161 -317 149 -317 c 128,-1,60
 137 -317 137 -317 137 -302 c 128,-1,61
 137 -287 137 -287 147.5 -257.5 c 128,-1,62
 158 -228 158 -228 240.5 -98.5 c 128,-1,63
 323 31 323 31 398.5 146.5 c 128,-1,64
 474 262 474 262 474 267.5 c 128,-1,65
 474 273 474 273 471 273 c 1,0,1
440 450 m 0,66,67
 477 450 477 450 538 507 c 128,-1,68
 599 564 599 564 613 634 c 1,69,70
 544 602 544 602 484.5 551 c 128,-1,71
 425 500 425 500 425 464 c 0,72,73
 425 450 425 450 440 450 c 0,66,67
EndSplineSet
EndChar

StartChar: H
Encoding: 72 72 7
Width: 468
Flags: HMW
HStem: -110 21G -6 21G<315.5 327> 411 38<50.5 77.5 34.5 80.5> 706 20G<724 726>
VStem: -8 35<329 384 329 395>
LayerCount: 2
Fore
SplineSet
558 176 m 1,0,1
 565 176 565 176 565 169 c 128,-1,2
 565 162 565 162 554 157 c 0,3,4
 486 123 486 123 394 120 c 1,5,6
 346 28 346 28 345 25.5 c 128,-1,7
 344 23 344 23 340.5 15.5 c 128,-1,8
 337 8 337 8 334.5 4 c 0,9,10
 328.25 -6 328.25 -6 321 -6 c 0,11,12
 303 -6 303 -6 303 19 c 0,13,14
 303 72 303 72 290 127 c 1,15,16
 235 135 235 135 189 152 c 1,17,-1
 54 -89 l 1,18,-1
 32.879875 -103.6055 l 1,19,20
 20.8489000651 -109.63055424 20.8489000651 -109.63055424 14 -110 c 0,21,22
 5 -110 5 -110 5 -100 c 0,23,24
 5 -94 5 -94 9 -86 c 2,25,-1
 153 167 l 1,26,27
 80 200 80 200 36 251.5 c 128,-1,28
 -8 303 -8 303 -8 366 c 0,29,30
 -8 449 -8 449 52 449 c 0,31,32
 91 449 91 449 141.5 411 c 128,-1,33
 192 373 192 373 235 310 c 1,34,-1
 430 654 l 1,35,36
 441 670 441 670 469 670 c 0,37,38
 476 670 476 670 476 665.5 c 128,-1,39
 476 661 476 661 257 272 c 1,40,41
 292 209 292 209 308 141 c 1,42,43
 337 137 337 137 376 137 c 1,44,45
 489 357 489 357 683 704 c 0,46,47
 694 724 694 724 724 726 c 0,48,49
 732 726 732 726 732 720.5 c 128,-1,50
 732 715 732 715 725 703 c 128,-1,51
 718 691 718 691 663.5 596 c 0,52,53
 467.611428571 254.542857143 467.611428571 254.542857143 404 137 c 1,54,55
 488 142 488 142 558 176 c 1,0,1
163 184 m 1,56,-1
 220 284 l 1,57,58
 182 341 182 341 137 376 c 128,-1,59
 92 411 92 411 61 411 c 0,60,61
 27 411 27 411 27 370 c 0,62,63
 27 311 27 311 63.5 263 c 128,-1,64
 100 215 100 215 163 184 c 1,56,-1
199 169 m 1,65,66
 239 153 239 153 285 145 c 1,67,68
 268.5 200.5 268.5 200.5 243 247 c 1,69,70
 200 171 200 171 199 169 c 1,65,66
311 124 m 1,71,72
 320 80 320 80 320 36 c 1,73,-1
 321 25 l 1,74,75
 328 41 328 41 367 120 c 1,76,77
 349 120 349 120 311 124 c 1,71,72
EndSplineSet
EndChar

StartChar: I
Encoding: 73 73 8
Width: 574
Flags: HMW
HStem: -55 33<-40.5 -8> 188 36<275 378.5> 705 54<604.5 632.5>
VStem: -119 39 408 31<387.5 448.5> 548 30<128 150> 660 41<582 666.5>
LayerCount: 2
Fore
SplineSet
-119 1 m 1,0,1
 -119 53 -119 53 -39.5 106 c 128,-1,2
 40 159 40 159 156.5 191.5 c 128,-1,3
 273 224 273 224 381 224 c 0,4,5
 408 224 408 224 440 221 c 1,6,7
 660 427 660 427 660 646 c 0,8,9
 660 705 660 705 621 705 c 0,10,11
 597 705 597 705 566 680.5 c 128,-1,12
 535 656 535 656 506.5 616 c 128,-1,13
 478 576 478 576 458.5 517 c 128,-1,14
 439 458 439 458 439 392.5 c 0,15,16
 439 327 439 327 457 316 c 0,17,18
 462 313 462 313 462 309 c 1,19,20
 454 292 454 292 439.5 292 c 0,21,22
 425 292 425 292 416.5 300.5 c 128,-1,23
 408 309 408 309 408 325 c 0,24,25
 408 413 408 413 433.5 496.5 c 128,-1,26
 459 580 459 580 496 635.5 c 128,-1,27
 533 691 533 691 574 725 c 128,-1,28
 615 759 615 759 647 759 c 0,29,30
 701 759 701 759 701 674 c 0,31,32
 701 429 701 429 471 217 c 1,33,34
 578 198 578 198 578 142 c 0,35,36
 578 122 578 122 552.5 100.5 c 128,-1,37
 527 79 527 79 511.5 78 c 0,38,39
 496 77 496 77 495 81 c 0,40,41
 495 84 495 84 506 91 c 0,42,43
 548 117 548 117 548 135 c 0,44,45
 548 176 548 176 435 185 c 1,46,47
 310 79 310 79 165 12 c 128,-1,48
 20 -55 20 -55 -44 -55 c 0,49,50
 -76 -55 -76 -55 -94.5 -41 c 128,-1,51
 -113 -27 -113 -27 -116 -13 c 2,52,-1
 -119 1 l 1,0,1
374 188 m 0,53,54
 275 188 275 188 170.5 164 c 128,-1,55
 66 140 66 140 -6.5 99 c 128,-1,56
 -79 58 -79 58 -80 15 c 1,57,58
 -77 -22 -77 -22 -24 -22 c 0,59,60
 47 -22 47 -22 169 36 c 128,-1,61
 291 94 291 94 402 187 c 1,62,63
 392 188 392 188 374 188 c 0,53,54
EndSplineSet
EndChar

StartChar: J
Encoding: 74 74 9
Width: 525
Flags: HMW
HStem: -422 45<-65 -46> -17 120<435.5 455.5> 76 27<433.5 449> 93 31<89 116.5> 666 30<461 524>
VStem: -118 41<-361.5 -332.5> 21 35<158 246.5> 466 39<48 56.5> 556 49<576 627.5>
LayerCount: 2
Fore
SplineSet
439 76 m 0,0,1
 386 76 386 76 330 60 c 1,2,3
 200 -143 200 -143 84.5 -282.5 c 128,-1,4
 -31 -422 -31 -422 -83 -422 c 0,5,6
 -118 -422 -118 -422 -118 -383.5 c 0,7,8
 -118 -345 -118 -345 -84 -281 c 128,-1,9
 -50 -217 -50 -217 5.5 -149.5 c 128,-1,10
 61 -82 61 -82 141.5 -19.5 c 128,-1,11
 222 43 222 43 305 74 c 1,12,13
 408 250 408 250 482 406 c 128,-1,14
 556 562 556 562 556 607 c 0,15,16
 556 666 556 666 510.5 666 c 0,17,18
 465 666 465 666 387 611 c 128,-1,19
 309 556 309 556 236 480 c 128,-1,20
 163 404 163 404 109.5 317 c 128,-1,21
 56 230 56 230 56 177 c 0,22,23
 56 124 56 124 107 124 c 0,24,25
 161 124 161 124 228.5 188 c 128,-1,26
 296 252 296 252 307 297 c 0,27,28
 309 304 309 304 316.5 304 c 0,29,30
 324 304 324 304 324 297 c 0,31,32
 324 244 324 244 231 168.5 c 128,-1,33
 138 93 138 93 73 93 c 0,34,35
 21 93 21 93 21 156.5 c 0,36,37
 21 220 21 220 80.5 316 c 128,-1,38
 140 412 140 412 221.5 495 c 128,-1,39
 303 578 303 578 392.5 637 c 128,-1,40
 482 696 482 696 538 696 c 0,41,42
 605 696 605 696 605 609 c 0,43,44
 605 557 605 557 531 409 c 128,-1,45
 457 261 457 261 348 88 c 1,46,47
 405 103 405 103 437.5 103 c 0,48,49
 470 103 470 103 487.5 93.5 c 128,-1,50
 505 84 505 84 505 69 c 0,51,52
 505 37 505 37 484.5 10 c 128,-1,53
 464 -17 464 -17 437 -17 c 0,54,55
 433 -17 433 -17 433 -14 c 0,56,57
 433 -4 433 -4 447 3 c 1,58,59
 466 20 466 20 466 48 c 0,60,61
 466 76 466 76 439 76 c 0,0,1
-77 -354 m 0,62,63
 -77 -377 -77 -377 -59 -377 c 0,64,65
 -11 -377 -11 -377 82.5 -258 c 128,-1,66
 176 -139 176 -139 287 44 c 1,67,68
 190 5 190 5 102 -78.5 c 128,-1,69
 14 -162 14 -162 -31.5 -238 c 128,-1,70
 -77 -314 -77 -314 -77 -354 c 0,62,63
EndSplineSet
EndChar

StartChar: K
Encoding: 75 75 10
Width: 527
Flags: HMW
HStem: -27 21G<444.5 447> -9 21G<51.5 57.5> 193 20<63 71> 332 22<181.5 215> 711 20G<766 775>
VStem: 0 36<233.5 266.5> 459 31<67.5 140.5>
LayerCount: 2
Fore
SplineSet
469 694 m 1,0,1
 464.455497382 680.366492147 464.455497382 680.366492147 285 351 c 1,2,3
 323 347 323 347 358 333 c 1,4,5
 488 414 488 414 599.5 517.5 c 128,-1,6
 711 621 711 621 761 721 c 1,7,8
 762 731 762 731 770.5 731 c 128,-1,9
 779 731 779 731 789.5 726 c 128,-1,10
 800 721 800 721 800 714 c 1,11,12
 761 618 761 618 644 512.5 c 128,-1,13
 527 407 527 407 382 321 c 1,14,15
 490 263 490 263 490 116 c 0,16,17
 490 73 490 73 479 37 c 128,-1,18
 468 1 468 1 457.5 -13 c 2,19,-1
 447 -27 l 1,20,21
 439 -27 439 -27 439 -17 c 1,22,-1
 445 2 l 2,23,24
 459 45 459 45 459 84 c 0,25,26
 459 236 459 236 345 300 c 1,27,28
 290 270 290 270 225 240 c 1,29,30
 143 91 143 91 100 18 c 1,31,32
 93 1 93 1 81.5 -4 c 128,-1,33
 70 -9 70 -9 58 -9 c 128,-1,34
 46 -9 46 -9 46 -5 c 1,35,-1
 167 217 l 1,36,37
 101 193 101 193 57 193 c 0,38,39
 0 193 0 193 0 237 c 128,-1,40
 0 281 0 281 75.5 317.5 c 128,-1,41
 151 354 151 354 242 354 c 1,42,-1
 419 679 l 1,43,44
 422 687 422 687 437.5 692.5 c 128,-1,45
 453 698 453 698 461 698 c 128,-1,46
 469 698 469 698 469 694 c 1,0,1
212 332 m 0,47,48
 142 332 142 332 89 306 c 128,-1,49
 36 280 36 280 36 244 c 0,50,51
 36 213 36 213 75.5 213 c 128,-1,52
 115 213 115 213 179 239 c 1,53,-1
 229 331 l 1,54,55
 223 332 223 332 212 332 c 0,47,48
272 326 m 1,56,57
 245 276 245 276 239 265 c 1,58,59
 270 280 270 280 322 311 c 1,60,61
 298 321 298 321 272 326 c 1,56,57
EndSplineSet
EndChar

StartChar: L
Encoding: 76 76 11
Width: 500
Flags: HMW
HStem: -177 228 12 39 489 236<628.5 681.5> 630 95<589 844 589 832>
VStem: 607 30<516 536 516 536.5>
LayerCount: 2
Fore
SplineSet
880 628 m 2,0,-1
 844 630 l 1,1,-1
 832 630 l 1,2,3
 815 578 815 578 757.5 533.5 c 128,-1,4
 700 489 700 489 640 489 c 0,5,6
 607 489 607 489 607 515 c 0,7,8
 607 552 607 552 668 599.5 c 128,-1,9
 729 647 729 647 814 655 c 1,10,-1
 814 659 l 2,11,12
 814 710 814 710 727 710 c 0,13,14
 592.78 710 592.78 710 488.5 552 c 0,15,16
 439 477 439 477 396.5 398 c 0,17,18
 261.602627258 147.249589491 261.602627258 147.249589491 188 51 c 1,19,20
 221 51 221 51 239 50 c 2,21,-1
 403 45 l 1,22,23
 464 45 464 45 474.5 43.5 c 128,-1,24
 485 42 485 42 485 38 c 0,25,26
 485 9 485 9 437 6 c 1,27,28
 305 10 305 10 156 12 c 1,29,30
 -9 -177 -9 -177 -231 -177 c 0,31,32
 -265 -177 -265 -177 -285.5 -160.5 c 128,-1,33
 -306 -144 -306 -144 -306 -118 c 128,-1,34
 -306 -92 -306 -92 -281.5 -65 c 128,-1,35
 -257 -38 -257 -38 -207.5 -12 c 128,-1,36
 -158 14 -158 14 -67 31.5 c 128,-1,37
 24 49 24 49 143 51 c 1,38,39
 221.980667838 158.188049209 221.980667838 158.188049209 317.5 342.5 c 0,40,41
 353 411 353 411 401 485 c 128,-1,42
 449 559 449 559 494.5 609.5 c 128,-1,43
 540 660 540 660 603.5 692.5 c 128,-1,44
 667 725 667 725 739 725 c 0,45,46
 838 725 838 725 838 660 c 2,47,-1
 838 657 l 1,48,49
 864 657 864 657 883 653 c 0,50,51
 889 651 889 651 889 639.5 c 128,-1,52
 889 628 889 628 880 628 c 2,0,-1
-264.5 -74 m 0,53,54
 -287 -95 -287 -95 -287 -114.5 c 128,-1,55
 -287 -134 -287 -134 -268 -146 c 128,-1,56
 -249 -158 -249 -158 -215 -158 c 0,57,58
 -31 -158 -31 -158 112 12 c 1,59,60
 -175.346180799 9.21023125438 -175.346180799 9.21023125438 -264.5 -74 c 0,53,54
637 521 m 0,61,62
 637 505 637 505 657 505 c 0,63,64
 693 505 693 505 741 545 c 128,-1,65
 789 585 789 585 807 628 c 1,66,67
 734 619 734 619 685.5 583.5 c 128,-1,68
 637 548 637 548 637 521 c 0,61,62
EndSplineSet
EndChar

StartChar: M
Encoding: 77 77 12
Width: 617
Flags: HMW
HStem: -16 21G<438.5 475.5> -7 22 -4 21G<206.5 216.5> 327 37<-157.5 -67 -157.5 -48> 675 20G<76.5 225.5>
VStem: -243 30<400.5 456>
LayerCount: 2
Fore
SplineSet
464 25 m 0,0,1
 464 15 464 15 480.5 15 c 128,-1,2
 497 15 497 15 539 34.5 c 128,-1,3
 581 54 581 54 613 74 c 2,4,-1
 645 94 l 1,5,6
 646 92 646 92 646 86 c 128,-1,7
 646 80 646 80 637 76 c 1,8,9
 502 -16 502 -16 449 -16 c 0,10,11
 423 -16 423 -16 423 10 c 128,-1,12
 423 36 423 36 466 109 c 2,13,-1
 642 415 l 1,14,15
 642 418 642 418 638.5 418 c 128,-1,16
 635 418 635 418 625 408.5 c 128,-1,17
 615 399 615 399 442.5 223 c 128,-1,18
 270 47 270 47 240 16 c 1,19,20
 223 -4 223 -4 210 -4 c 0,21,22
 199 -4 199 -4 199 9 c 0,23,24
 199 39 199 39 330.5 238.5 c 128,-1,25
 462 438 462 438 467 462 c 0,26,27
 467 465 467 465 464.5 465 c 128,-1,28
 462 465 462 465 447.5 450.5 c 128,-1,29
 433 436 433 436 240 235 c 128,-1,30
 47 34 47 34 16 -1 c 1,31,32
 8 -7 8 -7 -1.5 -7 c 128,-1,33
 -11 -7 -11 -7 -11 2 c 0,34,35
 -11 9 -11 9 -2 24 c 128,-1,36
 7 39 7 39 23.5 67 c 128,-1,37
 40 95 40 95 82.5 173 c 128,-1,38
 125 251 125 251 157.5 320 c 128,-1,39
 190 389 190 389 216.5 468 c 128,-1,40
 243 547 243 547 243 597 c 0,41,42
 243 680 243 680 171 680 c 0,43,44
 88 680 88 680 -4.5 632.5 c 128,-1,45
 -97 585 -97 585 -155 523 c 128,-1,46
 -213 461 -213 461 -213 416 c 0,47,48
 -213 364 -213 364 -128.5 364 c 128,-1,49
 -44 364 -44 364 32.5 416.5 c 128,-1,50
 109 469 109 469 141 529 c 1,51,52
 146 535 146 535 149 535 c 128,-1,53
 152 535 152 535 152 521.5 c 128,-1,54
 152 508 152 508 130 475 c 128,-1,55
 108 442 108 442 72.5 408.5 c 128,-1,56
 37 375 37 375 -17.5 351 c 128,-1,57
 -72 327 -72 327 -129 327 c 0,58,59
 -243 327 -243 327 -243 402 c 0,60,61
 -243 443 -243 443 -207 493.5 c 128,-1,62
 -171 544 -171 544 -113 589 c 128,-1,63
 -55 634 -55 634 27.5 664.5 c 128,-1,64
 110 695 110 695 192 695 c 0,65,66
 285 695 285 695 285 598 c 0,67,68
 285 548 285 548 260.5 474 c 128,-1,69
 236 400 236 400 201.5 330.5 c 0,70,71
 133.144859813 192.799065421 133.144859813 192.799065421 72.5 97.5 c 2,72,-1
 48 59 l 1,73,74
 52 61 52 61 146.5 159 c 0,75,76
 457 481 457 481 484 508 c 1,77,78
 503.5 508 503.5 508 507.25 503 c 128,-1,79
 511 498 511 498 511 496.5 c 2,80,-1
 511 495 l 2,81,82
 511 467.635714286 511 467.635714286 330 184.5 c 0,83,84
 260 75 260 75 254 65 c 1,85,-1
 245 45 l 1,86,87
 253 45 253 45 348 145.5 c 128,-1,88
 443 246 443 246 540.5 346.5 c 128,-1,89
 638 447 638 447 652 447 c 0,90,91
 658 447 658 447 665 441.5 c 128,-1,92
 672 436 672 436 672 430 c 128,-1,93
 672 424 672 424 669 418 c 2,94,-1
 490 94 l 2,95,96
 464 46 464 46 464 25 c 0,0,1
EndSplineSet
EndChar

StartChar: N
Encoding: 78 78 13
Width: 521
Flags: HMW
HStem: -16 31<377 379.5> 352 37<-43 49 -43 60.5> 700 20G<198 341.5>
VStem: -140 38<427 479.5> 359 42<534 647>
LayerCount: 2
Fore
SplineSet
368 25 m 0,0,1
 368 15 368 15 384.5 15 c 128,-1,2
 401 15 401 15 443 34.5 c 128,-1,3
 485 54 485 54 517 74 c 2,4,-1
 549 94 l 1,5,6
 550 92 550 92 550 86 c 128,-1,7
 550 80 550 80 541 76 c 1,8,9
 406 -16 406 -16 353 -16 c 0,10,11
 327 -16 327 -16 327 9 c 128,-1,12
 327 34 327 34 388.5 159 c 128,-1,13
 450 284 450 284 511.5 397.5 c 2,14,-1
 573 511 l 1,15,-1
 560 497 l 2,16,17
 546 483 546 483 138 24 c 1,18,19
 124 18 124 18 114.5 18 c 128,-1,20
 105 18 105 18 105 27 c 128,-1,21
 105 36 105 36 114 50 c 128,-1,22
 123 64 123 64 139.5 92 c 128,-1,23
 156 120 156 120 198.5 198 c 128,-1,24
 241 276 241 276 273.5 345 c 128,-1,25
 306 414 306 414 332.5 493 c 128,-1,26
 359 572 359 572 359 622 c 0,27,28
 359 705 359 705 287 705 c 0,29,30
 203 705 203 705 109.5 658 c 128,-1,31
 16 611 16 611 -43 549.5 c 128,-1,32
 -102 488 -102 488 -102 443 c 0,33,34
 -102 389 -102 389 -15 389 c 128,-1,35
 72 389 72 389 148.5 441.5 c 128,-1,36
 225 494 225 494 257 554 c 1,37,38
 262 560 262 560 265 560 c 128,-1,39
 268 560 268 560 268 547.5 c 128,-1,40
 268 535 268 535 244 502.5 c 128,-1,41
 220 470 220 470 183 436 c 128,-1,42
 146 402 146 402 92 377 c 128,-1,43
 38 352 38 352 -13 352 c 0,44,45
 -140 352 -140 352 -140 426 c 0,46,47
 -140 466 -140 466 -100.5 517 c 128,-1,48
 -61 568 -61 568 0.5 613 c 128,-1,49
 62 658 62 658 145.5 689 c 128,-1,50
 229 720 229 720 308 720 c 0,51,52
 401 720 401 720 401 623 c 0,53,54
 401 544 401 544 341.5 409 c 128,-1,55
 282 274 282 274 223 179 c 2,56,-1
 164 84 l 1,57,58
 168 86 168 86 258 188 c 0,59,60
 543 511 543 511 580 548 c 1,61,62
 587 548 587 548 598.5 542.5 c 128,-1,63
 610 537 610 537 610 531 c 128,-1,64
 610 525 610 525 607 519 c 0,65,66
 368 54 368 54 368 25 c 0,0,1
EndSplineSet
EndChar

StartChar: O
Encoding: 79 79 14
Width: 434
Flags: HMW
HStem: -24 29<108 197.5> 173 34<238 260.5> 630 31<455.5 513> 630 74<389 513>
VStem: 0 42<91 275 91 304.5> 165 37<255 345.5> 165 248<305 322 305 345.5> 557 41<417 570.5>
LayerCount: 2
Fore
SplineSet
418 704 m 0,0,1
 423 704 423 704 425 698 c 1,2,3
 425 690 425 690 413 688 c 1,4,5
 357 669 357 669 293.5 619 c 128,-1,6
 230 569 230 569 173.5 498.5 c 128,-1,7
 117 428 117 428 79.5 332 c 128,-1,8
 42 236 42 236 42 138 c 0,9,10
 42 5 42 5 136 5 c 0,11,12
 191 5 191 5 264.5 53.5 c 128,-1,13
 338 102 338 102 402.5 175.5 c 128,-1,14
 467 249 467 249 512 348 c 128,-1,15
 557 447 557 447 557 538.5 c 128,-1,16
 557 630 557 630 494 630 c 0,17,18
 443 630 443 630 374 575.5 c 128,-1,19
 305 521 305 521 253.5 437.5 c 128,-1,20
 202 354 202 354 202 280.5 c 128,-1,21
 202 207 202 207 253 207 c 0,22,23
 285 207 285 207 325.5 237.5 c 128,-1,24
 366 268 366 268 398 319 c 0,25,26
 402 327 402 327 407.5 327 c 128,-1,27
 413 327 413 327 413 321 c 0,28,29
 413 293 413 293 343.5 233 c 128,-1,30
 274 173 274 173 224 173 c 0,31,32
 165 173 165 173 165 268 c 0,33,34
 165 342 165 342 227 436.5 c 128,-1,35
 289 531 289 531 373 596 c 128,-1,36
 457 661 457 661 518 661 c 0,37,38
 598 661 598 661 598 542 c 0,39,40
 598 452 598 452 546 348.5 c 128,-1,41
 494 245 494 245 419.5 164.5 c 128,-1,42
 345 84 345 84 260 30 c 128,-1,43
 175 -24 175 -24 111 -24 c 0,44,45
 0 -24 0 -24 0 134 c 0,46,47
 0 230 0 230 38 323.5 c 128,-1,48
 76 417 76 417 130.5 483 c 128,-1,49
 185 549 185 549 245.5 601 c 128,-1,50
 306 653 306 653 352.5 678.5 c 128,-1,51
 399 704 399 704 418 704 c 0,0,1
EndSplineSet
EndChar

StartChar: P
Encoding: 80 80 15
Width: 263
Flags: HMW
HStem: -26 21G<46.5 52.5> 306 39<-60 -13.5> 711 34<364.5 508.5>
VStem: -151 42<382 457> 623 49<579.5 644>
LayerCount: 2
Fore
SplineSet
436 615 m 1,0,1
 436 613 436 613 429 597.5 c 0,2,3
 422 582 422 582 243 263 c 1,4,5
 391 324 391 324 507 430.5 c 128,-1,6
 623 537 623 537 623 616 c 0,7,8
 623 711 623 711 445 711 c 0,9,10
 341 711 341 711 210 663 c 128,-1,11
 79 615 79 615 -15 541 c 128,-1,12
 -109 467 -109 467 -109 401 c 0,13,14
 -109 345 -109 345 -39 345 c 0,15,16
 20 345 20 345 100.5 386.5 c 128,-1,17
 181 428 181 428 245 497 c 1,18,19
 253 510 253 510 259.5 510 c 0,20,21
 266 510 266 510 266 503 c 0,22,23
 266 480 266 480 207 432.5 c 128,-1,24
 148 385 148 385 65 345.5 c 128,-1,25
 -18 306 -18 306 -74 306 c 0,26,27
 -151 306 -151 306 -151 385 c 0,28,29
 -151 454 -151 454 -42.5 540 c 128,-1,30
 66 626 66 626 217 685.5 c 128,-1,31
 368 745 368 745 482 745 c 0,32,33
 672 745 672 745 672 640 c 0,34,35
 672 549 672 549 537.5 426 c 128,-1,36
 403 303 403 303 228 236 c 1,37,38
 128 57 128 57 95 1 c 1,39,40
 89 -12 89 -12 73 -19 c 0,41,42
 57 -26 57 -26 48.5 -26 c 0,43,44
 40 -26 40 -26 40 -21 c 1,45,-1
 173 217 l 1,46,47
 110 198 110 198 56 192 c 0,48,49
 50 192 50 192 50 204.5 c 0,50,51
 50 217 50 217 61 218 c 0,52,53
 120 221 120 221 188 243 c 1,54,-1
 388 600 l 1,55,56
 391 608 391 608 406 613.5 c 128,-1,57
 421 619 421 619 431 619 c 1,58,-1
 436 615 l 1,0,1
EndSplineSet
EndChar

StartChar: Q
Encoding: 81 81 16
Width: 470
Flags: HMW
HStem: -218 21G<308 311> 16 31<129.5 173.5> 178 27<233.5 249> 402 27<435 439.5> 660 28<500 595.5>
VStem: 0 41<140.5 241> 150 37<249.5 324> 308 33 338 32<-89 -72.5> 448 35<379.5 391> 646 31<536 603.5>
LayerCount: 2
Fore
SplineSet
402 681 m 1,0,1
 418 680 418 680 418 676.5 c 128,-1,2
 418 673 418 673 408 669 c 0,3,4
 258 601 258 601 149.5 450 c 128,-1,5
 41 299 41 299 41 179 c 0,6,7
 41 118 41 118 75 82.5 c 128,-1,8
 109 47 109 47 173 47 c 128,-1,9
 237 47 237 47 312 91 c 1,10,11
 308 126 308 126 308 179 c 2,12,-1
 308 197 l 1,13,14
 270 178 270 178 238 178 c 0,15,16
 150 178 150 178 150 253 c 0,17,18
 150 305 150 305 193.5 380.5 c 128,-1,19
 237 456 237 456 301 524 c 128,-1,20
 365 592 365 592 446 640 c 128,-1,21
 527 688 527 688 595 688 c 0,22,23
 677 688 677 688 677 601 c 0,24,25
 677 502 677 502 579.5 347.5 c 128,-1,26
 482 193 482 193 355 99 c 1,27,28
 370 -19 370 -19 370 -63.5 c 128,-1,29
 370 -108 370 -108 349.5 -162.5 c 128,-1,30
 329 -217 329 -217 310 -218 c 0,31,32
 305 -218 305 -218 305 -211 c 128,-1,33
 305 -204 305 -204 311 -197 c 1,34,35
 338 -178 338 -178 338 -103 c 0,36,37
 338 -64.4615384615 338 -64.4615384615 327.5 -8.73076923077 c 128,-1,38
 317 47 317 47 314 72 c 1,39,40
 224 16 224 16 148 16 c 128,-1,41
 72 16 72 16 36 54 c 128,-1,42
 0 92 0 92 0 157 c 0,43,44
 0 289 0 289 120.5 453.5 c 128,-1,45
 241 618 241 618 402 681 c 1,0,1
646 579 m 0,46,47
 646 660 646 660 569 660 c 128,-1,48
 492 660 492 660 400.5 588.5 c 128,-1,49
 309 517 309 517 248 424 c 128,-1,50
 187 331 187 331 187 268 c 128,-1,51
 187 205 187 205 259 205 c 0,52,53
 281 205 281 205 310 217 c 1,54,55
 319 303 319 303 359 366 c 128,-1,56
 399 429 399 429 453 429 c 0,57,58
 483 429 483 429 483 398.5 c 128,-1,59
 483 368 483 368 440 311.5 c 128,-1,60
 397 255 397 255 341 216 c 1,61,62
 344 175 344 175 352 118 c 1,63,64
 466 203 466 203 556 345 c 128,-1,65
 646 487 646 487 646 579 c 0,46,47
416 312.5 m 128,-1,67
 448 360 448 360 448 381 c 128,-1,68
 448 402 448 402 435 402 c 0,69,70
 406 401 406 401 373.5 344.5 c 128,-1,71
 341 288 341 288 341 243 c 2,72,-1
 341 235 l 1,73,66
 384 265 384 265 416 312.5 c 128,-1,67
EndSplineSet
EndChar

StartChar: R
Encoding: 82 82 17
Width: 564
Flags: HMW
HStem: -38 21G<525 527.5> -7 21G<58.5 64.5> 237 27 315 41<-66 -25.5> 719 34<337 508.5>
VStem: -154 45<383 418.5> 623 49<582.5 644>
LayerCount: 2
Fore
SplineSet
435 623 m 1,0,1
 435 621 435 621 433.5 618.5 c 128,-1,2
 432 616 432 616 403.5 561.5 c 0,3,4
 373.394366197 503.929577465 373.394366197 503.929577465 241 259 c 1,5,6
 389 314 389 314 506 423.5 c 128,-1,7
 623 533 623 533 623 616 c 0,8,9
 623 661 623 661 579 690 c 128,-1,10
 535 719 535 719 446 719 c 128,-1,11
 357 719 357 719 254.5 681.5 c 128,-1,12
 152 644 152 644 74 592 c 128,-1,13
 -4 540 -4 540 -56.5 485 c 128,-1,14
 -109 430 -109 430 -109 395 c 0,15,16
 -109 356 -109 356 -46.5 356 c 128,-1,17
 16 356 16 356 96.5 397.5 c 128,-1,18
 177 439 177 439 241 508 c 0,19,20
 252 521 252 521 255 521 c 0,21,22
 262 521 262 521 262 514 c 0,23,24
 262 512 262 512 255 500 c 0,25,26
 222 450 222 450 108.5 382.5 c 128,-1,27
 -5 315 -5 315 -79.5 315 c 128,-1,28
 -154 315 -154 315 -154 362 c 0,29,30
 -154 404 -154 404 -94.5 470.5 c 128,-1,31
 -35 537 -35 537 54 600 c 128,-1,32
 143 663 143 663 261 708 c 128,-1,33
 379 753 379 753 478.5 753 c 128,-1,34
 578 753 578 753 625 721.5 c 128,-1,35
 672 690 672 690 672 640 c 0,36,37
 672 553 672 553 561.5 442 c 128,-1,38
 451 331 451 331 295 264 c 1,39,40
 396 263 396 263 463 176.5 c 128,-1,41
 530 90 530 90 531 -24 c 0,42,43
 531 -38 531 -38 526 -38 c 0,44,45
 518.166666667 -38 518.166666667 -38 515.083333333 -20.5 c 128,-1,46
 512 -3 512 -3 508 14 c 128,-1,47
 504 31 504 31 483.5 74 c 128,-1,48
 463 117 463 117 435.5 150 c 128,-1,49
 408 183 408 183 356 210 c 128,-1,50
 304 237 304 237 239 237 c 2,51,-1
 228 237 l 1,52,53
 156 106 156 106 107 20 c 1,54,55
 101 7 101 7 85 0 c 128,-1,56
 69 -7 69 -7 60.5 -7 c 128,-1,57
 52 -7 52 -7 52 -2 c 1,58,-1
 175 222 l 1,59,60
 135 212 135 212 93 207 c 1,61,62
 75 207 75 207 75 213 c 0,63,64
 75 224 75 224 86 225 c 0,65,66
 132 228 132 228 186 242 c 1,67,-1
 387 608 l 1,68,69
 390 616 390 616 405 621.5 c 128,-1,70
 420 627 420 627 430 627 c 1,71,-1
 435 623 l 1,0,1
EndSplineSet
EndChar

StartChar: S
Encoding: 83 83 18
Width: 455
Flags: HMW
HStem: -140 36<-70.5 -25> 146 25<352.5 380.5> 470 21<473 496.5> 737 30<465.5 543>
VStem: -150 39<-84.5 -41> 217 33<463.5 570.5> 280 30<205 253.5> 427 31 427 213
LayerCount: 2
Fore
SplineSet
466 470 m 0,0,1
 427 470 427 470 427 504 c 0,2,3
 427 556 427 556 485 602 c 128,-1,4
 543 648 543 648 623 677 c 1,5,6
 616 706 616 706 587 721.5 c 128,-1,7
 558 737 558 737 515.5 737 c 128,-1,8
 473 737 473 737 427.5 721 c 128,-1,9
 382 705 382 705 341.5 675.5 c 128,-1,10
 301 646 301 646 275.5 597.5 c 128,-1,11
 250 549 250 549 250 491 c 0,12,13
 250 471 250 471 280 374 c 128,-1,14
 310 277 310 277 310 213 c 0,15,16
 310 197 310 197 306 167 c 1,17,18
 344 171 344 171 361 171 c 0,19,20
 458 171 458 171 458 120 c 0,21,22
 458 102 458 102 447 90 c 128,-1,23
 436 78 436 78 410 62 c 1,24,25
 402 67 402 67 402 71 c 128,-1,26
 402 75 402 75 406 78 c 0,27,28
 436 95 436 95 436 112 c 0,29,30
 436 146 436 146 357 146 c 0,31,32
 328 146 328 146 301 142 c 1,33,34
 284 78 284 78 237.5 22.5 c 128,-1,35
 191 -33 191 -33 134 -67.5 c 128,-1,36
 77 -102 77 -102 19.5 -121 c 128,-1,37
 -38 -140 -38 -140 -82 -140 c 0,38,39
 -150 -140 -150 -140 -150 -100 c 0,40,41
 -150 -44 -150 -44 -80 13 c 128,-1,42
 -10 70 -10 70 86.5 108.5 c 128,-1,43
 183 147 183 147 276 163 c 1,44,45
 280 191 280 191 280 208 c 0,46,47
 280 251 280 251 248.5 342.5 c 128,-1,48
 217 434 217 434 217 500 c 128,-1,49
 217 566 217 566 269 631.5 c 128,-1,50
 321 697 321 697 392.5 732 c 128,-1,51
 464 767 464 767 528 767 c 0,52,53
 629 767 629 767 639 682 c 1,54,55
 695 700 695 700 715 700 c 128,-1,56
 735 700 735 700 736.5 698.5 c 128,-1,57
 738 697 738 697 738 687 c 128,-1,58
 738 677 738 677 729 674 c 1,59,60
 684 672 684 672 640 661 c 1,61,62
 638 580 638 580 579 525 c 128,-1,63
 520 470 520 470 466 470 c 0,0,1
-111 -75 m 0,64,65
 -111 -104 -111 -104 -53 -104 c 0,66,67
 28.0357142857 -104 28.0357142857 -104 128.5 -46 c 0,68,69
 177 -18 177 -18 216.5 30.5 c 128,-1,70
 256 79 256 79 271 138 c 1,71,72
 186 124 186 124 100.5 93 c 128,-1,73
 15 62 15 62 -48 16.5 c 128,-1,74
 -111 -29 -111 -29 -111 -75 c 0,64,65
459 510 m 0,75,76
 459 491 459 491 479 491 c 0,77,78
 517 491 517 491 570.5 542.5 c 128,-1,79
 624 594 624 594 625 656 c 1,80,81
 555 634 555 634 507 595 c 128,-1,82
 459 556 459 556 459 510 c 0,75,76
EndSplineSet
EndChar

StartChar: T
Encoding: 84 84 19
Width: 265
Flags: HMW
HStem: -35 21G<44.5 50.5> 282 38<-123.5 -63.5 -123.5 -36> 651 37<438 438> 672 20G<821.5 828>
VStem: -206 42<348.5 395>
LayerCount: 2
Fore
SplineSet
470 688 m 0,0,1
 790 688 790 688 804 690 c 128,-1,2
 818 692 818 692 827.5 692 c 128,-1,3
 837 692 837 692 837 688 c 128,-1,4
 837 684 837 684 826.5 675.5 c 128,-1,5
 816 667 816 667 790.5 658.5 c 128,-1,6
 765 650 765 650 733 650 c 2,7,-1
 438 651 l 1,8,9
 309 649 309 649 191.5 616 c 128,-1,10
 74 583 74 583 -1 537 c 128,-1,11
 -76 491 -76 491 -120 443 c 128,-1,12
 -164 395 -164 395 -164 361 c 0,13,14
 -164 320 -164 320 -103 320 c 128,-1,15
 -42 320 -42 320 55.5 372.5 c 128,-1,16
 153 425 153 425 221 498 c 0,17,18
 232 509 232 509 236 509 c 0,19,20
 238 509 238 509 238 506 c 128,-1,21
 238 503 238 503 237 501 c 0,22,23
 208 433 208 433 100 357.5 c 128,-1,24
 -8 282 -8 282 -107 282 c 128,-1,25
 -206 282 -206 282 -206 339 c 0,26,27
 -206 382 -206 382 -150 441 c 128,-1,28
 -94 500 -94 500 -5 555.5 c 128,-1,29
 84 611 84 611 212.5 649.5 c 128,-1,30
 341 688 341 688 470 688 c 0,0,1
425 615 m 1,31,32
 425 612.441176471 425 612.441176471 355 482.220588235 c 0,33,34
 164.111111111 127.111111111 164.111111111 127.111111111 93 -8 c 0,35,36
 87 -21 87 -21 71 -28 c 128,-1,37
 55 -35 55 -35 46.5 -35 c 128,-1,38
 38 -35 38 -35 38 -30.5 c 128,-1,39
 38 -26 38 -26 123 130 c 128,-1,40
 208 286 208 286 292.5 440.5 c 128,-1,41
 377 595 377 595 375 596 c 1,42,43
 381 606 381 606 395 611 c 2,44,-1
 420 619 l 1,45,-1
 425 615 l 1,31,32
EndSplineSet
EndChar

StartChar: U
Encoding: 85 85 20
Width: 500
Flags: HMW
HStem: -16 31<322.5 385> 7 27<105 138> 323 42<-148 -67.5 -148 -65> 675 20G<98 242>
VStem: -227 30<398 441.5> 43 47<60.5 124> 310 43<583 625.5>
LayerCount: 2
Fore
SplineSet
362 15 m 1,0,1
 382 15 382 15 424 34.5 c 128,-1,2
 466 54 466 54 498 74 c 2,3,-1
 530 94 l 1,4,5
 531 92 531 92 531 86 c 128,-1,6
 531 80 531 80 522 76 c 1,7,8
 387 -16 387 -16 334 -16 c 0,9,10
 299 -16 299 -16 299 28 c 0,11,12
 299 107 299 107 400 254 c 1,13,14
 361.96460177 207.814159292 361.96460177 207.814159292 293.482300885 141.407079646 c 0,15,16
 154.875 7 154.875 7 93 7 c 0,17,18
 69 7 69 7 56 23.5 c 128,-1,19
 43 40 43 40 43 60 c 0,20,21
 43 103 43 103 84.5 181.5 c 128,-1,22
 126 260 126 260 176.5 332.5 c 128,-1,23
 227 405 227 405 268.5 481 c 128,-1,24
 310 557 310 557 310 597 c 128,-1,25
 310 637 310 637 278 659 c 128,-1,26
 246 681 246 681 191 681 c 128,-1,27
 136 681 136 681 62 651.5 c 128,-1,28
 -12 622 -12 622 -67.5 579.5 c 128,-1,29
 -123 537 -123 537 -160 491 c 128,-1,30
 -197 445 -197 445 -197 412 c 0,31,32
 -197 365 -197 365 -121 365 c 128,-1,33
 -45 365 -45 365 36 422 c 128,-1,34
 117 479 117 479 178 563 c 0,35,36
 183 571 183 571 188 571 c 2,37,-1
 189 571 l 1,38,39
 194 568 194 568 194 563 c 0,40,41
 194 539 194 539 142 482 c 128,-1,42
 90 425 90 425 10 374 c 128,-1,43
 -70 323 -70 323 -132 323 c 0,44,45
 -227 323 -227 323 -227 388 c 0,46,47
 -227 428 -227 428 -189.5 481 c 128,-1,48
 -152 534 -152 534 -93 581.5 c 128,-1,49
 -34 629 -34 629 48 662 c 128,-1,50
 130 695 130 695 199.5 695 c 128,-1,51
 269 695 269 695 311 669.5 c 128,-1,52
 353 644 353 644 353 583 c 0,53,54
 353 521.112244898 353 521.112244898 221 328.5 c 0,55,56
 172 257 172 257 131 181 c 128,-1,57
 90 105 90 105 90 69.5 c 128,-1,58
 90 34 90 34 116 34 c 0,59,60
 139 34 139 34 180 63.5 c 128,-1,61
 221 93 221 93 263.5 134.5 c 0,62,63
 349.575949367 218.550632911 349.575949367 218.550632911 408.5 289.5 c 2,64,-1
 433 319 l 1,65,-1
 522 441 l 2,66,67
 529 452 529 452 542 452 c 2,68,-1
 559 451 l 2,69,70
 565 451 565 451 565 447 c 128,-1,71
 565 443 565 443 455.5 272.5 c 128,-1,72
 346 102 346 102 346 39 c 0,73,74
 346 28 346 28 350 22 c 128,-1,75
 354 16 354 16 362 15 c 1,0,1
EndSplineSet
EndChar

StartChar: V
Encoding: 86 86 21
Width: 467
Flags: HMW
HStem: -5 26<156 218> 323 42<-106 -25.5 -106 -23> 675 20G<140 284>
VStem: -185 30<398 441.5> 80 52<54 113.5> 352 43<583 625.5>
LayerCount: 2
Fore
SplineSet
309.5 477 m 128,-1,1
 352 556 352 556 352 596.5 c 128,-1,2
 352 637 352 637 320 659 c 128,-1,3
 288 681 288 681 233 681 c 128,-1,4
 178 681 178 681 104 651.5 c 128,-1,5
 30 622 30 622 -25.5 579.5 c 128,-1,6
 -81 537 -81 537 -118 491 c 128,-1,7
 -155 445 -155 445 -155 412 c 0,8,9
 -155 365 -155 365 -79 365 c 128,-1,10
 -3 365 -3 365 78 422 c 128,-1,11
 159 479 159 479 220 563 c 0,12,13
 225 571 225 571 230.5 571 c 128,-1,14
 236 571 236 571 236 563 c 0,15,16
 236 539 236 539 184 482 c 128,-1,17
 132 425 132 425 52 374 c 128,-1,18
 -28 323 -28 323 -90 323 c 0,19,20
 -185 323 -185 323 -185 388 c 0,21,22
 -185 428 -185 428 -147.5 481 c 128,-1,23
 -110 534 -110 534 -51 581.5 c 128,-1,24
 8 629 8 629 90 662 c 128,-1,25
 172 695 172 695 241.5 695 c 128,-1,26
 311 695 311 695 353 669.5 c 128,-1,27
 395 644 395 644 395 583 c 0,28,29
 395 539 395 539 329 430.5 c 128,-1,30
 263 322 263 322 197.5 215 c 128,-1,31
 132 108 132 108 132 64.5 c 128,-1,32
 132 21 132 21 169 21 c 0,33,34
 220 21 220 21 303 90 c 128,-1,35
 386 159 386 159 458 246 c 128,-1,36
 530 333 530 333 583.5 410 c 128,-1,37
 637 487 637 487 637 504 c 0,38,39
 637 506 637 506 633 506.5 c 128,-1,40
 629 507 629 507 620 499.5 c 128,-1,41
 611 492 611 492 600.5 481.5 c 128,-1,42
 590 471 590 471 586 467.5 c 128,-1,43
 582 464 582 464 575 464 c 0,44,45
 557 464 557 464 557 477 c 0,46,47
 557 485 557 485 576 501 c 128,-1,48
 595 517 595 517 625.5 552 c 128,-1,49
 656 587 656 587 674 608 c 128,-1,50
 692 629 692 629 697.5 629 c 128,-1,51
 703 629 703 629 706.5 626 c 128,-1,52
 710 623 710 623 710 615.5 c 128,-1,53
 710 608 710 608 691 565 c 0,54,55
 627.904142728 422.204112489 627.904142728 422.204112489 509.5 272 c 0,56,57
 422 161 422 161 317.5 78 c 128,-1,58
 213 -5 213 -5 136 -5 c 0,59,60
 103 -5 103 -5 91.5 10 c 128,-1,61
 80 25 80 25 80 60.5 c 128,-1,62
 80 96 80 96 122.5 172.5 c 128,-1,63
 165 249 165 249 216 323.5 c 128,-1,0
 267 398 267 398 309.5 477 c 128,-1,1
EndSplineSet
EndChar

StartChar: W
Encoding: 87 87 22
Width: 621
Flags: HMW
HStem: -5 23<365 428 365 466.5> 11 24<120.5 143.5> 317 38<-144.5 -85> 432 28<518 568> 672 20G<100 264.5>
VStem: -214 31<393 444.5> 52 49<61 126.5 61 129.5> 285 32<68 71 71 71> 324 36<536.5 626> 559 29<397.5 420>
LayerCount: 2
Fore
SplineSet
204 678 m 0,0,1
 138 678 138 678 66 649 c 128,-1,2
 -6 620 -6 620 -59.5 579.5 c 128,-1,3
 -113 539 -113 539 -148 493.5 c 128,-1,4
 -183 448 -183 448 -183 415 c 0,5,6
 -183 355 -183 355 -128 355 c 0,7,8
 -61 355 -61 355 41 425 c 128,-1,9
 143 495 143 495 173 543 c 0,10,11
 178 551 178 551 183.5 551 c 128,-1,12
 189 551 189 551 189 543 c 1,13,14
 180 505 180 505 122.5 451.5 c 128,-1,15
 65 398 65 398 -11.5 357.5 c 128,-1,16
 -88 317 -88 317 -143 317 c 0,17,18
 -214 317 -214 317 -214 391 c 0,19,20
 -214 431 -214 431 -178 483 c 128,-1,21
 -142 535 -142 535 -85 581.5 c 128,-1,22
 -28 628 -28 628 51.5 660 c 128,-1,23
 131 692 131 692 209 692 c 0,24,25
 360 692 360 692 360 599 c 0,26,27
 360 551 360 551 319.5 472 c 128,-1,28
 279 393 279 393 230.5 323 c 128,-1,29
 182 253 182 253 141.5 180 c 128,-1,30
 101 107 101 107 101 71 c 128,-1,31
 101 35 101 35 132 35 c 0,32,33
 200 35 200 35 287 91 c 1,34,35
 297 155 297 155 353 244.5 c 128,-1,36
 409 334 409 334 469.5 396.5 c 128,-1,37
 530 459 530 459 559 459.5 c 128,-1,38
 588 460 588 460 588 431 c 0,39,40
 588 379 588 379 504.5 273.5 c 128,-1,41
 421 168 421 168 317 93 c 1,42,-1
 317 86 l 2,43,44
 317 18 317 18 392 18 c 0,45,46
 453.859813084 18 453.859813084 18 569.5 127.5 c 0,47,48
 626 181 626 181 692.5 272.5 c 128,-1,49
 759 364 759 364 818 476 c 1,50,51
 764 440 764 440 758 440 c 0,52,53
 747 440 747 440 747 451.5 c 128,-1,54
 747 463 747 463 751 466 c 128,-1,55
 755 469 755 469 770 479 c 0,56,57
 814.25 508.5 814.25 508.5 828 525 c 2,58,-1
 860 564 l 1,59,60
 863 572 863 572 869 572 c 0,61,62
 882 570 882 570 882 562 c 0,63,64
 882 558 882 558 881 556 c 2,65,-1
 832 461 l 1,66,67
 800.278416347 394.673052363 800.278416347 394.673052363 731.139208174 298.836526181 c 128,-1,68
 662 203 662 203 608 142.5 c 128,-1,69
 554 82 554 82 489.5 38.5 c 128,-1,70
 425 -5 425 -5 372 -5 c 0,71,72
 285 -5 285 -5 285 68 c 2,73,-1
 285 71 l 1,74,75
 188 11 188 11 120 11 c 128,-1,76
 52 11 52 11 52 65 c 0,77,78
 52 108 52 108 94.5 185 c 128,-1,79
 137 262 137 262 188 332.5 c 128,-1,80
 239 403 239 403 281.5 481 c 128,-1,81
 324 559 324 559 324 603 c 0,82,83
 324 678 324 678 204 678 c 0,0,1
559 414 m 0,84,85
 559 432 559 432 538.5 432 c 128,-1,86
 518 432 518 432 469.5 379 c 128,-1,87
 421 326 421 326 375.5 249 c 128,-1,88
 330 172 330 172 320 114 c 1,89,90
 412 183 412 183 485.5 277.5 c 128,-1,91
 559 372 559 372 559 414 c 0,84,85
EndSplineSet
EndChar

StartChar: X
Encoding: 88 88 23
Width: 473
Flags: HMW
HStem: -38 21G<-193 -188.5> -16 31<303 332.5> 345 44<-128 -58.5 -128 -49> 700 20G<116 299.5>
VStem: -205 38<421 463.5> 206 47<94 142> 322 42<588.5 620 588.5 632.5>
LayerCount: 2
Fore
SplineSet
334 15 m 0,0,1
 354 15 354 15 396 34.5 c 128,-1,2
 438 54 438 54 470 74 c 2,3,-1
 502 94 l 1,4,5
 503 92 503 92 503 86 c 128,-1,6
 503 80 503 80 494 76 c 1,7,8
 359 -16 359 -16 306 -16 c 0,9,10
 206 -16 206 -16 206 116 c 0,11,12
 206 187 206 187 236 281 c 1,13,14
 -122 3 -122 3 -174 -28 c 1,15,16
 -184 -38 -184 -38 -191 -38 c 128,-1,17
 -198 -38 -198 -38 -198 -30.5 c 128,-1,18
 -198 -23 -198 -23 -186 -16 c 0,19,20
 -99.3483146067 38.1573033708 -99.3483146067 38.1573033708 45.5 156 c 0,21,22
 75 180 75 180 147 239 c 128,-1,23
 219 298 219 298 248 321 c 1,24,25
 254 342 254 342 267.5 385 c 128,-1,26
 281 428 281 428 288.5 452.5 c 128,-1,27
 296 477 296 477 305 508 c 0,28,29
 322 566.555555556 322 566.555555556 322 594 c 0,30,31
 322 651 322 651 294.5 677 c 128,-1,32
 267 703 267 703 203 703 c 128,-1,33
 139 703 139 703 68.5 673.5 c 128,-1,34
 -2 644 -2 644 -52.5 601.5 c 128,-1,35
 -103 559 -103 559 -135 513.5 c 128,-1,36
 -167 468 -167 468 -167 435 c 0,37,38
 -167 389 -167 389 -107 389 c 0,39,40
 40 389 40 389 177 573 c 1,41,42
 182 583 182 583 186.5 583 c 128,-1,43
 191 583 191 583 191 571 c 128,-1,44
 191 559 191 559 161.5 522 c 128,-1,45
 132 485 132 485 89 445 c 128,-1,46
 46 405 46 405 -12 375 c 128,-1,47
 -70 345 -70 345 -119 345 c 0,48,49
 -205 345 -205 345 -205 410 c 0,50,51
 -205 451 -205 451 -169 504 c 128,-1,52
 -133 557 -133 557 -75 605 c 128,-1,53
 -17 653 -17 653 66.5 686.5 c 128,-1,54
 150 720 150 720 235 720 c 0,55,56
 271 720 271 720 297.5 709.5 c 128,-1,57
 324 699 324 699 336.5 684.5 c 0,58,59
 360.509635974 656.64882227 360.509635974 656.64882227 363 630.5 c 2,60,-1
 364 620 l 1,61,62
 364 552 364 552 308 370 c 1,63,64
 480.741935484 510.806451613 480.741935484 510.806451613 536.870967742 552.903225806 c 128,-1,65
 593 595 593 595 611.5 610 c 128,-1,66
 630 625 630 625 656 643 c 128,-1,67
 682 661 682 661 704.5 675.5 c 0,68,69
 758.034482759 710 758.034482759 710 781 710 c 0,70,71
 787 710 787 710 792.5 704 c 128,-1,72
 798 698 798 698 798 692 c 128,-1,73
 798 686 798 686 793 683 c 1,74,75
 770.768 676.648 770.768 676.648 700.384 632.824 c 128,-1,76
 630 589 630 589 578 549 c 1,77,78
 447 445 447 445 294 326 c 1,79,80
 253 203 253 203 253 124 c 0,81,82
 253 15 253 15 334 15 c 0,0,1
EndSplineSet
EndChar

StartChar: Y
Encoding: 89 89 24
Width: 465
Flags: HMW
HStem: -442 45<-20 -2> -44 28<400 422> 35 24<127.5 184> 345 44<-133 -63.5 -133 -54> 703 20<111 241.5>
VStem: -210 38<421 464> -65 35<-382.5 -370> 63 38<88.5 162.5 88.5 175> 317 42<523.5 620 523.5 632.5>
LayerCount: 2
Fore
SplineSet
359 620 m 1,0,1
 359 567 359 567 332.5 505 c 128,-1,2
 306 443 306 443 268 388.5 c 128,-1,3
 230 334 230 334 192 282.5 c 0,4,5
 101 159.171052632 101 159.171052632 101 100 c 0,6,7
 101 82 101 82 111.5 70.5 c 128,-1,8
 122 59 122 59 141 59 c 0,9,10
 236 59 236 59 473 318 c 0,11,12
 507.86407767 354.699029126 507.86407767 354.699029126 526.5 383.5 c 2,13,-1
 532 392 l 2,14,15
 539 403 539 403 546 403 c 0,16,17
 570 400 570 400 570 388 c 0,18,19
 570 383.5 570 383.5 567 379 c 2,20,-1
 521 305 l 2,21,22
 514 294 514 294 437 168 c 128,-1,23
 360 42 360 42 315 -29 c 1,24,25
 369 -16 369 -16 424 -16 c 128,-1,26
 479 -16 479 -16 481 -47 c 1,27,28
 481 -64 481 -64 467 -75 c 0,29,30
 444.090909091 -93 444.090909091 -93 431.045454545 -93 c 128,-1,31
 418 -93 418 -93 418 -89.5 c 0,32,33
 418 -87 418 -87 426 -83 c 128,-1,34
 434 -79 434 -79 437.5 -76.5 c 128,-1,35
 441 -74 441 -74 445 -71 c 0,36,37
 454 -64.25 454 -64.25 454 -58 c 0,38,39
 454 -44 454 -44 404 -44 c 128,-1,40
 354 -44 354 -44 295 -60 c 1,41,42
 51 -442 51 -442 -39 -442 c 0,43,44
 -65 -442 -65 -442 -65 -410 c 0,45,46
 -65 -339 -65 -339 32.5 -218.5 c 128,-1,47
 130 -98 130 -98 266 -45 c 1,48,49
 304 19 304 19 366.5 128.5 c 128,-1,50
 429 238 429 238 446 266 c 1,51,52
 374.128342246 185.144385027 374.128342246 185.144385027 288.5 115.5 c 0,53,54
 251 85 251 85 204.5 60 c 128,-1,55
 158 35 158 35 124 35 c 0,56,57
 111 35 111 35 99.5 38 c 128,-1,58
 88 41 88 41 75.5 55.5 c 128,-1,59
 63 70 63 70 63 104.5 c 128,-1,60
 63 139 63 139 89 193.5 c 128,-1,61
 115 248 115 248 152.5 299.5 c 128,-1,62
 190 351 190 351 227.5 401.5 c 0,63,64
 317 522.026666667 317 522.026666667 317 594 c 0,65,66
 317 651 317 651 289.5 677 c 128,-1,67
 262 703 262 703 198 703 c 128,-1,68
 134 703 134 703 63.5 673.5 c 128,-1,69
 -7 644 -7 644 -57.5 601.5 c 128,-1,70
 -108 559 -108 559 -140 513.5 c 128,-1,71
 -172 468 -172 468 -172 435 c 0,72,73
 -172 389 -172 389 -112 389 c 0,74,75
 35 389 35 389 172 573 c 1,76,77
 177 583 177 583 181.5 583 c 128,-1,78
 186 583 186 583 186 571 c 128,-1,79
 186 559 186 559 156.5 522 c 128,-1,80
 127 485 127 485 84 445 c 128,-1,81
 41 405 41 405 -17 375 c 128,-1,82
 -75 345 -75 345 -124 345 c 0,83,84
 -210 345 -210 345 -210 410 c 0,85,86
 -210 451 -210 451 -174 504.5 c 128,-1,87
 -138 558 -138 558 -80 607 c 128,-1,88
 -22 656 -22 656 61.5 689.5 c 128,-1,89
 145 723 145 723 230 723 c 0,90,91
 266 723 266 723 292.5 712.5 c 128,-1,92
 319 702 319 702 331.5 687 c 0,93,94
 355.344086022 658.387096774 355.344086022 658.387096774 358 630.5 c 2,95,-1
 359 620 l 1,0,1
-30 -376 m 0,96,97
 -30 -397 -30 -397 -15 -397 c 0,98,99
 54 -397 54 -397 247 -77 c 1,100,101
 128 -125 128 -125 49 -223 c 128,-1,102
 -30 -321 -30 -321 -30 -376 c 0,96,97
EndSplineSet
EndChar

StartChar: Z
Encoding: 90 90 25
Width: 633
Flags: HMW
HStem: -440 36<51.5 81> 8 31<575.5 588> 36 26<120 142> 178 24<271.5 312.5> 339 42<101 153.5> 713 26<383 519>
VStem: 0 38<-391 -356> 30 34<418 470> 53 42<73 84> 427 41<76 101> 613 48<564.5 635>
LayerCount: 2
Fore
SplineSet
631 -10 m 0,0,1
 631 8 631 8 572.5 8 c 128,-1,2
 514 8 514 8 447 -17 c 1,3,4
 412 -112 412 -112 329.5 -213.5 c 128,-1,5
 247 -315 247 -315 164 -377.5 c 128,-1,6
 81 -440 81 -440 35 -440 c 0,7,8
 0 -440 0 -440 0 -398 c 0,9,10
 0 -332 0 -332 132.5 -203.5 c 128,-1,11
 265 -75 265 -75 415 -7 c 1,12,13
 427 41 427 41 427 79 c 0,14,15
 427 150 427 150 363 170 c 1,16,17
 207 36 207 36 108 36 c 0,18,19
 53 36 53 36 53 60 c 128,-1,20
 53 84 53 84 95.5 117.5 c 128,-1,21
 138 151 138 151 206.5 176.5 c 128,-1,22
 275 202 275 202 338 202 c 0,23,24
 351 202 351 202 369 200 c 1,25,26
 470 294 470 294 541.5 408 c 128,-1,27
 613 522 613 522 613 602 c 0,28,29
 613 713 613 713 466 713 c 0,30,31
 379 713 379 713 282.5 662.5 c 128,-1,32
 186 612 186 612 125 547.5 c 128,-1,33
 64 483 64 483 64 439 c 0,34,35
 64 381 64 381 117 381 c 0,36,37
 162 381 162 381 232 419 c 128,-1,38
 302 457 302 457 356 504.5 c 128,-1,39
 410 552 410 552 417 579 c 0,40,41
 419 590 419 590 423.5 590 c 128,-1,42
 428 590 428 590 428 582 c 0,43,44
 428 546 428 546 369.5 487.5 c 128,-1,45
 311 429 311 429 231 384 c 128,-1,46
 151 339 151 339 97 339 c 0,47,48
 30 339 30 339 30 414 c 0,49,50
 30 456 30 456 71 512 c 128,-1,51
 112 568 112 568 176 618.5 c 128,-1,52
 240 669 240 669 328.5 704 c 128,-1,53
 417 739 417 739 502 739 c 0,54,55
 661 739 661 739 661 623 c 0,56,57
 661 539 661 539 582.5 418.5 c 128,-1,58
 504 298 504 298 392 195 c 1,59,60
 468 173 468 173 468 89 c 0,61,62
 468 50 468 50 456 10 c 1,63,64
 535 39 535 39 595 39 c 128,-1,65
 655 39 655 39 655 5 c 0,66,67
 655 -19 655 -19 635.5 -35.5 c 128,-1,68
 616 -52 616 -52 603 -52 c 128,-1,69
 590 -52 590 -52 590 -46.5 c 128,-1,70
 590 -41 590 -41 597 -39 c 128,-1,71
 604 -37 604 -37 617.5 -27.5 c 128,-1,72
 631 -18 631 -18 631 -10 c 0,0,1
38 -384 m 0,73,74
 38 -404 38 -404 58 -404 c 0,75,76
 93 -404 93 -404 161.5 -354 c 128,-1,77
 230 -304 230 -304 303 -214 c 128,-1,78
 376 -124 376 -124 407 -33 c 1,79,80
 271 -93 271 -93 154.5 -209.5 c 128,-1,81
 38 -326 38 -326 38 -384 c 0,73,74
342 175 m 1,82,83
 325.5 178 325.5 178 294.75 178 c 128,-1,84
 264 178 264 178 213 159.5 c 128,-1,85
 162 141 162 141 128.5 117.5 c 128,-1,86
 95 94 95 94 95 78 c 128,-1,87
 95 62 95 62 134 62 c 0,88,89
 214 62 214 62 342 175 c 1,82,83
EndSplineSet
EndChar

StartChar: a
Encoding: 97 97 26
Width: 303
Flags: HMW
HStem: -16 21G<125.5 162.5> -8 23 177 22<170 193>
VStem: -16 50<37 59> -16 167<21 36.5 21 59>
LayerCount: 2
Fore
SplineSet
189 119 m 0,0,1
 183 119 183 119 183 126 c 1,2,-1
 186 133 l 1,3,4
 204 150 204 150 204 162 c 0,5,6
 204 177 204 177 188 177 c 0,7,8
 153 177 153 177 93.5 128.5 c 128,-1,9
 34 80 34 80 34 42 c 0,10,11
 34 26 34 26 55 26 c 0,12,13
 76 26 76 26 103.5 43.5 c 128,-1,14
 131 61 131 61 150.5 78.5 c 128,-1,15
 170 96 170 96 172 96 c 0,16,17
 182 95 182 95 182 86 c 0,18,19
 182 82 182 82 166.5 60 c 128,-1,20
 151 38 151 38 151 25 c 0,21,22
 151 15 151 15 167.5 15 c 0,23,24
 184 15 184 15 226 34.5 c 128,-1,25
 268 54 268 54 300 74 c 2,26,-1
 332 94 l 1,27,28
 333 92 333 92 333 86 c 0,29,30
 333 80 333 80 324 76 c 1,31,32
 189 -16 189 -16 136 -16 c 0,33,34
 110 -16 110 -16 110 10 c 0,35,36
 110 21 110 21 114 33 c 1,37,38
 107 25 107 25 72.5 8.5 c 128,-1,39
 38 -8 38 -8 11 -8 c 0,40,41
 -16 -8 -16 -8 -16 17 c 0,42,43
 -16 76 -16 76 66 137.5 c 128,-1,44
 148 199 148 199 204 199 c 0,45,46
 237 199 237 199 237 171 c 0,47,48
 237 155 237 155 217 137 c 128,-1,49
 197 119 197 119 189 119 c 0,0,1
EndSplineSet
EndChar

StartChar: e
Encoding: 101 101 27
Width: 228
Flags: HMW
HStem: -25 28<1 57.5> 97 23<34.5 77> 218 21<156 163.5>
VStem: -31 43<-4 47> -4 42<130.5 143.5> -4 228<115.5 229>
LayerCount: 2
Fore
SplineSet
56 97 m 1,0,1
 -4 97 -4 97 -4 123 c 0,2,3
 -4 154 -4 154 67 196.5 c 128,-1,4
 138 239 138 239 195 239 c 0,5,6
 224 239 224 239 224 221 c 0,7,8
 224 211 224 211 209 199 c 128,-1,9
 194 187 194 187 180 180 c 128,-1,10
 166 173 166 173 164 173 c 0,11,12
 158 173 158 173 156.5 178 c 0,13,14
 154.347826087 185.173913043 154.347826087 185.173913043 166.673913043 192.586956522 c 128,-1,15
 179 200 179 200 179 209 c 128,-1,16
 179 218 179 218 156.5 218 c 128,-1,17
 134 218 134 218 86 186.5 c 128,-1,18
 38 155 38 155 38 135 c 0,19,20
 38 120 38 120 73 120 c 0,21,22
 79 120 79 120 95 121 c 128,-1,23
 111 122 111 122 111 117 c 128,-1,24
 111 112 111 112 61.5 81 c 128,-1,25
 12 50 12 50 12 28 c 0,26,27
 12 3 12 3 44.5 3 c 128,-1,28
 77 3 77 3 118 20.5 c 0,29,30
 184.252115059 48.7783417936 184.252115059 48.7783417936 238.5 82.5 c 2,31,-1
 257 94 l 1,32,33
 258 92 258 92 258 86 c 128,-1,34
 258 80 258 80 249 76 c 1,35,36
 196 40 196 40 133 7.5 c 128,-1,37
 70 -25 70 -25 19.5 -25 c 128,-1,38
 -31 -25 -31 -25 -31 8.5 c 128,-1,39
 -31 42 -31 42 56 97 c 1,0,1
EndSplineSet
EndChar

StartChar: h
Encoding: 104 104 28
Width: 314
Flags: HMW
HStem: -41 56 -16 31<170 172.5> -16 188<135.5 228.5> 494 27<322.5 339>
VStem: -36 197<-29 51> 120 41<22 33> 120 120<6 162> 342 33<455.5 486.5>
LayerCount: 2
Fore
SplineSet
16 13 m 1,0,1
 25 13 25 13 116.5 92.5 c 128,-1,2
 208 172 208 172 224 172 c 128,-1,3
 240 172 240 172 240 158 c 0,4,5
 240 147 240 147 220 124 c 128,-1,6
 200 101 200 101 180.5 74 c 128,-1,7
 161 47 161 47 161 26 c 0,8,9
 161 15 161 15 177.5 15 c 128,-1,10
 194 15 194 15 236 34.5 c 128,-1,11
 278 54 278 54 310 74 c 2,12,-1
 342 94 l 1,13,14
 343 92 343 92 343 86 c 128,-1,15
 343 80 343 80 334 76 c 1,16,17
 199 -16 199 -16 146 -16 c 0,18,19
 120 -16 120 -16 120 12 c 0,20,21
 120 31 120 31 134 58 c 128,-1,22
 148 85 148 85 161.5 103 c 2,23,-1
 175 121 l 1,24,25
 130 87 130 87 82 44.5 c 128,-1,26
 34 2 34 2 9 -19.5 c 128,-1,27
 -16 -41 -16 -41 -26 -41 c 128,-1,28
 -36 -41 -36 -41 -36 -26.5 c 128,-1,29
 -36 -12 -36 -12 11 74 c 128,-1,30
 58 160 58 160 119.5 259.5 c 128,-1,31
 181 359 181 359 248.5 440 c 128,-1,32
 316 521 316 521 351 521 c 0,33,34
 365.5 521 365.5 521 372.5 507 c 0,35,36
 375 502 375 502 375 495 c 0,37,38
 375 425.544303797 375 425.544303797 168.5 229.5 c 0,39,40
 129 192 129 192 92 160 c 1,41,42
 16 32 16 32 16 13 c 1,0,1
342 484 m 0,43,44
 342 494 342 494 337 494 c 0,45,46
 317 494 317 494 253 406 c 128,-1,47
 189 318 189 318 117 201 c 1,48,49
 342 406 342 406 342 484 c 0,43,44
EndSplineSet
EndChar

StartChar: k
Encoding: 107 107 29
Width: 291
Flags: HMW
HStem: -27 21G<-32.5 -23.5> -15 29<136 138> -15 138<103.5 138> 106 129<115 264.5> 210 25<216 230.5> 520 27<319.5 341>
VStem: 68 36<48.5 65> 252 43<186 194.5> 344 33<481.5 512.5>
LayerCount: 2
Fore
SplineSet
238 46 m 2,0,-1
 320 94 l 1,1,2
 321 92 321 92 321 86 c 128,-1,3
 321 80 321 80 312 76 c 1,4,5
 175.5 -15 175.5 -15 118 -15 c 0,6,7
 68 -15 68 -15 68 51 c 0,8,9
 68 78 68 78 77 100.5 c 128,-1,10
 86 123 86 123 106 123 c 0,11,12
 175 123 175 123 213.5 144 c 128,-1,13
 252 165 252 165 252 187.5 c 128,-1,14
 252 210 252 210 220 210 c 0,15,16
 148 210 148 210 37 80 c 1,17,18
 3 16 3 16 -14 -18 c 0,19,20
 -19 -27 -19 -27 -28 -27 c 0,21,22
 -48 -27 -48 -27 -48 -13 c 0,23,24
 -48 -7 -48 -7 -44 1 c 2,25,-1
 45 157 l 2,26,27
 130 307 130 307 219 427 c 128,-1,28
 308 547 308 547 353 547 c 0,29,30
 367.5 547 367.5 547 374.5 533 c 0,31,32
 377 528 377 528 377 521 c 0,33,34
 377 485 377 485 315 408 c 128,-1,35
 253 331 253 331 199 278 c 128,-1,36
 145 225 145 225 89 175 c 1,37,-1
 61 125 l 1,38,39
 169 235 169 235 249 235 c 0,40,41
 295 235 295 235 295 205 c 0,42,43
 295 172 295 172 243.5 139 c 128,-1,44
 192 106 192 106 115 106 c 1,45,46
 104 90 104 90 104 70 c 0,47,48
 104 14 104 14 148 14 c 0,49,50
 180 14 180 14 235 44 c 0,51,52
 237 46 237 46 238 46 c 2,0,-1
344 510 m 0,53,54
 344 520 344 520 339 520 c 0,55,56
 284 520 284 520 110 214 c 1,57,58
 198 295 198 295 271 379.5 c 128,-1,59
 344 464 344 464 344 510 c 0,53,54
EndSplineSet
EndChar

StartChar: o
Encoding: 111 111 30
Width: 207
Flags: HMW
HStem: -19 33<16.5 58> 201 26<107.5 131.5>
VStem: -5 39<25.5 33> 34 151<25.5 184.5 145 165>
LayerCount: 2
Fore
SplineSet
220 70 m 1,0,1
 189 51 189 51 148 51 c 2,2,-1
 136 51 l 1,3,4
 109 20 109 20 78.5 0.5 c 128,-1,5
 48 -19 48 -19 26 -19 c 0,6,7
 -5 -19 -5 -19 -5 21 c 128,-1,8
 -5 61 -5 61 38 114 c 1,9,10
 34 125 34 125 34 141 c 0,11,12
 34 176 34 176 64.5 201.5 c 128,-1,13
 95 227 95 227 124 227 c 0,14,15
 185 227 185 227 185 161 c 0,16,17
 185 117 185 117 147 65 c 1,18,-1
 159 65 l 2,19,20
 191 65 191 65 214 80 c 0,21,22
 217 83 217 83 222 83 c 128,-1,23
 227 83 227 83 227 79.5 c 128,-1,24
 227 76 227 76 220 70 c 1,0,1
124 185 m 0,25,26
 129 187 129 187 132 187 c 128,-1,27
 135 187 135 187 135 182.5 c 128,-1,28
 135 178 135 178 124 169.5 c 0,29,30
 83.9465648855 138.549618321 83.9465648855 138.549618321 64 114 c 1,31,32
 86 79 86 79 131 68 c 1,33,34
 170 114 170 114 170 154 c 0,35,36
 170 177 170 177 155 189 c 128,-1,37
 140 201 140 201 116.5 201 c 128,-1,38
 93 201 93 201 73 187.5 c 128,-1,39
 53 174 53 174 53 158.5 c 128,-1,40
 53 143 53 143 56 134 c 1,41,42
 87 166 87 166 124 185 c 0,25,26
50 92 m 1,43,44
 34 65 34 65 34 32 c 0,45,46
 34 14 34 14 50 14 c 0,47,48
 77 14 77 14 117 54 c 1,49,50
 72 62 72 62 50 92 c 1,43,44
EndSplineSet
EndChar

StartChar: q
Encoding: 113 113 31
Width: 274
Flags: HMW
HStem: -408 36<-34 -27.5> -189 31<-84.5 -28> -189 126<-84.5 64.5> -8 31<49.5 52.5> 207 23<200.5 232>
VStem: -105 247<-173.5 -148.5> -77 35<-361.5 -349> -21 50<37 54> 122 20<-178.5 -132> 248 39<195 199.5>
LayerCount: 2
Fore
SplineSet
266 12 m 0,0,1
 268 14 268 14 269.5 14 c 128,-1,2
 271 14 271 14 271 11 c 0,3,4
 271 -5 271 -5 255 -19 c 0,5,6
 203 -62 203 -62 137 -103 c 1,7,8
 142 -116 142 -116 142 -130 c 0,9,10
 142 -177 142 -177 104.5 -244.5 c 128,-1,11
 67 -312 67 -312 19.5 -360 c 128,-1,12
 -28 -408 -28 -408 -55 -408 c 0,13,14
 -77 -408 -77 -408 -77 -381 c 0,15,16
 -77 -304 -77 -304 5 -170 c 1,17,18
 -42 -189 -42 -189 -73.5 -189 c 128,-1,19
 -105 -189 -105 -189 -105 -167 c 0,20,21
 -105 -135 -105 -135 -55.5 -99 c 128,-1,22
 -6 -63 -6 -63 62 -63 c 0,23,24
 72 -63 72 -63 77 -64 c 1,25,26
 85 -51 85 -51 100.5 -29.5 c 0,27,28
 127.272727273 7.63636363636 127.272727273 7.63636363636 150 44 c 1,29,30
 84 -8 84 -8 21 -8 c 0,31,32
 -21 -8 -21 -8 -21 22 c 0,33,34
 -21 54 -21 54 22.5 103.5 c 128,-1,35
 66 153 66 153 133.5 191.5 c 128,-1,36
 201 230 201 230 260 230 c 0,37,38
 287 230 287 230 287 207 c 0,39,40
 287 190 287 190 255.5 164 c 128,-1,41
 224 138 224 138 212 138 c 128,-1,42
 200 138 200 138 200 144 c 0,43,44
 200 148 200 148 224 165 c 128,-1,45
 248 182 248 182 248 194.5 c 128,-1,46
 248 207 248 207 228 207 c 0,47,48
 186 207 186 207 107.5 143 c 128,-1,49
 29 79 29 79 29 43 c 0,50,51
 29 23 29 23 57.5 23 c 128,-1,52
 86 23 86 23 120 41.5 c 128,-1,53
 154 60 154 60 176 79 c 2,54,-1
 198 98 l 2,55,56
 204 103 204 103 210 103 c 0,57,58
 222 103 222 103 222 92 c 0,59,60
 222 86 222 86 214 75 c 0,61,62
 168 15 168 15 107 -71 c 1,63,64
 121 -77 121 -77 130 -89 c 1,65,66
 203 -45 203 -45 266 12 c 0,0,1
54 -150 m 1,67,68
 -42 -299 -42 -299 -42 -356 c 0,69,70
 -42 -372 -42 -372 -30 -372 c 0,71,72
 -12 -372 -12 -372 24.5 -331.5 c 128,-1,73
 61 -291 61 -291 91.5 -233.5 c 128,-1,74
 122 -176 122 -176 122 -136 c 0,75,76
 122 -124 122 -124 119 -114 c 1,77,78
 90 -131 90 -131 54 -150 c 1,67,68
66 -79 m 1,79,-1
 56 -79 l 2,80,81
 25 -79 25 -79 -8.5 -93 c 128,-1,82
 -42 -107 -42 -107 -62 -139 c 1,83,84
 -62 -158 -62 -158 -38 -158 c 128,-1,85
 -14 -158 -14 -158 22 -144 c 1,86,87
 26 -137 26 -137 66 -79 c 1,79,-1
96 -87 m 1,88,-1
 73 -121 l 1,89,-1
 112 -100 l 1,90,91
 105 -92 105 -92 96 -87 c 1,88,-1
EndSplineSet
EndChar

StartChar: t
Encoding: 116 116 32
Width: 199
Flags: HMW
HStem: -9 24<0.5 63> 300 34 300 168
VStem: -22 43<29.5 46.5>
LayerCount: 2
Fore
SplineSet
22 330 m 1,0,1
 90 330 90 330 156 331 c 1,2,3
 263 468 263 468 302 468 c 0,4,5
 316 468 316 468 316 453 c 0,6,7
 316 405 316 405 246 333 c 1,8,-1
 322 334 l 1,9,10
 398 337 398 337 415 337 c 0,11,12
 432 337 432 337 432 333 c 0,13,14
 432 314 432 314 406 313 c 2,15,-1
 218 305 l 1,16,17
 169 259 169 259 97 208 c 1,18,19
 21 83 21 83 21 38 c 0,20,21
 21 15 21 15 50.5 15 c 0,22,23
 80 15 80 15 144 47 c 1,24,-1
 225 94 l 1,25,26
 226 92 226 92 226 86 c 0,27,28
 226 80 226 80 217 76 c 1,29,30
 185 54 185 54 147 32 c 1,31,32
 66 -9 66 -9 23 -9 c 0,33,34
 3 -9 3 -9 -8 -1 c 128,-1,35
 -19 7 -19 7 -20.5 15 c 2,36,-1
 -22 23 l 1,37,38
 -22 57 -22 57 24 137.5 c 128,-1,39
 70 218 70 218 133 302 c 1,40,41
 85 300 85 300 42 300 c 0,42,43
 -1 300 -1 300 -1 310 c 0,44,45
 -1 329 -1 329 22 330 c 1,0,1
285 432 m 0,46,47
 285 437 285 437 281 437 c 0,48,49
 258 437 258 437 179 332 c 1,50,-1
 229 332 l 1,51,52
 285 393 285 393 285 432 c 0,46,47
201 304 m 1,53,54
 169 304 169 304 158 303 c 1,55,56
 149 290 149 290 133 265 c 128,-1,57
 117 240 117 240 111 231 c 1,58,59
 163 269 163 269 201 304 c 1,53,54
EndSplineSet
EndChar

StartChar: w
Encoding: 119 119 33
Width: 337
Flags: HMW
HStem: -18 21G<118.5 130.5> -6 21G<-15 -10.5> 237 20G<338.5 358>
VStem: 29 38<165.5 166> 29 184<165 166> 247 26<153 172> 247 120<139 248.5>
LayerCount: 2
Fore
SplineSet
26 172 m 1,0,-1
 -5 159 l 2,1,2
 -7 159 -7 159 -7 162 c 0,3,4
 -7 171 -7 171 15.5 184 c 128,-1,5
 38 197 38 197 52.5 197 c 128,-1,6
 67 197 67 197 67 177 c 0,7,8
 67 143 67 143 45 59 c 1,9,10
 46 58 46 58 47 58 c 0,11,12
 134 129 134 129 163 158 c 128,-1,13
 192 187 192 187 202.5 187 c 128,-1,14
 213 187 213 187 213 176 c 128,-1,15
 213 165 213 165 190 98.5 c 128,-1,16
 167 32 167 32 167 23 c 1,17,-1
 182 36.5 l 2,18,19
 227 77 227 77 269 121 c 1,20,21
 247 124 247 124 247 146 c 0,22,23
 247 182 247 182 287.5 219.5 c 128,-1,24
 328 257 328 257 354 257 c 0,25,26
 367 257 367 257 367 244 c 0,27,28
 367 212 367 212 302 138 c 1,29,-1
 309 138 l 2,30,31
 329.56 138 329.56 138 385 176.5 c 2,32,-1
 403 189 l 1,33,34
 405 189 405 189 405 184 c 128,-1,35
 405 179 405 179 400 175 c 0,36,37
 338 125 338 125 286 120 c 1,38,39
 239 69 239 69 187 25.5 c 128,-1,40
 135 -18 135 -18 123.5 -18 c 128,-1,41
 112 -18 112 -18 112 -8 c 0,42,43
 112 -3.5 112 -3.5 116 4.75 c 128,-1,44
 120 13 120 13 137 67 c 128,-1,45
 154 121 154 121 153.5 123.5 c 128,-1,46
 153 126 153 126 152 126 c 0,47,48
 149 126 149 126 144 121 c 2,49,-1
 15 14 l 1,50,51
 -6 -6 -6 -6 -15 -6 c 1,52,53
 -24 -3 -24 -3 -24 0.5 c 128,-1,54
 -24 4 -24 4 -16 19.5 c 128,-1,55
 -8 35 -8 35 10.5 89.5 c 128,-1,56
 29 144 29 144 29 158 c 128,-1,57
 29 172 29 172 26 172 c 1,0,-1
333 221 m 0,58,59
 333 227 333 227 323 227 c 128,-1,60
 313 227 313 227 293 205.5 c 128,-1,61
 273 184 273 184 273 158 c 0,62,63
 273 145 273 145 288 141 c 1,64,65
 333 195 333 195 333 221 c 0,58,59
EndSplineSet
EndChar

StartChar: b
Encoding: 98 98 34
Width: 233
Flags: HMW
HStem: -22 33<59.5 69> -22 243<31 59 27.5 69> 526 29<377.5 387.5>
VStem: -19 25<168 188 168 189> 7 38<21.5 34.5>
LayerCount: 2
Fore
SplineSet
266 156 m 0,0,1
 269 159 269 159 274 159 c 128,-1,2
 279 159 279 159 279 155.5 c 128,-1,3
 279 152 279 152 272 146 c 1,4,5
 227 116 227 116 157 105 c 1,6,7
 151 56 151 56 116.5 17 c 128,-1,8
 82 -22 82 -22 41 -22 c 0,9,10
 7 -22 7 -22 7 26 c 0,11,12
 7 50 7 50 36 110 c 1,13,14
 -19 128 -19 128 -19 177 c 0,15,16
 -19 196 -19 196 -1 208.5 c 128,-1,17
 17 221 17 221 44.5 221 c 128,-1,18
 72 221 72 221 94 213 c 1,19,20
 175 344 175 344 269 449.5 c 128,-1,21
 363 555 363 555 414 555 c 0,22,23
 433 555 433 555 433 528 c 0,24,25
 433 480 433 480 343.5 373.5 c 128,-1,26
 254 267 254 267 147 168 c 1,27,28
 158 148 158 148 158 123 c 2,29,-1
 158 120 l 1,30,31
 228 130 228 130 266 156 c 0,0,1
138 182 m 1,32,33
 234 272 234 272 313 364.5 c 128,-1,34
 392 457 392 457 397 504 c 1,35,36
 396 526 396 526 384 526 c 0,37,38
 357 526 357 526 270.5 420.5 c 128,-1,39
 184 315 184 315 117 201 c 1,40,41
 127 195 127 195 138 182 c 1,32,33
103 101 m 128,-1,43
 81 101 81 101 70 103 c 1,44,45
 66 99 66 99 64 98 c 1,46,47
 45 52 45 52 45 35.5 c 0,48,49
 45 11 45 11 63 11 c 0,50,51
 90 11 90 11 112 38.5 c 128,-1,52
 134 66 134 66 136 102 c 1,53,42
 125 101 125 101 103 101 c 128,-1,43
81 191 m 1,54,55
 58 203 58 203 38 203 c 0,56,57
 6 203 6 203 6 182 c 0,58,59
 6 142 6 142 45 126 c 1,60,61
 61 159 61 159 81 191 c 1,54,55
87 117 m 1,62,63
 94 116 94 116 110 116 c 128,-1,64
 126 116 126 116 135 117 c 1,65,66
 133 135 133 135 125 149 c 1,67,68
 105 130 105 130 87 117 c 1,62,63
116 162 m 1,69,-1
 103 176 l 1,70,71
 102 173 102 173 92 155.5 c 128,-1,72
 82 138 82 138 78 129 c 1,73,74
 91 139 91 139 116 162 c 1,69,-1
EndSplineSet
EndChar

StartChar: c
Encoding: 99 99 35
Width: 226
Flags: HMW
HStem: -14 26<57.5 59.5> 179 20<148 170>
VStem: -14 44<33.5 58> -14 232<15 183.5>
LayerCount: 2
Fore
SplineSet
133 28 m 2,0,1
 181 48 181 48 236.5 82.5 c 2,2,-1
 255 94 l 1,3,4
 256 92 256 92 256 86 c 128,-1,5
 256 80 256 80 247 76 c 1,6,7
 194 40 194 40 141 13 c 128,-1,8
 88 -14 88 -14 43 -14 c 0,9,10
 -14 -14 -14 -14 -14 27 c 0,11,12
 -14 76 -14 76 54.5 137.5 c 128,-1,13
 123 199 123 199 190 199 c 0,14,15
 218 199 218 199 218 175 c 0,16,17
 218 161 218 161 193 140 c 0,18,19
 158.476190476 111 158.476190476 111 149.238095238 111 c 128,-1,20
 140 111 140 111 140 119 c 0,21,22
 140 122 140 122 144 125 c 0,23,24
 154 131 154 131 166.5 143.5 c 128,-1,25
 179 156 179 156 179 165 c 0,26,27
 179 179 179 179 166 179 c 0,28,29
 138 179 138 179 84 128.5 c 128,-1,30
 30 78 30 78 30 47 c 0,31,32
 30 12 30 12 68 12 c 0,33,34
 93 12 93 12 123 24 c 2,35,-1
 133 28 l 2,0,1
EndSplineSet
EndChar

StartChar: d
Encoding: 100 100 36
Width: 275
Flags: HMW
HStem: -20 21G<164 189.5> -14 21G<-3 27> 485 32<420 428>
VStem: -31 48<18.5 41 18.5 42.5> 432 37<471 479.5>
LayerCount: 2
Fore
SplineSet
174 94 m 1,0,1
 167 67 167 67 167 36 c 128,-1,2
 167 5 167 5 193 5 c 0,3,4
 200 5 200 5 216.5 12.5 c 128,-1,5
 233 20 233 20 235.5 20 c 128,-1,6
 238 20 238 20 238 18 c 0,7,8
 238 6 238 6 217 -7 c 128,-1,9
 196 -20 196 -20 175 -20 c 0,10,11
 133 -20 133 -20 133 36 c 0,12,13
 133 49 133 49 134 56 c 1,14,15
 54 -14 54 -14 11.5 -14 c 128,-1,16
 -31 -14 -31 -14 -31 15 c 0,17,18
 -31 58 -31 58 42.5 122.5 c 128,-1,19
 116 187 116 187 182 196 c 1,20,21
 239 313 239 313 322.5 415 c 128,-1,22
 406 517 406 517 451 517 c 0,23,24
 459 517 459 517 464 508.5 c 128,-1,25
 469 500 469 500 469 492 c 0,26,27
 469 459 469 459 371.5 326 c 128,-1,28
 274 193 274 193 174 94 c 1,0,1
432 477 m 0,29,30
 432 485 432 485 426 485 c 0,31,32
 409 485 409 485 361.5 429 c 128,-1,33
 314 373 314 373 262 286.5 c 128,-1,34
 210 200 210 200 185 128 c 1,35,36
 278 226 278 226 355 331 c 128,-1,37
 432 436 432 436 432 477 c 0,29,30
17 23 m 0,38,39
 17 8 17 8 34 8 c 0,40,41
 61 8 61 8 139 83 c 1,42,43
 152 129 152 129 170 168 c 1,44,45
 121 156 121 156 69 104 c 128,-1,46
 17 52 17 52 17 23 c 0,38,39
EndSplineSet
EndChar

StartChar: f
Encoding: 102 102 37
Width: 196
Flags: HMW
HStem: -365 37<-161.5 -145> 495 20G<299 347>
VStem: -174 245<-95.5 -72.5> 43 28<-89 -40> 325 36<423.5 473.5>
LayerCount: 2
Fore
SplineSet
-2 26 m 1,0,1
 43 25 43 25 61 -1 c 1,2,3
 155 48 155 48 228 95 c 1,4,5
 229 92 229 92 229 86 c 128,-1,6
 229 80 229 80 220 76 c 1,7,8
 185 52 185 52 148 30 c 128,-1,9
 111 8 111 8 68 -16 c 1,10,11
 71 -26.5 71 -26.5 71 -40 c 0,12,13
 71 -93 71 -93 24.5 -171.5 c 128,-1,14
 -22 -250 -22 -250 -84.5 -307.5 c 128,-1,15
 -147 -365 -147 -365 -189 -365 c 0,16,17
 -208 -365 -208 -365 -208 -335 c 128,-1,18
 -208 -305 -208 -305 -103 -102 c 1,19,20
 -125 -110 -125 -110 -138 -110 c 0,21,22
 -174 -110 -174 -110 -174 -89 c 0,23,24
 -174 -64 -174 -64 -130.5 -28 c 128,-1,25
 -87 8 -87 8 -38 21 c 1,26,27
 74 224 74 224 179 369.5 c 128,-1,28
 284 515 284 515 339 515 c 0,29,30
 361 515 361 515 361 493 c 0,31,32
 361 460 361 460 336.5 414 c 128,-1,33
 312 368 312 368 276 323.5 c 128,-1,34
 240 279 240 279 195.5 232 c 128,-1,35
 151 185 151 185 115 151.5 c 128,-1,36
 79 118 79 118 51 92.5 c 128,-1,37
 23 67 23 67 22 66 c 0,38,39
 17 58 17 58 8.5 43.5 c 128,-1,40
 0 29 0 29 -2 26 c 1,0,1
-166 -317 m 0,41,42
 -166 -328 -166 -328 -159 -328 c 0,43,44
 -131 -328 -131 -328 -82.5 -276.5 c 128,-1,45
 -34 -225 -34 -225 4.5 -156 c 128,-1,46
 43 -87 43 -87 43 -42 c 0,47,48
 43 -34 43 -34 42 -30 c 1,49,50
 -14 -62 -14 -62 -65 -86 c 1,51,52
 -166 -271 -166 -271 -166 -317 c 0,41,42
325 468 m 0,53,54
 325 480 325 480 314 480 c 0,55,56
 295 479 295 479 217 368.5 c 128,-1,57
 139 258 139 258 46 106 c 1,58,59
 107.658291457 161.492462312 107.658291457 161.492462312 181.329145729 241.246231156 c 0,60,61
 325 396.779816514 325 396.779816514 325 468 c 0,53,54
-133 -60 m 128,-1,63
 -133 -74 -133 -74 -107 -74 c 0,64,65
 -103 -74 -103 -74 -87 -70 c 1,66,-1
 -48 2 l 1,67,68
 -81 -7 -81 -7 -107 -26.5 c 128,-1,62
 -133 -46 -133 -46 -133 -60 c 128,-1,63
-48 -54 m 1,69,70
 -23 -44 -23 -44 37 -13 c 1,71,72
 24 8 24 8 -10 8 c 2,73,-1
 -12 8 l 1,74,75
 -19 -4 -19 -4 -31 -25 c 128,-1,76
 -43 -46 -43 -46 -48 -54 c 1,69,70
EndSplineSet
EndChar

StartChar: g
Encoding: 103 103 38
Width: 254
Flags: HMW
HStem: -393 29<-154.5 -127 -154.5 -126> -73 26<145 151.5> -4 31<2 62.5> 197 26<196 200>
VStem: -199 34<-349.5 -320.5> -17 49<36 53> 165 35<-100 -64>
LayerCount: 2
Fore
SplineSet
254 200 m 1,0,1
 254 180 254 180 228 157 c 128,-1,2
 202 134 202 134 190.5 134 c 128,-1,3
 179 134 179 134 179 140 c 1,4,-1
 186 149 l 1,5,6
 211 172 211 172 211 183 c 0,7,8
 211 197 211 197 196 197 c 0,9,10
 160 196 160 196 96 133 c 128,-1,11
 32 70 32 70 32 40 c 0,12,13
 32 27 32 27 46.5 27 c 128,-1,14
 61 27 61 27 87 40.5 c 128,-1,15
 113 54 113 54 132.5 68 c 2,16,-1
 152 82 l 2,17,18
 155 84 155 84 163 94 c 0,19,20
 184.6 121 184.6 121 192 121 c 0,21,22
 208 119 208 119 208 107 c 1,23,24
 182 69 182 69 111 -50 c 1,25,26
 132 -47 132 -47 152 -47 c 0,27,28
 200 -47 200 -47 200 -72 c 0,29,30
 200 -86 200 -86 181.5 -107.5 c 128,-1,31
 163 -129 163 -129 153 -129 c 128,-1,32
 143 -129 143 -129 143 -122 c 0,33,34
 143 -118 143 -118 154 -109.5 c 128,-1,35
 165 -101 165 -101 165 -89 c 0,36,37
 165 -73 165 -73 144 -73 c 128,-1,38
 123 -73 123 -73 95 -78 c 1,39,40
 51 -154 51 -154 25.5 -196.5 c 128,-1,41
 0 -239 0 -239 -37.5 -291.5 c 0,42,43
 -110 -393 -110 -393 -165 -393 c 0,44,45
 -199 -393 -199 -393 -199 -358 c 0,46,47
 -199 -296 -199 -296 -114.5 -196 c 128,-1,48
 -30 -96 -30 -96 73 -61 c 1,49,-1
 129 45 l 1,50,51
 116.6 36.7333333333 116.6 36.7333333333 87.8 22.8666666667 c 0,52,53
 32 -4 32 -4 10 -4 c 0,54,55
 -17 -4 -17 -4 -17 24 c 128,-1,56
 -17 52 -17 52 26 100 c 128,-1,57
 69 148 69 148 128 185.5 c 128,-1,58
 187 223 187 223 226 223 c 0,59,60
 238 223 238 223 245 217.5 c 128,-1,61
 252 212 252 212 254 200 c 1,0,1
-165 -343 m 0,62,63
 -165 -364 -165 -364 -149 -364 c 0,64,65
 -98 -364 -98 -364 57 -89 c 1,66,67
 -34 -123 -34 -123 -99.5 -208 c 128,-1,68
 -165 -293 -165 -293 -165 -343 c 0,62,63
EndSplineSet
EndChar

StartChar: i
Encoding: 105 105 39
Width: 183
Flags: HMW
HStem: -16 31<5.5 67> 285 20G<174.5 185>
VStem: 135 59<257 294.5>
LayerCount: 2
Fore
SplineSet
179 305 m 0,0,1
 194 305 194 305 194 290 c 128,-1,2
 194 275 194 275 180 259.5 c 128,-1,3
 166 244 166 244 149 244 c 0,4,5
 135 244 135 244 135 263.5 c 128,-1,6
 135 283 135 283 151 294 c 128,-1,7
 167 305 167 305 179 305 c 0,0,1
85 173 m 1,8,9
 90 181 90 181 99 181 c 128,-1,10
 108 181 108 181 117 172 c 1,11,12
 117 168 117 168 104 154 c 128,-1,13
 91 140 91 140 60 91.5 c 128,-1,14
 29 43 29 43 29 27 c 0,15,16
 29 16.875 29 16.875 44 15 c 1,17,18
 64 15 64 15 106 34.5 c 128,-1,19
 148 54 148 54 180 74 c 2,20,-1
 212 94 l 1,21,22
 213 92 213 92 213 86 c 128,-1,23
 213 80 213 80 204 76 c 1,24,25
 69 -16 69 -16 16 -16 c 0,26,27
 -10 -16 -10 -16 -10 10 c 128,-1,28
 -10 36 -10 36 18.5 82.5 c 128,-1,29
 47 129 47 129 85 173 c 1,8,9
EndSplineSet
EndChar

StartChar: j
Encoding: 106 106 40
Width: 168
Flags: HMW
HStem: -438 29<-251.5 -227 -251.5 -227> -106 26<49.5 55.5> 283 20G<196.5 207>
VStem: -296 34<-394.5 -365.5> 69 35<-133 -97> 157 59<255 292.5>
LayerCount: 2
Fore
SplineSet
3 64 m 1,0,1
 -3 62 -3 62 -8 62 c 128,-1,2
 -13 62 -13 62 -14 67 c 1,3,4
 57.04 111.4 57.04 111.4 81.02 133.2 c 128,-1,5
 105 155 105 155 114 164 c 128,-1,6
 123 173 123 173 129.5 180 c 0,7,8
 141.571428571 193 141.571428571 193 148 193 c 0,9,10
 162 191 162 191 162 182 c 0,11,12
 162 178 162 178 151 159.5 c 128,-1,13
 140 141 140 141 91.5 51 c 128,-1,14
 43 -39 43 -39 18 -83 c 1,15,16
 38 -80 38 -80 56 -80 c 0,17,18
 104 -80 104 -80 104 -105 c 0,19,20
 104 -119 104 -119 85.5 -140.5 c 128,-1,21
 67 -162 67 -162 57 -162 c 128,-1,22
 47 -162 47 -162 47 -155 c 0,23,24
 47 -151 47 -151 58 -142.5 c 128,-1,25
 69 -134 69 -134 69 -122 c 0,26,27
 69 -106 69 -106 48.5 -106 c 128,-1,28
 28 -106 28 -106 3 -111 c 1,29,30
 -179 -438 -179 -438 -262 -438 c 0,31,32
 -296 -438 -296 -438 -296 -403 c 0,33,34
 -296 -340 -296 -340 -210 -234.5 c 128,-1,35
 -124 -129 -124 -129 -21 -93 c 1,36,37
 41 21 41 21 95 131 c 1,38,39
 86 120 86 120 3 64 c 1,0,1
-246 -409 m 0,40,41
 -195 -409 -195 -409 -37 -123 c 1,42,43
 -129 -158 -129 -158 -195.5 -247.5 c 128,-1,44
 -262 -337 -262 -337 -262 -388 c 0,45,46
 -262 -409 -262 -409 -246 -409 c 0,40,41
201 303 m 0,47,48
 216 303 216 303 216 288 c 128,-1,49
 216 273 216 273 202 257.5 c 128,-1,50
 188 242 188 242 171 242 c 0,51,52
 157 242 157 242 157 261.5 c 128,-1,53
 157 281 157 281 173 292 c 128,-1,54
 189 303 189 303 201 303 c 0,47,48
EndSplineSet
EndChar

StartChar: l
Encoding: 108 108 41
Width: 193
Flags: HMW
HStem: -16 31<40.5 53.5> 505 29<302 329.5>
LayerCount: 2
Fore
SplineSet
27 -16 m 0,0,1
 -18 -16 -18 -16 -18 33 c 0,2,3
 -18 98 -18 98 52.5 219.5 c 128,-1,4
 123 341 123 341 213.5 437.5 c 128,-1,5
 304 534 304 534 356 534 c 0,6,7
 375 534 375 534 375 507 c 0,8,9
 375 465 375 465 304.5 370 c 128,-1,10
 234 275 234 275 153 192 c 128,-1,11
 72 109 72 109 28 78 c 1,12,13
 26 62 26 62 26 56.5 c 0,14,15
 26 51 26 51 27 44 c 128,-1,16
 28 37 28 37 35 26 c 128,-1,17
 42 15 42 15 58.5 15 c 0,18,19
 75 15 75 15 117 34.5 c 128,-1,20
 159 54 159 54 191 74 c 2,21,-1
 223 94 l 1,22,23
 224 92 224 92 224 86 c 0,24,25
 224 80 224 80 215 76 c 1,26,27
 80 -16 80 -16 27 -16 c 0,0,1
339 483 m 1,28,29
 338 505 338 505 326 505 c 0,30,31
 295 505 295 505 232 435 c 128,-1,32
 169 365 169 365 110 267.5 c 128,-1,33
 51 170 51 170 33 100 c 1,34,35
 75 134 75 134 141 200 c 128,-1,36
 207 266 207 266 271 351 c 128,-1,37
 335 436 335 436 339 483 c 1,28,29
EndSplineSet
EndChar

StartChar: m
Encoding: 109 109 42
Width: 488
Flags: HMW
HStem: -37 21G -16 31<340 346.5> -16 161 -16 193<256.5 346.5> -14 21G<147.5 159>
VStem: 117 172<1 136.5> 289 36<20.5 23.5>
LayerCount: 2
Fore
SplineSet
32 83 m 2,0,-1
 7 67 l 2,1,2
 3 65 3 65 -0.5 65 c 128,-1,3
 -4 65 -4 65 -4 69 c 128,-1,4
 -4 73 -4 73 -1 76 c 1,5,6
 7 80 7 80 49.5 112.5 c 128,-1,7
 92 145 92 145 104.5 145 c 128,-1,8
 117 145 117 145 117 130.5 c 128,-1,9
 117 116 117 116 86.5 71 c 128,-1,10
 56 26 56 26 56 22.5 c 128,-1,11
 56 19 56 19 58 19 c 0,12,13
 67 19 67 19 162 98 c 128,-1,14
 257 177 257 177 265 177 c 0,15,16
 280 177 280 177 280 163 c 0,17,18
 280 154.142857143 280 154.142857143 245.5 101.571428571 c 128,-1,19
 211 49 211 49 200 30 c 1,20,21
 201 29 201 29 204.5 29 c 128,-1,22
 208 29 208 29 245 55.5 c 128,-1,23
 282 82 282 82 322 112 c 128,-1,24
 362 142 362 142 369 146.5 c 128,-1,25
 376 151 376 151 382 151 c 0,26,27
 394 150 394 150 394 137 c 0,28,29
 394 132 394 132 359.5 84.5 c 128,-1,30
 325 37 325 37 325 24 c 0,31,32
 325 15 325 15 346.5 15 c 128,-1,33
 368 15 368 15 410 34.5 c 128,-1,34
 452 54 452 54 484 74 c 2,35,-1
 516 94 l 1,36,37
 517 92 517 92 517 86 c 128,-1,38
 517 80 517 80 508 76 c 1,39,40
 373 -16 373 -16 320 -16 c 0,41,42
 289 -16 289 -16 289 8 c 0,43,44
 289 30.5714285714 289 30.5714285714 302.5 51.7857142857 c 128,-1,45
 316 73 316 73 326 87.5 c 128,-1,46
 336 102 336 102 336 103 c 1,47,48
 201.509433962 5.18867924528 201.509433962 5.18867924528 181.254716981 -4.40566037736 c 128,-1,49
 161 -14 161 -14 152 -14 c 128,-1,50
 143 -14 143 -14 143 6 c 1,51,-1
 215 118 l 1,52,53
 203 113 203 113 137 63 c 128,-1,54
 71 13 71 13 34 -20 c 1,55,56
 20 -37 20 -37 7 -37 c 1,57,58
 -6 -34 -6 -34 -6 -20 c 0,59,60
 -6 -16 -6 -16 30.5 39 c 128,-1,61
 67 94 67 94 67 98.5 c 128,-1,62
 67 103 67 103 64.5 103 c 128,-1,63
 62 103 62 103 56 99.5 c 128,-1,64
 50 96 50 96 42 90 c 128,-1,65
 34 84 34 84 32 83 c 2,0,-1
EndSplineSet
EndChar

StartChar: n
Encoding: 110 110 43
Width: 357
Flags: HMW
HStem: -22 21G<24 31.5> -16 31<210 216.5> 151 20G<124.5 136>
VStem: 20 175<-12 36> 159 36<20.5 23.5>
LayerCount: 2
Fore
SplineSet
0 76 m 0,0,1
 19 87 19 87 49.5 111 c 0,2,3
 125.75 171 125.75 171 131 171 c 0,4,5
 146 171 146 171 146 158 c 128,-1,6
 146 145 146 145 130.5 118 c 128,-1,7
 115 91 115 91 95.5 62 c 128,-1,8
 76 33 76 33 73 27 c 1,9,10
 74 26 74 26 77.5 26 c 128,-1,11
 81 26 81 26 117 52.5 c 128,-1,12
 153 79 153 79 192 108.5 c 128,-1,13
 231 138 231 138 238 142.5 c 128,-1,14
 245 147 245 147 251 147 c 0,15,16
 263 146 263 146 263 133 c 0,17,18
 263 128 263 128 229 82.5 c 128,-1,19
 195 37 195 37 195 24 c 0,20,21
 195 15 195 15 216.5 15 c 128,-1,22
 238 15 238 15 280 34.5 c 128,-1,23
 322 54 322 54 354 74 c 2,24,-1
 386 94 l 1,25,26
 387 92 387 92 387 86 c 128,-1,27
 387 80 387 80 378 76 c 1,28,29
 243 -16 243 -16 190 -16 c 0,30,31
 159 -16 159 -16 159 8 c 0,32,33
 159 30.5714285714 159 30.5714285714 172.5 51.7857142857 c 128,-1,34
 186 73 186 73 196 87.5 c 128,-1,35
 206 102 206 102 206 103 c 1,36,37
 160 70 160 70 97 24 c 128,-1,38
 34 -22 34 -22 26 -22 c 0,39,40
 20 -22 20 -22 20 -8 c 128,-1,41
 20 6 20 6 59.5 65 c 128,-1,42
 99 124 99 124 99 128 c 128,-1,43
 99 132 99 132 97 132 c 2,44,-1
 87 127 l 1,45,-1
 37 87 l 2,46,47
 32 83 32 83 18 74 c 128,-1,48
 4 65 4 65 0.5 65 c 128,-1,49
 -3 65 -3 65 -3 69.5 c 128,-1,50
 -3 74 -3 74 0 76 c 0,0,1
EndSplineSet
EndChar

StartChar: p
Encoding: 112 112 44
Width: 281
Flags: HMW
HStem: -389 29<-267 -243 -267 -242> 168 29<215 222> 373 20G<234 238>
VStem: -299 28<-354 -306.5> 55 223<4.5 168> 237 41<123.5 148>
LayerCount: 2
Fore
SplineSet
119 160 m 1,0,1
 185 197 185 197 231.5 197 c 128,-1,2
 278 197 278 197 278 158 c 0,3,4
 278 105 278 105 211.5 47.5 c 128,-1,5
 145 -10 145 -10 79 -10 c 0,6,7
 73 -10 73 -10 64 -4 c 128,-1,8
 55 2 55 2 55 16 c 128,-1,9
 55 30 55 30 77.5 49 c 128,-1,10
 100 68 100 68 104.5 68 c 128,-1,11
 109 68 109 68 113.5 66.5 c 128,-1,12
 118 65 118 65 122.5 61 c 128,-1,13
 127 57 127 57 127 54 c 128,-1,14
 127 51 127 51 122 46 c 1,15,16
 112 39 112 39 100.5 27.5 c 128,-1,17
 89 16 89 16 89 11.5 c 128,-1,18
 89 7 89 7 99 7 c 128,-1,19
 109 7 109 7 141 21.5 c 128,-1,20
 173 36 173 36 205 69.5 c 128,-1,21
 237 103 237 103 237 143 c 0,22,23
 237 168 237 168 208 168 c 0,24,25
 164 168 164 168 104 134 c 1,26,27
 18 -10 18 -10 -4 -50 c 0,28,29
 -91 -210 -91 -210 -159 -299.5 c 128,-1,30
 -227 -389 -227 -389 -281 -389 c 0,31,32
 -299 -389 -299 -389 -299 -367 c 0,33,34
 -299 -279 -299 -279 -182.5 -124.5 c 128,-1,35
 -66 30 -66 30 65 125 c 1,36,37
 166 292 166 292 187 334 c 1,38,39
 176 321 176 321 150 303 c 2,40,-1
 93 264 l 1,41,42
 87 262 87 262 82 262 c 128,-1,43
 77 262 77 262 76 267 c 1,44,45
 169.658536585 325.536585366 169.658536585 325.536585366 215 375 c 0,46,47
 226 387 226 387 227 390 c 1,48,49
 230 393 230 393 241 392 c 128,-1,50
 252 391 252 391 252 382 c 0,51,52
 252 378 252 378 237.5 354.5 c 128,-1,53
 223 331 223 331 119 160 c 1,0,1
-33 -42 m 1,54,-1
 48 96 l 1,55,56
 -67 9 -67 9 -169 -136.5 c 128,-1,57
 -271 -282 -271 -282 -271 -351 c 0,58,59
 -271 -360 -271 -360 -265 -360 c 0,60,61
 -202 -360 -202 -360 -33 -42 c 1,54,-1
EndSplineSet
EndChar

StartChar: r
Encoding: 114 114 45
Width: 245
Flags: HMW
HStem: -16 31<102 104.5> 257 22<122 129>
VStem: 52 40<27 41> 145 28<131 160>
LayerCount: 2
Fore
SplineSet
7 67 m 0,0,1
 3 65 3 65 -0.5 65 c 0,2,3
 -4 65 -4 65 -4 69 c 0,4,5
 -4 73 -4 73 -1 76 c 1,6,7
 40 99 40 99 89 151 c 1,8,9
 44 165 44 165 44 190.5 c 0,10,11
 44 216 44 216 78 247.5 c 128,-1,12
 112 279 112 279 142 279 c 0,13,14
 162 279 162 279 162 255 c 0,15,16
 162 218 162 218 125 176 c 1,17,18
 173 168 173 168 173 153 c 0,19,20
 173 133 173 133 155.5 122.5 c 0,21,22
 138 112 138 112 115 85 c 128,-1,23
 92 58 92 58 92 31 c 0,24,25
 92 25 92 25 96 20 c 128,-1,26
 100 15 100 15 113 15 c 0,27,28
 126 15 126 15 168 34.5 c 128,-1,29
 210 54 210 54 242 74 c 2,30,-1
 274 94 l 1,31,32
 275 92 275 92 275 86 c 0,33,34
 275 80 275 80 266 76 c 1,35,36
 131 -16 131 -16 78 -16 c 0,37,38
 52 -16 52 -16 52 10 c 0,39,40
 52 31 52 31 66.5 54 c 128,-1,41
 81 77 81 77 98.5 92 c 128,-1,42
 116 107 116 107 130.5 120.5 c 128,-1,43
 145 134 145 134 145 138 c 128,-1,44
 145 142 145 142 132.5 143 c 0,45,46
 120 144 120 144 100 148 c 1,47,48
 45 89 45 89 7 67 c 0,0,1
69 206 m 0,49,50
 69 186 69 186 113 178 c 1,51,52
 139 210 139 210 139 233.5 c 0,53,54
 139 257 139 257 124 257 c 128,-1,55
 109 257 109 257 89 239.5 c 128,-1,56
 69 222 69 222 69 206 c 0,49,50
EndSplineSet
EndChar

StartChar: s
Encoding: 115 115 46
Width: 197
Flags: HMW
HStem: -39 21<41.5 50.5> 220 20G<130 148>
VStem: -21 40<-5 7> 50 25<159.5 168.5> 117 33<20.5 34>
LayerCount: 2
Fore
SplineSet
61 109 m 1,0,1
 12.6 65 12.6 65 0 65 c 0,2,3
 -4 65 -4 65 -4 69 c 128,-1,4
 -4 73 -4 73 -1 76 c 1,5,6
 23 89 23 89 55 118 c 1,7,8
 50 130 50 130 50 144 c 0,9,10
 50 178 50 178 85 209 c 128,-1,11
 120 240 120 240 144 240 c 0,12,13
 157 240 157 240 157 227.5 c 128,-1,14
 157 215 157 215 117 167 c 0,15,16
 113 162 113 162 108 157 c 128,-1,17
 103 152 103 152 97.5 145.5 c 128,-1,18
 92 139 92 139 89 136 c 1,19,20
 94 131 94 131 107 118.5 c 128,-1,21
 120 106 120 106 128 98 c 0,22,23
 150 76 150 76 150 43 c 128,-1,24
 150 10 150 10 109 -14.5 c 128,-1,25
 68 -39 68 -39 23.5 -39 c 128,-1,26
 -21 -39 -21 -39 -21 -12.5 c 128,-1,27
 -21 14 -21 14 20 36 c 128,-1,28
 61 58 61 58 106 66 c 1,29,30
 100 74 100 74 83.5 87 c 128,-1,31
 67 100 67 100 61 109 c 1,0,1
49 35.5 m 128,-1,33
 19 21 19 21 19 1.5 c 128,-1,34
 19 -18 19 -18 46.5 -18 c 128,-1,35
 74 -18 74 -18 95.5 -5 c 128,-1,36
 117 8 117 8 117 24 c 128,-1,37
 117 40 117 40 113 54 c 1,38,32
 79 50 79 50 49 35.5 c 128,-1,33
82 144 m 1,39,-1
 108 172 l 1,40,41
 134 203 134 203 134 209.5 c 128,-1,42
 134 216 134 216 128 216 c 0,43,44
 111 216 111 216 93 199.5 c 128,-1,45
 75 183 75 183 75 167.5 c 128,-1,46
 75 152 75 152 82 144 c 1,39,-1
EndSplineSet
EndChar

StartChar: u
Encoding: 117 117 47
Width: 318
Flags: HMW
HStem: -16 31<175 177.5> -6 21G 183 20G<257.5 262>
LayerCount: 2
Fore
SplineSet
125 10 m 0,0,1
 125 21.1428571429 125 21.1428571429 141.5 47.0714285714 c 128,-1,2
 158 73 158 73 163.5 80 c 128,-1,3
 169 87 169 87 180 102 c 1,4,5
 61 -6 61 -6 16 -6 c 0,6,7
 -9 -6 -9 -6 -9 15 c 0,8,9
 -9 45 -9 45 92 184 c 0,10,11
 97 192 97 192 105 192 c 1,12,13
 128 185 128 185 128 182 c 128,-1,14
 128 179 128 179 122 170 c 0,15,16
 36 54 36 54 36 39.5 c 128,-1,17
 36 25 36 25 46 25 c 0,18,19
 74 25 74 25 145.5 89.5 c 128,-1,20
 217 154 217 154 249 196 c 1,21,22
 253 203 253 203 262 203 c 1,23,24
 282 199 282 199 282 195 c 1,25,26
 271 179 271 179 252 153 c 128,-1,27
 233 127 233 127 221 110.5 c 128,-1,28
 209 94 209 94 195.5 75 c 0,29,30
 171.325581395 40.976744186 171.325581395 40.976744186 166 25 c 1,31,32
 166 15 166 15 182.5 15 c 128,-1,33
 199 15 199 15 241 34.5 c 128,-1,34
 283 54 283 54 315 74 c 2,35,-1
 347 94 l 1,36,37
 348 92 348 92 348 86 c 128,-1,38
 348 80 348 80 339 76 c 1,39,40
 204 -16 204 -16 151 -16 c 0,41,42
 125 -16 125 -16 125 10 c 0,0,1
EndSplineSet
EndChar

StartChar: v
Encoding: 118 118 48
Width: 213
Flags: HMW
HStem: -18 21G<13.5 18> 218 42<252.5 320>
LayerCount: 2
Fore
SplineSet
16 162 m 1,0,-1
 -9 155 l 2,1,2
 -11 155 -11 155 -11 158 c 0,3,4
 -11 167 -11 167 11.5 180 c 128,-1,5
 34 193 34 193 48 193 c 128,-1,6
 62 193 62 193 62 133 c 1,7,-1
 56 36 l 2,8,9
 57 37 57 37 123 109.5 c 128,-1,10
 189 182 189 182 237.5 221 c 128,-1,11
 286 260 286 260 320 260 c 1,12,13
 335 259 335 259 335 249.5 c 128,-1,14
 335 240 335 240 317 225 c 128,-1,15
 299 210 299 210 289.5 210 c 128,-1,16
 280 210 280 210 278 214 c 128,-1,17
 276 218 276 218 268.5 218 c 128,-1,18
 261 218 261 218 244.5 207.5 c 128,-1,19
 228 197 228 197 203.5 173 c 128,-1,20
 179 149 179 149 157 125.5 c 128,-1,21
 135 102 135 102 96.5 60.5 c 128,-1,22
 58 19 58 19 29 -11 c 0,23,24
 21 -18 21 -18 15.5 -18 c 128,-1,25
 10 -18 10 -18 10 -14 c 0,26,27
 25 63 25 63 25 138 c 2,28,-1
 25 157 l 1,29,30
 22 162 22 162 16 162 c 1,0,-1
EndSplineSet
EndChar

StartChar: x
Encoding: 120 120 49
Width: 250
Flags: HMW
HStem: -61 21G<-96.5 -94> -16 31<103.5 110.5> 199 20G<234 241.5>
LayerCount: 2
Fore
SplineSet
238 219 m 0,0,1
 243 219 243 219 249 214.5 c 128,-1,2
 255 210 255 210 255 204.5 c 128,-1,3
 255 199 255 199 246 194 c 0,4,5
 170 144 170 144 89 83 c 1,6,-1
 89 68 l 2,7,8
 89 15 89 15 112 15 c 0,9,10
 132 15 132 15 174 34.5 c 128,-1,11
 216 54 216 54 248 74 c 2,12,-1
 280 94 l 1,13,14
 281 92 281 92 281 86 c 128,-1,15
 281 80 281 80 272 76 c 1,16,17
 137 -16 137 -16 84 -16 c 0,18,19
 53 -16 53 -16 53 36 c 0,20,21
 53 49 53 49 54 56 c 1,22,23
 -16 2 -16 2 -53.5 -29.5 c 128,-1,24
 -91 -61 -91 -61 -96.5 -61 c 128,-1,25
 -102 -61 -102 -61 -102 -56.5 c 128,-1,26
 -102 -52 -102 -52 -95 -44 c 1,27,28
 -21 17 -21 17 56 81 c 1,29,30
 66 153 66 153 66 162.5 c 128,-1,31
 66 172 66 172 58.5 172 c 128,-1,32
 51 172 51 172 40 164 c 1,33,34
 35 164 35 164 35 167 c 0,35,36
 35 174 35 174 59 192 c 1,37,38
 76 208 76 208 88 208 c 0,39,40
 90 208 90 208 96 204.5 c 128,-1,41
 102 201 102 201 102 192.5 c 128,-1,42
 102 184 102 184 100 172.5 c 0,43,44
 97.7142857143 159.357142857 97.7142857143 159.357142857 91 109 c 1,45,46
 228 219 228 219 238 219 c 0,0,1
EndSplineSet
EndChar

StartChar: y
Encoding: 121 121 50
Width: 249
Flags: HMW
HStem: -414 29<-183.5 -159> -6 31<-6 45> 180 20G<92 96>
VStem: -228 34<-370.5 -344.5> 133 34<-102.5 -101>
LayerCount: 2
Fore
SplineSet
232.5 151.5 m 128,-1,1
 210 117 210 117 197.5 99 c 128,-1,2
 185 81 185 81 93 -69 c 1,3,4
 101 -68 101 -68 119 -68 c 0,5,6
 167 -68 167 -68 167 -93 c 0,7,8
 167 -107 167 -107 149 -126 c 128,-1,9
 131 -145 131 -145 121 -145 c 128,-1,10
 111 -145 111 -145 111 -138 c 0,11,12
 111 -134 111 -134 122 -125.5 c 128,-1,13
 133 -117 133 -117 133 -105.5 c 128,-1,14
 133 -94 133 -94 113.5 -94 c 128,-1,15
 94 -94 94 -94 76 -97 c 1,16,17
 -15 -246 -15 -246 -81 -330 c 128,-1,18
 -147 -414 -147 -414 -194 -414 c 0,19,20
 -228 -414 -228 -414 -228 -379 c 0,21,22
 -228 -319 -228 -319 -137.5 -212.5 c 128,-1,23
 -47 -106 -47 -106 59 -76 c 1,24,-1
 155 90 l 1,25,26
 113.090225564 51.5827067669 113.090225564 51.5827067669 68.545112782 22.7913533835 c 128,-1,27
 24 -6 24 -6 1 -6 c 128,-1,28
 -22 -6 -22 -6 -22 15 c 0,29,30
 -22 47 -22 47 83 192 c 0,31,32
 88 200 88 200 96 200 c 1,33,34
 119 193 119 193 119 190 c 128,-1,35
 119 187 119 187 113 178 c 0,36,37
 23 56 23 56 23 37 c 0,38,39
 23 25 23 25 36.5 25 c 128,-1,40
 50 25 50 25 92.5 57 c 128,-1,41
 135 89 135 89 165 122 c 1,42,-1
 221 190 l 2,43,44
 227 197 227 197 236 197 c 1,45,46
 255 194 255 194 255 187 c 0,47,0
 255 186 255 186 232.5 151.5 c 128,-1,1
-177 -308.5 m 128,-1,49
 -194 -344 -194 -344 -194 -364.5 c 128,-1,50
 -194 -385 -194 -385 -178 -385 c 0,51,52
 -128 -385 -128 -385 41 -105 c 1,53,54
 -9 -121 -9 -121 -55.5 -157.5 c 128,-1,55
 -102 -194 -102 -194 -131 -233.5 c 128,-1,48
 -160 -273 -160 -273 -177 -308.5 c 128,-1,49
EndSplineSet
EndChar

StartChar: z
Encoding: 122 122 51
Width: 242
Flags: HMW
HStem: -417 29<-106.5 -80> 0 21G<12 16.5> 31 140<94 101.5 73.5 116> 141 30<73.5 89.5> 141 43 196 20G<72.5 74.5>
VStem: -151 34<-373.5 -344.5> 13 178<-14.5 179.5> 156 35<-14.5 4> 243 35<-90 -54>
LayerCount: 2
Fore
SplineSet
197 163 m 128,-1,1
 197 142 197 142 150 99.5 c 128,-1,2
 103 57 103 57 86 47 c 1,3,4
 95 50 95 50 119.5 50 c 128,-1,5
 144 50 144 50 167.5 33.5 c 128,-1,6
 191 17 191 17 191 -4.5 c 128,-1,7
 191 -26 191 -26 187 -41 c 1,8,9
 206 -37 206 -37 230 -37 c 0,10,11
 278 -37 278 -37 278 -62 c 0,12,13
 278 -76 278 -76 259.5 -97.5 c 128,-1,14
 241 -119 241 -119 231 -119 c 128,-1,15
 221 -119 221 -119 221 -112 c 0,16,17
 221 -108 221 -108 232 -99.5 c 128,-1,18
 243 -91 243 -91 243 -79 c 0,19,20
 243 -63 243 -63 224 -63 c 128,-1,21
 205 -63 205 -63 180 -68 c 1,22,23
 145 -172 145 -172 41.5 -294.5 c 128,-1,24
 -62 -417 -62 -417 -117 -417 c 0,25,26
 -151 -417 -151 -417 -151 -382 c 0,27,28
 -151 -320 -151 -320 -55.5 -207 c 128,-1,29
 40 -94 40 -94 147 -53 c 1,30,31
 156 -27.5 156 -27.5 156 -9.25 c 128,-1,32
 156 9 156 9 139.5 20 c 128,-1,33
 123 31 123 31 104 31 c 0,34,35
 58 31 58 31 30 8 c 0,36,37
 20 0 20 0 13.5 0 c 128,-1,38
 7 0 7 0 7 4.5 c 128,-1,39
 7 9 7 9 14 14.5 c 128,-1,40
 21 20 21 20 41.5 34.5 c 128,-1,41
 62 49 62 49 80.5 63.5 c 128,-1,42
 99 78 99 78 120.5 97 c 0,43,44
 168 138.976744186 168 138.976744186 168 164 c 1,45,46
 161 157 161 157 129.5 149 c 128,-1,47
 98 141 98 141 70 141 c 0,48,49
 13 141 13 141 13 168 c 0,50,51
 13 178 13 178 28 190 c 128,-1,52
 43 202 43 202 57 209 c 128,-1,53
 71 216 71 216 73 216 c 0,54,55
 79 216 79 216 80.5 211 c 0,56,57
 82.3333333333 204.888888889 82.3333333333 204.888888889 70.1666666667 196.944444444 c 128,-1,58
 58 189 58 189 58 180 c 128,-1,59
 58 171 58 171 81 171 c 128,-1,60
 104 171 104 171 130.5 177.5 c 128,-1,61
 157 184 157 184 168 184 c 0,62,0
 197 184 197 184 197 163 c 128,-1,1
-84.5 -281 m 128,-1,64
 -117 -337 -117 -337 -117 -362.5 c 128,-1,65
 -117 -388 -117 -388 -101 -388 c 0,66,67
 -61 -388 -61 -388 20 -281.5 c 128,-1,68
 101 -175 101 -175 138 -80 c 1,69,70
 71 -105 71 -105 9.5 -165 c 128,-1,63
 -52 -225 -52 -225 -84.5 -281 c 128,-1,64
EndSplineSet
EndChar

StartChar: apple
Encoding: 63743 63743 53
Width: 632
Flags: HMW
HStem: -12 45<241 390.5 241 403> 96 45<293 338 293 343.5> 468 44<293 334.5> 575 45<241 390.5> 575 163<241 257 374 390.5>
VStem: 0 45<229 378.5 229 391> 183 54<370.5 429 370.5 448.5> 401 57<182.5 241.5> 586 46<229 378.5>
LayerCount: 2
Fore
SplineSet
434 738 m 1,0,-1
 344 653 l 1,1,2
 335 654 335 654 316 654 c 128,-1,3
 297 654 297 654 288 653 c 1,4,-1
 198 738 l 1,5,-1
 257 738 l 1,6,-1
 315 677 l 1,7,-1
 374 738 l 1,8,-1
 434 738 l 1,0,-1
632 304 m 128,-1,10
 632 174 632 174 539 81 c 128,-1,11
 446 -12 446 -12 315.5 -12 c 128,-1,12
 185 -12 185 -12 92.5 80.5 c 128,-1,13
 0 173 0 173 0 304 c 128,-1,14
 0 435 0 435 92.5 527.5 c 128,-1,15
 185 620 185 620 315.5 620 c 128,-1,16
 446 620 446 620 539 527 c 128,-1,9
 632 434 632 434 632 304 c 128,-1,10
586 304 m 128,-1,18
 586 416 586 416 507 495.5 c 128,-1,19
 428 575 428 575 316 575 c 128,-1,20
 204 575 204 575 124.5 495.5 c 128,-1,21
 45 416 45 416 45 304 c 128,-1,22
 45 192 45 192 124.5 112.5 c 128,-1,23
 204 33 204 33 316 33 c 128,-1,24
 428 33 428 33 507 112.5 c 128,-1,17
 586 192 586 192 586 304 c 128,-1,18
458 204 m 0,25,26
 458 151 458 151 413.5 123.5 c 128,-1,27
 369 96 369 96 311.5 96 c 128,-1,28
 254 96 254 96 174 135 c 1,29,-1
 183 182 l 1,30,31
 249 141 249 141 311 141 c 0,32,33
 351 141 351 141 376 157.5 c 128,-1,34
 401 174 401 174 401 198.5 c 128,-1,35
 401 223 401 223 378.5 242.5 c 128,-1,36
 356 262 356 262 324 277.5 c 128,-1,37
 292 293 292 293 260 310 c 128,-1,38
 228 327 228 327 205.5 352.5 c 128,-1,39
 183 378 183 378 183 409 c 0,40,41
 183 463 183 463 222.5 487.5 c 128,-1,42
 262 512 262 512 314 512 c 0,43,44
 351 512 351 512 374 501 c 0,45,46
 420 479 420 479 435 469 c 1,47,-1
 424 426 l 1,48,49
 376 468 376 468 317 468 c 0,50,51
 281 468 281 468 259 452.5 c 128,-1,52
 237 437 237 437 237 413.5 c 128,-1,53
 237 390 237 390 260 372 c 128,-1,54
 283 354 283 354 315.5 340.5 c 128,-1,55
 348 327 348 327 380 311.5 c 128,-1,56
 412 296 412 296 435 268.5 c 128,-1,57
 458 241 458 241 458 204 c 0,25,26
EndSplineSet
EndChar

StartChar: dotlessi
Encoding: 305 305 54
Width: 183
Flags: HMW
HStem: -16 31<5.5 67> 161 20G<94 104>
LayerCount: 2
Fore
SplineSet
85 173 m 1,0,1
 90 181 90 181 99 181 c 128,-1,2
 108 181 108 181 117 172 c 1,3,4
 117 168 117 168 104 154 c 128,-1,5
 91 140 91 140 60 91.5 c 128,-1,6
 29 43 29 43 29 27 c 0,7,8
 29 16.875 29 16.875 44 15 c 1,9,10
 64 15 64 15 106 34.5 c 128,-1,11
 148 54 148 54 180 74 c 2,12,-1
 212 94 l 1,13,14
 213 92 213 92 213 86 c 128,-1,15
 213 80 213 80 204 76 c 1,16,17
 69 -16 69 -16 16 -16 c 0,18,19
 -10 -16 -10 -16 -10 10 c 128,-1,20
 -10 36 -10 36 18.5 82.5 c 128,-1,21
 47 129 47 129 85 173 c 1,0,1
EndSplineSet
EndChar

StartChar: dieresis
Encoding: 168 168 55
Width: 394
Flags: HMW
HStem: 234 21G<253.5 270.5> 244 61<148.5 190>
VStem: 140 59<257 294.5> 245 59<247 284.5>
LayerCount: 2
Fore
SplineSet
184 305 m 0,0,1
 199 305 199 305 199 290 c 0,2,3
 199 275 199 275 185 259.5 c 128,-1,4
 171 244 171 244 154 244 c 0,5,6
 140 244 140 244 140 263.5 c 0,7,8
 140 283 140 283 156 294 c 128,-1,9
 172 305 172 305 184 305 c 0,0,1
289 295 m 0,10,11
 304 295 304 295 304 280 c 0,12,13
 304 265 304 265 290 249.5 c 128,-1,14
 276 234 276 234 259 234 c 0,15,16
 245 234 245 234 245 253.5 c 0,17,18
 245 273 245 273 261 284 c 128,-1,19
 277 295 277 295 289 295 c 0,10,11
EndSplineSet
EndChar

StartChar: idieresis
Encoding: 239 239 56
Width: 183
Flags: HMW
HStem: -16 31<5.5 67> 244 61<79.5 121>
VStem: 71 59<257 294.5> 176 59<247 284.5>
LayerCount: 2
Fore
SplineSet
85 173 m 1,0,1
 90 181 90 181 99 181 c 128,-1,2
 108 181 108 181 117 172 c 1,3,4
 117 168 117 168 104 154 c 128,-1,5
 91 140 91 140 60 91.5 c 128,-1,6
 29 43 29 43 29 27 c 0,7,8
 29 16.875 29 16.875 44 15 c 1,9,10
 64 15 64 15 106 34.5 c 128,-1,11
 148 54 148 54 180 74 c 2,12,-1
 212 94 l 1,13,14
 213 92 213 92 213 86 c 128,-1,15
 213 80 213 80 204 76 c 1,16,17
 69 -16 69 -16 16 -16 c 0,18,19
 -10 -16 -10 -16 -10 10 c 128,-1,20
 -10 36 -10 36 18.5 82.5 c 128,-1,21
 47 129 47 129 85 173 c 1,0,1
115 305 m 0,22,23
 130 305 130 305 130 290 c 128,-1,24
 130 275 130 275 116 259.5 c 128,-1,25
 102 244 102 244 85 244 c 0,26,27
 71 244 71 244 71 263.5 c 128,-1,28
 71 283 71 283 87 294 c 128,-1,29
 103 305 103 305 115 305 c 0,22,23
220 295 m 0,30,31
 235 295 235 295 235 280 c 128,-1,32
 235 265 235 265 221 249.5 c 128,-1,33
 207 234 207 234 190 234 c 0,34,35
 176 234 176 234 176 253.5 c 128,-1,36
 176 273 176 273 192 284 c 128,-1,37
 208 295 208 295 220 295 c 0,30,31
EndSplineSet
EndChar

StartChar: Adieresis
Encoding: 196 196 57
Width: 515
Flags: HMW
HStem: -68 21G<-51.5 -41> -4 21G<345.5 358> 686 28 750 61<680.5 722> 801 20G<606.5 617>
VStem: 13 30<331.5 366.5> 567 59<773 810.5> 622 37<646 673.5> 672 59<763 800.5>
LayerCount: 2
Fore
SplineSet
-41 -68 m 1,0,1
 -64 -68 -64 -68 -72 -53 c 0,2,3
 -75 -48 -75 -48 -75 -45 c 128,-1,4
 -75 -42 -75 -42 -73 -40 c 0,5,6
 18 27 18 27 143 170 c 1,7,8
 81 204 81 204 47 251.5 c 128,-1,9
 13 299 13 299 13 339.5 c 128,-1,10
 13 380 13 380 38 403 c 128,-1,11
 63 426 63 426 111 426 c 0,12,13
 202 426 202 426 266 321 c 1,14,15
 294 356 294 356 355.5 435 c 128,-1,16
 417 514 417 514 445 548.5 c 128,-1,17
 473 583 473 583 514.5 629.5 c 0,18,19
 589.913978495 714 589.913978495 714 629 714 c 0,20,21
 659 713 659 713 659 682 c 0,22,23
 659 648.677419355 659 648.677419355 636.5 591.338709677 c 128,-1,24
 614 534 614 534 600.5 500.5 c 128,-1,25
 587 467 587 467 560.5 411.5 c 128,-1,26
 534 356 534 356 519 323.5 c 128,-1,27
 504 291 504 291 473 227.5 c 128,-1,28
 442 164 442 164 430 139 c 1,29,30
 507 144 507 144 552 166 c 0,31,32
 560 170 560 170 562 175 c 128,-1,33
 564 180 564 180 567.5 180 c 128,-1,34
 571 180 571 180 574.5 176 c 128,-1,35
 578 172 578 172 578 168 c 0,36,37
 578 134 578 134 422 121 c 1,38,39
 383 40 383 40 368 4 c 0,40,41
 364 -4 364 -4 356 -4 c 0,42,43
 335 -4 335 -4 335 36 c 1,44,45
 331 67 331 67 321 121 c 1,46,47
 242 127 242 127 173 156 c 1,48,-1
 173 155 l 1,49,50
 130 102 130 102 76.5 46.5 c 128,-1,51
 23 -9 23 -9 -9 -38.5 c 2,52,-1
 -41 -68 l 1,0,1
393 138 m 1,53,54
 622 614 622 614 622 669 c 0,55,56
 622 686 622 686 610 686 c 0,57,58
 591.8 686 591.8 686 559.4 650 c 128,-1,59
 527 614 527 614 507 590 c 128,-1,60
 487 566 487 566 454 523.5 c 128,-1,61
 421 481 421 481 399.5 453 c 128,-1,62
 378 425 378 425 339 372.5 c 128,-1,63
 300 320 300 320 281 295 c 1,64,65
 312 237 312 237 337 142 c 1,66,67
 361 138 361 138 393 138 c 1,53,54
255 306 m 1,68,69
 196 408 196 408 115 408 c 0,70,71
 79 408 79 408 61 393 c 128,-1,72
 43 378 43 378 43 348.5 c 128,-1,73
 43 319 43 319 76.5 275.5 c 128,-1,74
 110 232 110 232 167 199 c 1,75,76
 197 234 197 234 255 306 c 1,68,69
269 279 m 1,77,78
 237 236 237 236 195 183 c 1,79,80
 254 155 254 155 315 145 c 1,81,82
 294 229 294 229 269 279 c 1,77,78
716 811 m 0,83,84
 731 811 731 811 731 796 c 128,-1,85
 731 781 731 781 717 765.5 c 128,-1,86
 703 750 703 750 686 750 c 0,87,88
 672 750 672 750 672 769.5 c 128,-1,89
 672 789 672 789 688 800 c 128,-1,90
 704 811 704 811 716 811 c 0,83,84
611 821 m 0,91,92
 626 821 626 821 626 806 c 128,-1,93
 626 791 626 791 612 775.5 c 128,-1,94
 598 760 598 760 581 760 c 0,95,96
 567 760 567 760 567 779.5 c 128,-1,97
 567 799 567 799 583 810 c 128,-1,98
 599 821 599 821 611 821 c 0,91,92
384 119 m 1,99,-1
 342 119 l 1,100,-1
 354 56 l 1,101,102
 366 80 366 80 384 119 c 1,99,-1
EndSplineSet
EndChar

StartChar: adieresis
Encoding: 228 228 58
Width: 303
Flags: HMW
HStem: -16 21G<125.5 162.5> -8 23 177 22<170 193> 234 61<248.5 290> 285 20G<174.5 185>
VStem: -16 50<37 59> -16 167<21 36.5 21 59> 135 59<257 294.5> 240 59<247 284.5>
LayerCount: 2
Fore
SplineSet
189 119 m 0,0,1
 183 119 183 119 183 126 c 1,2,-1
 186 133 l 1,3,4
 204 150 204 150 204 162 c 0,5,6
 204 177 204 177 188 177 c 0,7,8
 153 177 153 177 93.5 128.5 c 128,-1,9
 34 80 34 80 34 42 c 0,10,11
 34 26 34 26 55 26 c 0,12,13
 76 26 76 26 103.5 43.5 c 128,-1,14
 131 61 131 61 150.5 78.5 c 128,-1,15
 170 96 170 96 172 96 c 0,16,17
 182 95 182 95 182 86 c 0,18,19
 182 82 182 82 166.5 60 c 128,-1,20
 151 38 151 38 151 25 c 0,21,22
 151 15 151 15 167.5 15 c 0,23,24
 184 15 184 15 226 34.5 c 128,-1,25
 268 54 268 54 300 74 c 2,26,-1
 332 94 l 1,27,28
 333 92 333 92 333 86 c 0,29,30
 333 80 333 80 324 76 c 1,31,32
 189 -16 189 -16 136 -16 c 0,33,34
 110 -16 110 -16 110 10 c 0,35,36
 110 21 110 21 114 33 c 1,37,38
 107 25 107 25 72.5 8.5 c 128,-1,39
 38 -8 38 -8 11 -8 c 0,40,41
 -16 -8 -16 -8 -16 17 c 0,42,43
 -16 76 -16 76 66 137.5 c 128,-1,44
 148 199 148 199 204 199 c 0,45,46
 237 199 237 199 237 171 c 0,47,48
 237 155 237 155 217 137 c 128,-1,49
 197 119 197 119 189 119 c 0,0,1
284 295 m 0,50,51
 299 295 299 295 299 280 c 0,52,53
 299 265 299 265 285 249.5 c 128,-1,54
 271 234 271 234 254 234 c 0,55,56
 240 234 240 234 240 253.5 c 0,57,58
 240 273 240 273 256 284 c 128,-1,59
 272 295 272 295 284 295 c 0,50,51
179 305 m 0,60,61
 194 305 194 305 194 290 c 0,62,63
 194 275 194 275 180 259.5 c 128,-1,64
 166 244 166 244 149 244 c 0,65,66
 135 244 135 244 135 263.5 c 0,67,68
 135 283 135 283 151 294 c 128,-1,69
 167 305 167 305 179 305 c 0,60,61
EndSplineSet
EndChar

StartChar: Edieresis
Encoding: 203 203 59
Width: 400
Flags: HMW
HStem: -54 28<95 137 95 158.5> 323 23<173.5 194> 495 241<408.5 412.5> 711 25<414.5 499> 790 61<432.5 474>
VStem: -14 54<42.5 88.5> 48 51<390.5 452> 351 38 424 59<803 840.5> 529 59<793 830.5>
LayerCount: 2
Fore
SplineSet
378 495 m 0,0,1
 351 495 351 495 351 511 c 0,2,3
 351 536 351 536 409.5 583.5 c 128,-1,4
 468 631 468 631 539 659 c 1,5,6
 540 661 540 661 540 666 c 0,7,8
 540 711 540 711 478 711 c 128,-1,9
 416 711 416 711 325.5 657.5 c 128,-1,10
 235 604 235 604 167 531.5 c 128,-1,11
 99 459 99 459 99 409 c 0,12,13
 99 346 99 346 215 346 c 0,14,15
 283 346 283 346 332 378 c 1,16,17
 335 382 335 382 339 382 c 0,18,19
 346 382 346 382 346 371.5 c 128,-1,20
 346 361 346 361 339 358 c 0,21,22
 213.746922025 300.592339261 213.746922025 300.592339261 132.5 228.5 c 0,23,24
 97 197 97 197 68.5 150.5 c 128,-1,25
 40 104 40 104 40 64.5 c 128,-1,26
 40 25 40 25 60.5 -0.5 c 128,-1,27
 81 -26 81 -26 137 -26 c 1,28,29
 156 -25 156 -25 180 -20 c 128,-1,30
 204 -15 204 -15 261 14 c 128,-1,31
 318 43 318 43 370 91 c 1,32,33
 378 101 378 101 383 101 c 0,34,35
 389 100 389 100 389 93 c 0,36,37
 389 76 389 76 342 41 c 128,-1,38
 295 6 295 6 224.5 -24 c 128,-1,39
 154 -54 154 -54 101 -54 c 0,40,41
 25.1707317073 -54 25.1707317073 -54 -3 -1.5 c 0,42,43
 -14 19 -14 19 -14 46 c 0,44,45
 -14 112 -14 112 62.5 194.5 c 128,-1,46
 139 277 139 277 261 333 c 1,47,48
 214 323 214 323 174 323 c 0,49,50
 48 323 48 323 48 393 c 0,51,52
 48 436 48 436 95 496.5 c 128,-1,53
 142 557 142 557 208.5 609 c 128,-1,54
 275 661 275 661 352.5 698.5 c 128,-1,55
 430 736 430 736 485 736 c 0,56,57
 570 736 570 736 570 678 c 0,58,59
 570 672 570 672 569 669 c 1,60,61
 613 683 613 683 635 683 c 128,-1,62
 657 683 657 683 663 681.5 c 128,-1,63
 669 680 669 680 669 669 c 128,-1,64
 669 658 669 658 661 656 c 1,65,66
 615 656 615 656 561 639 c 1,67,68
 539 586 539 586 483.5 540.5 c 128,-1,69
 428 495 428 495 378 495 c 0,0,1
384 523 m 0,70,71
 384 514 384 514 400 514 c 0,72,73
 430 514 430 514 471 550.5 c 128,-1,74
 512 587 512 587 530 628 c 1,75,76
 472 604 472 604 428 571.5 c 128,-1,77
 384 539 384 539 384 523 c 0,70,71
468 851 m 0,78,79
 483 851 483 851 483 836 c 128,-1,80
 483 821 483 821 469 805.5 c 128,-1,81
 455 790 455 790 438 790 c 0,82,83
 424 790 424 790 424 809.5 c 128,-1,84
 424 829 424 829 440 840 c 128,-1,85
 456 851 456 851 468 851 c 0,78,79
573 841 m 0,86,87
 588 841 588 841 588 826 c 128,-1,88
 588 811 588 811 574 795.5 c 128,-1,89
 560 780 560 780 543 780 c 0,90,91
 529 780 529 780 529 799.5 c 128,-1,92
 529 819 529 819 545 830 c 128,-1,93
 561 841 561 841 573 841 c 0,86,87
EndSplineSet
EndChar

StartChar: edieresis
Encoding: 235 235 60
Width: 228
Flags: HMW
HStem: -25 28<1 57.5> 97 23<34.5 77> 218 21<156 163.5> 291 61<93.5 135>
VStem: -31 43<-4 47> -4 42<130.5 143.5> 85 59<304 341.5> 190 34 190 59
LayerCount: 2
Fore
SplineSet
56 97 m 1,0,1
 -4 97 -4 97 -4 123 c 0,2,3
 -4 154 -4 154 67 196.5 c 128,-1,4
 138 239 138 239 195 239 c 0,5,6
 224 239 224 239 224 221 c 0,7,8
 224 211 224 211 209 199 c 128,-1,9
 194 187 194 187 180 180 c 128,-1,10
 166 173 166 173 164 173 c 0,11,12
 158 173 158 173 156.5 178 c 0,13,14
 154.347826087 185.173913043 154.347826087 185.173913043 166.673913043 192.586956522 c 128,-1,15
 179 200 179 200 179 209 c 128,-1,16
 179 218 179 218 156.5 218 c 128,-1,17
 134 218 134 218 86 186.5 c 128,-1,18
 38 155 38 155 38 135 c 0,19,20
 38 120 38 120 73 120 c 0,21,22
 79 120 79 120 95 121 c 128,-1,23
 111 122 111 122 111 117 c 128,-1,24
 111 112 111 112 61.5 81 c 128,-1,25
 12 50 12 50 12 28 c 0,26,27
 12 3 12 3 44.5 3 c 128,-1,28
 77 3 77 3 118 20.5 c 0,29,30
 184.252115059 48.7783417936 184.252115059 48.7783417936 238.5 82.5 c 2,31,-1
 257 94 l 1,32,33
 258 92 258 92 258 86 c 128,-1,34
 258 80 258 80 249 76 c 1,35,36
 196 40 196 40 133 7.5 c 128,-1,37
 70 -25 70 -25 19.5 -25 c 128,-1,38
 -31 -25 -31 -25 -31 8.5 c 128,-1,39
 -31 42 -31 42 56 97 c 1,0,1
129 352 m 0,40,41
 144 352 144 352 144 337 c 128,-1,42
 144 322 144 322 130 306.5 c 128,-1,43
 116 291 116 291 99 291 c 0,44,45
 85 291 85 291 85 310.5 c 128,-1,46
 85 330 85 330 101 341 c 128,-1,47
 117 352 117 352 129 352 c 0,40,41
234 342 m 0,48,49
 249 342 249 342 249 327 c 128,-1,50
 249 312 249 312 235 296.5 c 128,-1,51
 221 281 221 281 204 281 c 0,52,53
 190 281 190 281 190 300.5 c 128,-1,54
 190 320 190 320 206 331 c 128,-1,55
 222 342 222 342 234 342 c 0,48,49
EndSplineSet
EndChar

StartChar: Idieresis
Encoding: 207 207 61
Width: 574
Flags: HMW
HStem: -55 33<-40.5 -8> 188 36<275 378.5> 705 54<604.5 632.5> 807 61<602.5 644>
VStem: -119 39 408 31<387.5 448.5> 548 30<128 150> 594 59<820 857.5> 660 41<582 666.5> 699 59<810 847.5>
LayerCount: 2
Fore
SplineSet
-119 1 m 1,0,1
 -119 53 -119 53 -39.5 106 c 128,-1,2
 40 159 40 159 156.5 191.5 c 128,-1,3
 273 224 273 224 381 224 c 0,4,5
 408 224 408 224 440 221 c 1,6,7
 660 427 660 427 660 646 c 0,8,9
 660 705 660 705 621 705 c 0,10,11
 597 705 597 705 566 680.5 c 128,-1,12
 535 656 535 656 506.5 616 c 128,-1,13
 478 576 478 576 458.5 517 c 128,-1,14
 439 458 439 458 439 392.5 c 0,15,16
 439 327 439 327 457 316 c 0,17,18
 462 313 462 313 462 309 c 1,19,20
 454 292 454 292 439.5 292 c 0,21,22
 425 292 425 292 416.5 300.5 c 128,-1,23
 408 309 408 309 408 325 c 0,24,25
 408 413 408 413 433.5 496.5 c 128,-1,26
 459 580 459 580 496 635.5 c 128,-1,27
 533 691 533 691 574 725 c 128,-1,28
 615 759 615 759 647 759 c 0,29,30
 701 759 701 759 701 674 c 0,31,32
 701 429 701 429 471 217 c 1,33,34
 578 198 578 198 578 142 c 0,35,36
 578 122 578 122 552.5 100.5 c 128,-1,37
 527 79 527 79 511.5 78 c 0,38,39
 496 77 496 77 495 81 c 0,40,41
 495 84 495 84 506 91 c 0,42,43
 548 117 548 117 548 135 c 0,44,45
 548 176 548 176 435 185 c 1,46,47
 310 79 310 79 165 12 c 128,-1,48
 20 -55 20 -55 -44 -55 c 0,49,50
 -76 -55 -76 -55 -94.5 -41 c 128,-1,51
 -113 -27 -113 -27 -116 -13 c 2,52,-1
 -119 1 l 1,0,1
374 188 m 0,53,54
 275 188 275 188 170.5 164 c 128,-1,55
 66 140 66 140 -6.5 99 c 128,-1,56
 -79 58 -79 58 -80 15 c 1,57,58
 -77 -22 -77 -22 -24 -22 c 0,59,60
 47 -22 47 -22 169 36 c 128,-1,61
 291 94 291 94 402 187 c 1,62,63
 392 188 392 188 374 188 c 0,53,54
638 868 m 0,64,65
 653 868 653 868 653 853 c 0,66,67
 653 838 653 838 639 822.5 c 128,-1,68
 625 807 625 807 608 807 c 0,69,70
 594 807 594 807 594 826.5 c 0,71,72
 594 846 594 846 610 857 c 128,-1,73
 626 868 626 868 638 868 c 0,64,65
743 858 m 0,74,75
 758 858 758 858 758 843 c 0,76,77
 758 828 758 828 744 812.5 c 128,-1,78
 730 797 730 797 713 797 c 0,79,80
 699 797 699 797 699 816.5 c 0,81,82
 699 836 699 836 715 847 c 128,-1,83
 731 858 731 858 743 858 c 0,74,75
EndSplineSet
EndChar

StartChar: Odieresis
Encoding: 214 214 62
Width: 434
Flags: HMW
HStem: -24 29<108 197.5> 173 34<238 260.5> 630 31<455.5 513> 630 74<389 513> 757 61<462.5 504>
VStem: 0 42<91 275 91 304.5> 165 37<255 345.5> 165 248<305 322 305 345.5> 454 59<770 807.5> 557 41<417 570.5> 557 61
LayerCount: 2
Fore
SplineSet
418 704 m 0,0,1
 423 704 423 704 425 698 c 1,2,3
 425 690 425 690 413 688 c 1,4,5
 357 669 357 669 293.5 619 c 128,-1,6
 230 569 230 569 173.5 498.5 c 128,-1,7
 117 428 117 428 79.5 332 c 128,-1,8
 42 236 42 236 42 138 c 0,9,10
 42 5 42 5 136 5 c 0,11,12
 191 5 191 5 264.5 53.5 c 128,-1,13
 338 102 338 102 402.5 175.5 c 128,-1,14
 467 249 467 249 512 348 c 128,-1,15
 557 447 557 447 557 538.5 c 128,-1,16
 557 630 557 630 494 630 c 0,17,18
 443 630 443 630 374 575.5 c 128,-1,19
 305 521 305 521 253.5 437.5 c 128,-1,20
 202 354 202 354 202 280.5 c 128,-1,21
 202 207 202 207 253 207 c 0,22,23
 285 207 285 207 325.5 237.5 c 128,-1,24
 366 268 366 268 398 319 c 0,25,26
 402 327 402 327 407.5 327 c 128,-1,27
 413 327 413 327 413 321 c 0,28,29
 413 293 413 293 343.5 233 c 128,-1,30
 274 173 274 173 224 173 c 0,31,32
 165 173 165 173 165 268 c 0,33,34
 165 342 165 342 227 436.5 c 128,-1,35
 289 531 289 531 373 596 c 128,-1,36
 457 661 457 661 518 661 c 0,37,38
 598 661 598 661 598 542 c 0,39,40
 598 452 598 452 546 348.5 c 128,-1,41
 494 245 494 245 419.5 164.5 c 128,-1,42
 345 84 345 84 260 30 c 128,-1,43
 175 -24 175 -24 111 -24 c 0,44,45
 0 -24 0 -24 0 134 c 0,46,47
 0 230 0 230 38 323.5 c 128,-1,48
 76 417 76 417 130.5 483 c 128,-1,49
 185 549 185 549 245.5 601 c 128,-1,50
 306 653 306 653 352.5 678.5 c 128,-1,51
 399 704 399 704 418 704 c 0,0,1
498 818 m 0,52,53
 513 818 513 818 513 803 c 128,-1,54
 513 788 513 788 499 772.5 c 128,-1,55
 485 757 485 757 468 757 c 0,56,57
 454 757 454 757 454 776.5 c 128,-1,58
 454 796 454 796 470 807 c 128,-1,59
 486 818 486 818 498 818 c 0,52,53
603 808 m 0,60,61
 618 808 618 808 618 793 c 128,-1,62
 618 778 618 778 604 762.5 c 128,-1,63
 590 747 590 747 573 747 c 0,64,65
 559 747 559 747 559 766.5 c 128,-1,66
 559 786 559 786 575 797 c 128,-1,67
 591 808 591 808 603 808 c 0,60,61
EndSplineSet
EndChar

StartChar: odieresis
Encoding: 246 246 63
Width: 207
Flags: HMW
HStem: -19 33<16.5 58> 201 26<107.5 131.5> 265 61<78.5 120>
VStem: -5 39<25.5 33> 34 95 70 59<278 315.5> 70 115<145 299> 170 64
LayerCount: 2
Fore
SplineSet
220 70 m 1,0,1
 189 51 189 51 148 51 c 2,2,-1
 136 51 l 1,3,4
 109 20 109 20 78.5 0.5 c 128,-1,5
 48 -19 48 -19 26 -19 c 0,6,7
 -5 -19 -5 -19 -5 21 c 128,-1,8
 -5 61 -5 61 38 114 c 1,9,10
 34 125 34 125 34 141 c 0,11,12
 34 176 34 176 64.5 201.5 c 128,-1,13
 95 227 95 227 124 227 c 0,14,15
 185 227 185 227 185 161 c 0,16,17
 185 117 185 117 147 65 c 1,18,-1
 159 65 l 2,19,20
 191 65 191 65 214 80 c 0,21,22
 217 83 217 83 222 83 c 128,-1,23
 227 83 227 83 227 79.5 c 128,-1,24
 227 76 227 76 220 70 c 1,0,1
124 185 m 0,25,26
 129 187 129 187 132 187 c 128,-1,27
 135 187 135 187 135 182.5 c 128,-1,28
 135 178 135 178 124 169.5 c 0,29,30
 83.9465648855 138.549618321 83.9465648855 138.549618321 64 114 c 1,31,32
 86 79 86 79 131 68 c 1,33,34
 170 114 170 114 170 154 c 0,35,36
 170 177 170 177 155 189 c 128,-1,37
 140 201 140 201 116.5 201 c 128,-1,38
 93 201 93 201 73 187.5 c 128,-1,39
 53 174 53 174 53 158.5 c 128,-1,40
 53 143 53 143 56 134 c 1,41,42
 87 166 87 166 124 185 c 0,25,26
50 92 m 1,43,44
 34 65 34 65 34 32 c 0,45,46
 34 14 34 14 50 14 c 0,47,48
 77 14 77 14 117 54 c 1,49,50
 72 62 72 62 50 92 c 1,43,44
114 326 m 0,51,52
 129 326 129 326 129 311 c 128,-1,53
 129 296 129 296 115 280.5 c 128,-1,54
 101 265 101 265 84 265 c 0,55,56
 70 265 70 265 70 284.5 c 128,-1,57
 70 304 70 304 86 315 c 128,-1,58
 102 326 102 326 114 326 c 0,51,52
219 316 m 0,59,60
 234 316 234 316 234 301 c 128,-1,61
 234 286 234 286 220 270.5 c 128,-1,62
 206 255 206 255 189 255 c 0,63,64
 175 255 175 255 175 274.5 c 128,-1,65
 175 294 175 294 191 305 c 128,-1,66
 207 316 207 316 219 316 c 0,59,60
EndSplineSet
EndChar

StartChar: Udieresis
Encoding: 220 220 64
Width: 500
Flags: HMW
HStem: -16 31<322.5 385> 7 27<105 138> 323 42<-148 -67.5 -148 -65> 628 67 679 20G<474.5 485>
VStem: -227 30<398 441.5> 43 47<60.5 124> 310 43<583 625.5> 435 59<651 688.5> 540 59<641 678.5>
LayerCount: 2
Fore
SplineSet
362 15 m 1,0,1
 382 15 382 15 424 34.5 c 128,-1,2
 466 54 466 54 498 74 c 2,3,-1
 530 94 l 1,4,5
 531 92 531 92 531 86 c 128,-1,6
 531 80 531 80 522 76 c 1,7,8
 387 -16 387 -16 334 -16 c 0,9,10
 299 -16 299 -16 299 28 c 0,11,12
 299 107 299 107 400 254 c 1,13,14
 361.96460177 207.814159292 361.96460177 207.814159292 293.482300885 141.407079646 c 0,15,16
 154.875 7 154.875 7 93 7 c 0,17,18
 69 7 69 7 56 23.5 c 128,-1,19
 43 40 43 40 43 60 c 0,20,21
 43 103 43 103 84.5 181.5 c 128,-1,22
 126 260 126 260 176.5 332.5 c 128,-1,23
 227 405 227 405 268.5 481 c 128,-1,24
 310 557 310 557 310 597 c 128,-1,25
 310 637 310 637 278 659 c 128,-1,26
 246 681 246 681 191 681 c 128,-1,27
 136 681 136 681 62 651.5 c 128,-1,28
 -12 622 -12 622 -67.5 579.5 c 128,-1,29
 -123 537 -123 537 -160 491 c 128,-1,30
 -197 445 -197 445 -197 412 c 0,31,32
 -197 365 -197 365 -121 365 c 128,-1,33
 -45 365 -45 365 36 422 c 128,-1,34
 117 479 117 479 178 563 c 0,35,36
 183 571 183 571 188 571 c 2,37,-1
 189 571 l 1,38,39
 194 568 194 568 194 563 c 0,40,41
 194 539 194 539 142 482 c 128,-1,42
 90 425 90 425 10 374 c 128,-1,43
 -70 323 -70 323 -132 323 c 0,44,45
 -227 323 -227 323 -227 388 c 0,46,47
 -227 428 -227 428 -189.5 481 c 128,-1,48
 -152 534 -152 534 -93 581.5 c 128,-1,49
 -34 629 -34 629 48 662 c 128,-1,50
 130 695 130 695 199.5 695 c 128,-1,51
 269 695 269 695 311 669.5 c 128,-1,52
 353 644 353 644 353 583 c 0,53,54
 353 521.112244898 353 521.112244898 221 328.5 c 0,55,56
 172 257 172 257 131 181 c 128,-1,57
 90 105 90 105 90 69.5 c 128,-1,58
 90 34 90 34 116 34 c 0,59,60
 139 34 139 34 180 63.5 c 128,-1,61
 221 93 221 93 263.5 134.5 c 0,62,63
 349.575949367 218.550632911 349.575949367 218.550632911 408.5 289.5 c 2,64,-1
 433 319 l 1,65,-1
 522 441 l 2,66,67
 529 452 529 452 542 452 c 2,68,-1
 559 451 l 2,69,70
 565 451 565 451 565 447 c 128,-1,71
 565 443 565 443 455.5 272.5 c 128,-1,72
 346 102 346 102 346 39 c 0,73,74
 346 28 346 28 350 22 c 128,-1,75
 354 16 354 16 362 15 c 1,0,1
584 689 m 0,76,77
 599 689 599 689 599 674 c 128,-1,78
 599 659 599 659 585 643.5 c 128,-1,79
 571 628 571 628 554 628 c 0,80,81
 540 628 540 628 540 647.5 c 128,-1,82
 540 667 540 667 556 678 c 128,-1,83
 572 689 572 689 584 689 c 0,76,77
479 699 m 0,84,85
 494 699 494 699 494 684 c 128,-1,86
 494 669 494 669 480 653.5 c 128,-1,87
 466 638 466 638 449 638 c 0,88,89
 435 638 435 638 435 657.5 c 128,-1,90
 435 677 435 677 451 688 c 128,-1,91
 467 699 467 699 479 699 c 0,84,85
EndSplineSet
EndChar

StartChar: udieresis
Encoding: 252 252 65
Width: 318
Flags: HMW
HStem: -16 31<175 177.5> -6 21G 246 61<256.5 298> 297 20G<182.5 193>
VStem: 143 59<269 306.5> 248 59<259 296.5>
LayerCount: 2
Fore
SplineSet
125 10 m 0,0,1
 125 21.1428571429 125 21.1428571429 141.5 47.0714285714 c 128,-1,2
 158 73 158 73 163.5 80 c 128,-1,3
 169 87 169 87 180 102 c 1,4,5
 61 -6 61 -6 16 -6 c 0,6,7
 -9 -6 -9 -6 -9 15 c 0,8,9
 -9 45 -9 45 92 184 c 0,10,11
 97 192 97 192 105 192 c 1,12,13
 128 185 128 185 128 182 c 128,-1,14
 128 179 128 179 122 170 c 0,15,16
 36 54 36 54 36 39.5 c 128,-1,17
 36 25 36 25 46 25 c 0,18,19
 74 25 74 25 145.5 89.5 c 128,-1,20
 217 154 217 154 249 196 c 1,21,22
 253 203 253 203 262 203 c 1,23,24
 282 199 282 199 282 195 c 1,25,26
 271 179 271 179 252 153 c 128,-1,27
 233 127 233 127 221 110.5 c 128,-1,28
 209 94 209 94 195.5 75 c 0,29,30
 171.325581395 40.976744186 171.325581395 40.976744186 166 25 c 1,31,32
 166 15 166 15 182.5 15 c 128,-1,33
 199 15 199 15 241 34.5 c 128,-1,34
 283 54 283 54 315 74 c 2,35,-1
 347 94 l 1,36,37
 348 92 348 92 348 86 c 128,-1,38
 348 80 348 80 339 76 c 1,39,40
 204 -16 204 -16 151 -16 c 0,41,42
 125 -16 125 -16 125 10 c 0,0,1
292 307 m 0,43,44
 307 307 307 307 307 292 c 128,-1,45
 307 277 307 277 293 261.5 c 128,-1,46
 279 246 279 246 262 246 c 0,47,48
 248 246 248 246 248 265.5 c 128,-1,49
 248 285 248 285 264 296 c 128,-1,50
 280 307 280 307 292 307 c 0,43,44
187 317 m 0,51,52
 202 317 202 317 202 302 c 128,-1,53
 202 287 202 287 188 271.5 c 128,-1,54
 174 256 174 256 157 256 c 0,55,56
 143 256 143 256 143 275.5 c 128,-1,57
 143 295 143 295 159 306 c 128,-1,58
 175 317 175 317 187 317 c 0,51,52
EndSplineSet
EndChar

StartChar: Ydieresis
Encoding: 376 376 66
Width: 465
Flags: HMW
HStem: -442 45<-22 -4> -44 28<398 420> 35 24<125.5 182> 345 44<-135 -65.5 -135 -56> 639 61<472.5 514> 703 20<109 239.5>
VStem: -212 38<421 464> -67 35<-382.5 -370> 61 38<88.5 162.5 88.5 175> 315 42<523.5 620 523.5 632.5> 464 59<652 689.5> 569 59<642 679.5>
LayerCount: 2
Fore
SplineSet
357 620 m 1,0,1
 357 567 357 567 330.5 505 c 128,-1,2
 304 443 304 443 266 388.5 c 128,-1,3
 228 334 228 334 190 282.5 c 0,4,5
 99 159.171052632 99 159.171052632 99 100 c 0,6,7
 99 82 99 82 109.5 70.5 c 128,-1,8
 120 59 120 59 139 59 c 0,9,10
 234 59 234 59 471 318 c 0,11,12
 505.86407767 354.699029126 505.86407767 354.699029126 524.5 383.5 c 2,13,-1
 530 392 l 2,14,15
 537 403 537 403 544 403 c 0,16,17
 568 400 568 400 568 388 c 0,18,19
 568 383.5 568 383.5 565 379 c 2,20,-1
 519 305 l 2,21,22
 512 294 512 294 435 168 c 128,-1,23
 358 42 358 42 313 -29 c 1,24,25
 367 -16 367 -16 422 -16 c 128,-1,26
 477 -16 477 -16 479 -47 c 1,27,28
 479 -64 479 -64 465 -75 c 0,29,30
 442.090909091 -93 442.090909091 -93 429.045454545 -93 c 128,-1,31
 416 -93 416 -93 416 -89.5 c 0,32,33
 416 -87 416 -87 424 -83 c 128,-1,34
 432 -79 432 -79 435.5 -76.5 c 128,-1,35
 439 -74 439 -74 443 -71 c 0,36,37
 452 -64.25 452 -64.25 452 -58 c 0,38,39
 452 -44 452 -44 402 -44 c 128,-1,40
 352 -44 352 -44 293 -60 c 1,41,42
 49 -442 49 -442 -41 -442 c 0,43,44
 -67 -442 -67 -442 -67 -410 c 0,45,46
 -67 -339 -67 -339 30.5 -218.5 c 128,-1,47
 128 -98 128 -98 264 -45 c 1,48,49
 302 19 302 19 364.5 128.5 c 128,-1,50
 427 238 427 238 444 266 c 1,51,52
 372.128342246 185.144385027 372.128342246 185.144385027 286.5 115.5 c 0,53,54
 249 85 249 85 202.5 60 c 128,-1,55
 156 35 156 35 122 35 c 0,56,57
 109 35 109 35 97.5 38 c 128,-1,58
 86 41 86 41 73.5 55.5 c 128,-1,59
 61 70 61 70 61 104.5 c 128,-1,60
 61 139 61 139 87 193.5 c 128,-1,61
 113 248 113 248 150.5 299.5 c 128,-1,62
 188 351 188 351 225.5 401.5 c 0,63,64
 315 522.026666667 315 522.026666667 315 594 c 0,65,66
 315 651 315 651 287.5 677 c 128,-1,67
 260 703 260 703 196 703 c 128,-1,68
 132 703 132 703 61.5 673.5 c 128,-1,69
 -9 644 -9 644 -59.5 601.5 c 128,-1,70
 -110 559 -110 559 -142 513.5 c 128,-1,71
 -174 468 -174 468 -174 435 c 0,72,73
 -174 389 -174 389 -114 389 c 0,74,75
 33 389 33 389 170 573 c 1,76,77
 175 583 175 583 179.5 583 c 128,-1,78
 184 583 184 583 184 571 c 128,-1,79
 184 559 184 559 154.5 522 c 128,-1,80
 125 485 125 485 82 445 c 128,-1,81
 39 405 39 405 -19 375 c 128,-1,82
 -77 345 -77 345 -126 345 c 0,83,84
 -212 345 -212 345 -212 410 c 0,85,86
 -212 451 -212 451 -176 504.5 c 128,-1,87
 -140 558 -140 558 -82 607 c 128,-1,88
 -24 656 -24 656 59.5 689.5 c 128,-1,89
 143 723 143 723 228 723 c 0,90,91
 264 723 264 723 290.5 712.5 c 128,-1,92
 317 702 317 702 329.5 687 c 0,93,94
 353.344086022 658.387096774 353.344086022 658.387096774 356 630.5 c 2,95,-1
 357 620 l 1,0,1
-32 -376 m 0,96,97
 -32 -397 -32 -397 -17 -397 c 0,98,99
 52 -397 52 -397 245 -77 c 1,100,101
 126 -125 126 -125 47 -223 c 128,-1,102
 -32 -321 -32 -321 -32 -376 c 0,96,97
508 700 m 0,103,104
 523 700 523 700 523 685 c 128,-1,105
 523 670 523 670 509 654.5 c 128,-1,106
 495 639 495 639 478 639 c 0,107,108
 464 639 464 639 464 658.5 c 128,-1,109
 464 678 464 678 480 689 c 128,-1,110
 496 700 496 700 508 700 c 0,103,104
613 690 m 0,111,112
 628 690 628 690 628 675 c 128,-1,113
 628 660 628 660 614 644.5 c 128,-1,114
 600 629 600 629 583 629 c 0,115,116
 569 629 569 629 569 648.5 c 128,-1,117
 569 668 569 668 585 679 c 128,-1,118
 601 690 601 690 613 690 c 0,111,112
EndSplineSet
EndChar

StartChar: ydieresis
Encoding: 255 255 67
Width: 249
Flags: HMW
HStem: -414 29<-183.5 -159> -6 31<-6 45> 244 61<125.5 167>
VStem: -228 34<-370.5 -344.5> 133 34<-102.5 -101> 222 59<247 284.5>
LayerCount: 2
Fore
SplineSet
232.5 151.5 m 128,-1,1
 210 117 210 117 197.5 99 c 128,-1,2
 185 81 185 81 93 -69 c 1,3,4
 101 -68 101 -68 119 -68 c 0,5,6
 167 -68 167 -68 167 -93 c 0,7,8
 167 -107 167 -107 149 -126 c 128,-1,9
 131 -145 131 -145 121 -145 c 128,-1,10
 111 -145 111 -145 111 -138 c 0,11,12
 111 -134 111 -134 122 -125.5 c 128,-1,13
 133 -117 133 -117 133 -105.5 c 128,-1,14
 133 -94 133 -94 113.5 -94 c 128,-1,15
 94 -94 94 -94 76 -97 c 1,16,17
 -15 -246 -15 -246 -81 -330 c 128,-1,18
 -147 -414 -147 -414 -194 -414 c 0,19,20
 -228 -414 -228 -414 -228 -379 c 0,21,22
 -228 -319 -228 -319 -137.5 -212.5 c 128,-1,23
 -47 -106 -47 -106 59 -76 c 1,24,-1
 155 90 l 1,25,26
 113.090225564 51.5827067669 113.090225564 51.5827067669 68.545112782 22.7913533835 c 128,-1,27
 24 -6 24 -6 1 -6 c 128,-1,28
 -22 -6 -22 -6 -22 15 c 0,29,30
 -22 47 -22 47 83 192 c 0,31,32
 88 200 88 200 96 200 c 1,33,34
 119 193 119 193 119 190 c 128,-1,35
 119 187 119 187 113 178 c 0,36,37
 23 56 23 56 23 37 c 0,38,39
 23 25 23 25 36.5 25 c 128,-1,40
 50 25 50 25 92.5 57 c 128,-1,41
 135 89 135 89 165 122 c 1,42,-1
 221 190 l 2,43,44
 227 197 227 197 236 197 c 1,45,46
 255 194 255 194 255 187 c 0,47,0
 255 186 255 186 232.5 151.5 c 128,-1,1
-177 -308.5 m 128,-1,49
 -194 -344 -194 -344 -194 -364.5 c 128,-1,50
 -194 -385 -194 -385 -178 -385 c 0,51,52
 -128 -385 -128 -385 41 -105 c 1,53,54
 -9 -121 -9 -121 -55.5 -157.5 c 128,-1,55
 -102 -194 -102 -194 -131 -233.5 c 128,-1,48
 -160 -273 -160 -273 -177 -308.5 c 128,-1,49
161 305 m 0,56,57
 176 305 176 305 176 290 c 128,-1,58
 176 275 176 275 162 259.5 c 128,-1,59
 148 244 148 244 131 244 c 0,60,61
 117 244 117 244 117 263.5 c 128,-1,62
 117 283 117 283 133 294 c 128,-1,63
 149 305 149 305 161 305 c 0,56,57
266 295 m 0,64,65
 281 295 281 295 281 280 c 128,-1,66
 281 265 281 265 267 249.5 c 128,-1,67
 253 234 253 234 236 234 c 0,68,69
 222 234 222 234 222 253.5 c 128,-1,70
 222 273 222 273 238 284 c 128,-1,71
 254 295 254 295 266 295 c 0,64,65
EndSplineSet
EndChar

StartChar: tilde
Encoding: 732 732 68
Width: 377
Flags: HMW
HStem: 207 60<171 282> 244 23<171 187.5>
LayerCount: 2
Fore
SplineSet
320 244 m 0,0,1
 320 229 320 229 304.5 218 c 128,-1,2
 289 207 289 207 270 207 c 0,3,4
 251 207 251 207 219 225.5 c 128,-1,5
 187 244 187 244 174.5 244 c 0,6,7
 162 244 162 244 149 234.5 c 128,-1,8
 136 225 136 225 131 225 c 1,9,-1
 129 226 l 1,10,11
 129 233 129 233 147.5 250 c 128,-1,12
 166 267 166 267 185 267 c 0,13,14
 204 267 204 267 238 246.5 c 128,-1,15
 272 226 272 226 284.5 226 c 0,16,17
 297 226 297 226 307 236.5 c 128,-1,18
 317 247 317 247 318.5 247 c 0,19,20
 320 247 320 247 320 244 c 0,0,1
EndSplineSet
EndChar

StartChar: ntilde
Encoding: 241 241 69
Width: 357
Flags: HMW
HStem: -22 21G<24 31.5> -16 31<210 216.5> -16 224<122 216.5> 189 60<164 275> 226 23<164 180.5>
VStem: 20 175<-12 36> 159 36<20.5 23.5>
LayerCount: 2
Fore
SplineSet
0 76 m 0,0,1
 19 87 19 87 49.5 111 c 0,2,3
 125.75 171 125.75 171 131 171 c 0,4,5
 146 171 146 171 146 158 c 128,-1,6
 146 145 146 145 130.5 118 c 128,-1,7
 115 91 115 91 95.5 62 c 128,-1,8
 76 33 76 33 73 27 c 1,9,10
 74 26 74 26 77.5 26 c 128,-1,11
 81 26 81 26 117 52.5 c 128,-1,12
 153 79 153 79 192 108.5 c 128,-1,13
 231 138 231 138 238 142.5 c 128,-1,14
 245 147 245 147 251 147 c 0,15,16
 263 146 263 146 263 133 c 0,17,18
 263 128 263 128 229 82.5 c 128,-1,19
 195 37 195 37 195 24 c 0,20,21
 195 15 195 15 216.5 15 c 128,-1,22
 238 15 238 15 280 34.5 c 128,-1,23
 322 54 322 54 354 74 c 2,24,-1
 386 94 l 1,25,26
 387 92 387 92 387 86 c 128,-1,27
 387 80 387 80 378 76 c 1,28,29
 243 -16 243 -16 190 -16 c 0,30,31
 159 -16 159 -16 159 8 c 0,32,33
 159 30.5714285714 159 30.5714285714 172.5 51.7857142857 c 128,-1,34
 186 73 186 73 196 87.5 c 128,-1,35
 206 102 206 102 206 103 c 1,36,37
 160 70 160 70 97 24 c 128,-1,38
 34 -22 34 -22 26 -22 c 0,39,40
 20 -22 20 -22 20 -8 c 128,-1,41
 20 6 20 6 59.5 65 c 128,-1,42
 99 124 99 124 99 128 c 128,-1,43
 99 132 99 132 97 132 c 2,44,-1
 87 127 l 1,45,-1
 37 87 l 2,46,47
 32 83 32 83 18 74 c 128,-1,48
 4 65 4 65 0.5 65 c 128,-1,49
 -3 65 -3 65 -3 69.5 c 128,-1,50
 -3 74 -3 74 0 76 c 0,0,1
313 226 m 0,51,52
 313 211 313 211 297.5 200 c 128,-1,53
 282 189 282 189 263 189 c 128,-1,54
 244 189 244 189 212 207.5 c 128,-1,55
 180 226 180 226 167.5 226 c 128,-1,56
 155 226 155 226 142 216.5 c 128,-1,57
 129 207 129 207 124 207 c 1,58,-1
 122 208 l 1,59,60
 122 215 122 215 140.5 232 c 128,-1,61
 159 249 159 249 178 249 c 128,-1,62
 197 249 197 249 231 228.5 c 128,-1,63
 265 208 265 208 277.5 208 c 128,-1,64
 290 208 290 208 300 218.5 c 128,-1,65
 310 229 310 229 311.5 229 c 128,-1,66
 313 229 313 229 313 226 c 0,51,52
EndSplineSet
EndChar

StartChar: otilde
Encoding: 245 245 70
Width: 207
Flags: HMW
HStem: -19 33<16.5 58> 14 187<45 131.5> 201 26<107.5 131.5> 227 44<74 144> 289 23<116 132.5>
VStem: -5 39<25.5 33> 34 151<25.5 184.5 145 165>
LayerCount: 2
Fore
SplineSet
220 70 m 1,0,1
 227 76 227 76 227 79.5 c 128,-1,2
 227 83 227 83 222 83 c 128,-1,3
 217 83 217 83 214 80 c 0,4,5
 191 65 191 65 159 65 c 2,6,-1
 147 65 l 1,7,8
 185 117 185 117 185 155.5 c 128,-1,9
 185 194 185 194 169 210.5 c 128,-1,10
 153 227 153 227 124 227 c 128,-1,11
 95 227 95 227 64.5 201.5 c 128,-1,12
 34 176 34 176 34 141 c 0,13,14
 34 125 34 125 38 114 c 1,15,16
 -5 61 -5 61 -5 21 c 128,-1,17
 -5 -19 -5 -19 26 -19 c 0,18,19
 48 -19 48 -19 78.5 0.5 c 128,-1,20
 109 20 109 20 136 51 c 1,21,-1
 148 51 l 2,22,23
 189 51 189 51 220 70 c 1,0,1
124 185 m 1,24,25
 87 166 87 166 56 134 c 1,26,27
 53 143 53 143 53 158.5 c 128,-1,28
 53 174 53 174 73 187.5 c 128,-1,29
 93 201 93 201 116.5 201 c 128,-1,30
 140 201 140 201 155 189 c 128,-1,31
 170 177 170 177 170 154 c 0,32,33
 170 114 170 114 131 68 c 1,34,35
 86 79 86 79 64 114 c 1,36,37
 83.9465648855 138.549618321 83.9465648855 138.549618321 109.473282443 158.27480916 c 128,-1,38
 135 178 135 178 135 182.5 c 128,-1,39
 135 187 135 187 132 187 c 2,40,-1
 124 185 l 1,24,25
50 92 m 1,41,42
 72 62 72 62 117 54 c 1,43,44
 77 14 77 14 50 14 c 0,45,46
 34 14 34 14 34 32 c 0,47,48
 34 65 34 65 50 92 c 1,41,42
265 289 m 0,49,50
 265 274 265 274 249.5 263 c 128,-1,51
 234 252 234 252 215 252 c 128,-1,52
 196 252 196 252 164 270.5 c 128,-1,53
 132 289 132 289 119.5 289 c 128,-1,54
 107 289 107 289 94 279.5 c 128,-1,55
 81 270 81 270 76 270 c 1,56,-1
 74 271 l 1,57,58
 74 278 74 278 92.5 295 c 128,-1,59
 111 312 111 312 130 312 c 128,-1,60
 149 312 149 312 183 291.5 c 128,-1,61
 217 271 217 271 229.5 271 c 128,-1,62
 242 271 242 271 252 281.5 c 128,-1,63
 262 292 262 292 263.5 292 c 128,-1,64
 265 292 265 292 265 289 c 0,49,50
EndSplineSet
EndChar

StartChar: atilde
Encoding: 227 227 71
Width: 303
Flags: HMW
HStem: -16 42 -8 21G<3.5 32> 26 151<47 193> 177 22<170 193> 199 62 240 20G<99 104> 279 23<139 155.5>
VStem: -16 50<37 59> -16 167<21 36.5 21 59>
LayerCount: 2
Fore
SplineSet
189 119 m 0,0,1
 197 119 197 119 217 137 c 128,-1,2
 237 155 237 155 237 171 c 0,3,4
 237 199 237 199 204 199 c 0,5,6
 148 199 148 199 66 137.5 c 128,-1,7
 -16 76 -16 76 -16 17 c 0,8,9
 -16 -8 -16 -8 11 -8 c 128,-1,10
 38 -8 38 -8 72.5 8.5 c 128,-1,11
 107 25 107 25 114 33 c 1,12,13
 110 21 110 21 110 10 c 0,14,15
 110 -16 110 -16 135 -16 c 128,-1,16
 160 -16 160 -16 207 7 c 128,-1,17
 254 30 254 30 289 53 c 2,18,-1
 324 76 l 1,19,20
 333 80 333 80 333 89 c 1,21,-1
 332 94 l 1,22,23
 210 15 210 15 164 15 c 0,24,25
 151 15 151 15 151 25 c 0,26,27
 151 38 151 38 166.5 60 c 128,-1,28
 182 82 182 82 182 86 c 0,29,30
 182 95 182 95 172 96 c 0,31,32
 170 96 170 96 150.5 78.5 c 0,33,34
 92 26 92 26 54 26 c 0,35,36
 34 26 34 26 34 42 c 0,37,38
 34 80 34 80 93.5 128.5 c 128,-1,39
 153 177 153 177 188 177 c 0,40,41
 204 177 204 177 204 162 c 0,42,43
 204 150 204 150 186 133 c 0,44,45
 183 130 183 130 183 126 c 0,46,47
 183 119 183 119 189 119 c 0,0,1
288 279 m 0,48,49
 288 264 288 264 272.5 253 c 128,-1,50
 257 242 257 242 238 242 c 128,-1,51
 219 242 219 242 187 260.5 c 128,-1,52
 155 279 155 279 142.5 279 c 128,-1,53
 130 279 130 279 117 269.5 c 128,-1,54
 104 260 104 260 99 260 c 1,55,-1
 97 261 l 1,56,57
 97 268 97 268 115.5 285 c 128,-1,58
 134 302 134 302 153 302 c 128,-1,59
 172 302 172 302 206 281.5 c 128,-1,60
 240 261 240 261 252.5 261 c 128,-1,61
 265 261 265 261 275 271.5 c 128,-1,62
 285 282 285 282 286.5 282 c 128,-1,63
 288 282 288 282 288 279 c 0,48,49
EndSplineSet
EndChar

StartChar: Atilde
Encoding: 195 195 72
Width: 515
Flags: HMW
HStem: -68 21G<-51.5 -41> -4 21G<345.5 358> 739 20G<693.5 724> 796 23<613 629.5>
VStem: 13 30<331.5 366.5> 622 37<646 673.5>
LayerCount: 2
Fore
SplineSet
-41 -68 m 1,0,1
 76 36 76 36 173 155 c 1,2,-1
 173 156 l 1,3,4
 242 127 242 127 321 121 c 1,5,6
 331 67 331 67 335 36 c 1,7,8
 335 -4 335 -4 356 -4 c 0,9,10
 364 -4 364 -4 368 4 c 0,11,12
 383 40 383 40 422 121 c 1,13,14
 578 134 578 134 578 168 c 0,15,16
 578 172 578 172 574.5 176 c 128,-1,17
 571 180 571 180 567.5 180 c 128,-1,18
 564 180 564 180 563 177.5 c 0,19,20
 560 170 560 170 552 166 c 0,21,22
 507 144 507 144 430 139 c 1,23,24
 442 164 442 164 473 227.5 c 128,-1,25
 504 291 504 291 519 323.5 c 128,-1,26
 534 356 534 356 560.5 411.5 c 128,-1,27
 587 467 587 467 600.5 500.5 c 128,-1,28
 614 534 614 534 629.5 573.5 c 0,29,30
 659 648.677419355 659 648.677419355 659 680.838709677 c 128,-1,31
 659 713 659 713 629 714 c 1,32,33
 589.913978495 714 589.913978495 714 514.5 629.5 c 0,34,35
 455.111641791 562.95641791 455.111641791 562.95641791 374.555820896 459.478208955 c 128,-1,36
 294 356 294 356 266 321 c 1,37,38
 202 426 202 426 111 426 c 0,39,40
 63 426 63 426 38 403 c 128,-1,41
 13 380 13 380 13 339.5 c 128,-1,42
 13 299 13 299 47 251.5 c 128,-1,43
 81 204 81 204 143 170 c 1,44,45
 18 27 18 27 -73 -40 c 0,46,47
 -75 -42 -75 -42 -75 -45 c 128,-1,48
 -75 -48 -75 -48 -72 -53 c 0,49,50
 -64 -68 -64 -68 -41 -68 c 1,0,1
393 138 m 1,51,52
 361 138 361 138 337 142 c 1,53,54
 312 237 312 237 281 295 c 1,55,56
 300 320 300 320 339 372.5 c 128,-1,57
 378 425 378 425 399.5 453 c 128,-1,58
 421 481 421 481 454 523.5 c 128,-1,59
 487 566 487 566 507 590 c 128,-1,60
 527 614 527 614 549.5 639 c 0,61,62
 591.8 686 591.8 686 610 686 c 0,63,64
 622 686 622 686 622 669 c 0,65,66
 622 614 622 614 393 138 c 1,51,52
255 306 m 1,67,68
 197 234 197 234 167 199 c 1,69,70
 110 232 110 232 76.5 275.5 c 128,-1,71
 43 319 43 319 43 348.5 c 0,72,73
 43 408 43 408 119.5 408 c 128,-1,74
 196 408 196 408 255 306 c 1,67,68
269 279 m 1,75,76
 294 229 294 229 315 145 c 1,77,78
 254 155 254 155 195 183 c 1,79,80
 237 236 237 236 269 279 c 1,75,76
762 796 m 0,81,82
 762 781 762 781 746.5 770 c 128,-1,83
 731 759 731 759 712 759 c 128,-1,84
 693 759 693 759 661 777.5 c 128,-1,85
 629 796 629 796 616.5 796 c 128,-1,86
 604 796 604 796 591 786.5 c 128,-1,87
 578 777 578 777 573 777 c 1,88,-1
 571 778 l 1,89,90
 571 785 571 785 589.5 802 c 128,-1,91
 608 819 608 819 627 819 c 128,-1,92
 646 819 646 819 680 798.5 c 128,-1,93
 714 778 714 778 726.5 778 c 128,-1,94
 739 778 739 778 749 788.5 c 128,-1,95
 759 799 759 799 760.5 799 c 128,-1,96
 762 799 762 799 762 796 c 0,81,82
384 119 m 1,97,-1
 354 56 l 1,98,99
 351 82 351 82 342 119 c 1,100,-1
 384 119 l 1,97,-1
EndSplineSet
EndChar

StartChar: Ntilde
Encoding: 209 209 73
Width: 521
Flags: HMW
HStem: -16 31<377 379.5> 352 37<-43 49 -43 60.5> 742 23<495 511.5>
VStem: -140 38<427 479.5> 359 42<534 647>
LayerCount: 2
Fore
SplineSet
368 25 m 0,0,1
 368 54 368 54 607 519 c 0,2,3
 610 525 610 525 610 531 c 128,-1,4
 610 537 610 537 598.5 542.5 c 128,-1,5
 587 548 587 548 580 548 c 1,6,7
 543 511 543 511 355.5 298.5 c 128,-1,8
 168 86 168 86 164 84 c 1,9,10
 242.260869565 201.391304348 242.260869565 201.391304348 318.5 357.5 c 0,11,12
 350 422 350 422 375.5 497.5 c 128,-1,13
 401 573 401 573 401 623 c 0,14,15
 401 720 401 720 308 720 c 0,16,17
 229 720 229 720 145.5 689 c 128,-1,18
 62 658 62 658 0.5 613 c 128,-1,19
 -61 568 -61 568 -100.5 517 c 128,-1,20
 -140 466 -140 466 -140 426 c 0,21,22
 -140 352 -140 352 -13 352 c 0,23,24
 38 352 38 352 92 377 c 128,-1,25
 146 402 146 402 183 436 c 128,-1,26
 220 470 220 470 244 502.5 c 128,-1,27
 268 535 268 535 268 547.5 c 128,-1,28
 268 560 268 560 265 560 c 1,29,-1
 257 554 l 1,30,31
 225 494 225 494 148.5 441.5 c 128,-1,32
 72 389 72 389 -15 389 c 128,-1,33
 -102 389 -102 389 -102 443 c 0,34,35
 -102 488 -102 488 -43 549.5 c 128,-1,36
 16 611 16 611 109.5 658 c 128,-1,37
 203 705 203 705 287 705 c 0,38,39
 359 705 359 705 359 622 c 0,40,41
 359 572 359 572 333.5 495 c 128,-1,42
 308 418 308 418 272 343 c 0,43,44
 196.08988764 184.853932584 196.08988764 184.853932584 138.5 90 c 2,45,-1
 113 48 l 2,46,47
 105 36 105 36 105 27 c 128,-1,48
 105 18 105 18 116 18 c 1,49,-1
 138 24 l 1,50,51
 546 483 546 483 560 497 c 2,52,-1
 573 511 l 1,53,54
 327 64 327 64 327 10 c 0,55,56
 327 -16 327 -16 352 -16 c 128,-1,57
 377 -16 377 -16 424 7 c 128,-1,58
 471 30 471 30 506 53 c 2,59,-1
 541 76 l 1,60,61
 550 80 550 80 550 89 c 1,62,-1
 549 94 l 1,63,64
 427 15 427 15 381 15 c 0,65,66
 368 15 368 15 368 25 c 0,0,1
644 742 m 0,67,68
 644 727 644 727 628.5 716 c 128,-1,69
 613 705 613 705 594 705 c 128,-1,70
 575 705 575 705 543 723.5 c 128,-1,71
 511 742 511 742 498.5 742 c 128,-1,72
 486 742 486 742 473 732.5 c 128,-1,73
 460 723 460 723 455 723 c 1,74,-1
 453 724 l 1,75,76
 453 731 453 731 471.5 748 c 128,-1,77
 490 765 490 765 509 765 c 128,-1,78
 528 765 528 765 562 744.5 c 128,-1,79
 596 724 596 724 608.5 724 c 128,-1,80
 621 724 621 724 631 734.5 c 128,-1,81
 641 745 641 745 642.5 745 c 128,-1,82
 644 745 644 745 644 742 c 0,67,68
EndSplineSet
EndChar

StartChar: Otilde
Encoding: 213 213 74
Width: 434
Flags: HMW
HStem: -24 29<108 197.5> 5 168<207 210.5> 173 34<238 260.5> 630 31<455.5 513> 661 105<461 461 461 541.5> 784 23<503 519.5>
VStem: 0 42<91 275 91 304.5> 165 37<255 345.5> 165 248<305 322 305 345.5> 557 41<417 570.5>
LayerCount: 2
Fore
SplineSet
413 321 m 0,0,1
 413 327 413 327 407 327 c 0,2,3
 402 327 402 327 398 319 c 0,4,5
 366 268 366 268 325.5 237.5 c 128,-1,6
 285 207 285 207 253 207 c 0,7,8
 202 207 202 207 202 280.5 c 128,-1,9
 202 354 202 354 253.5 437.5 c 128,-1,10
 305 521 305 521 374 575.5 c 128,-1,11
 443 630 443 630 494 630 c 0,12,13
 557 630 557 630 557 538.5 c 128,-1,14
 557 447 557 447 512 348 c 128,-1,15
 467 249 467 249 402.5 175.5 c 128,-1,16
 338 102 338 102 264.5 53.5 c 128,-1,17
 191 5 191 5 136 5 c 0,18,19
 42 5 42 5 42 138 c 0,20,21
 42 236 42 236 79.5 332 c 128,-1,22
 117 428 117 428 173.5 498.5 c 128,-1,23
 230 569 230 569 293.5 619 c 128,-1,24
 357 669 357 669 413 688 c 1,25,26
 425 690 425 690 425 698 c 1,27,28
 424 704 424 704 411.5 704 c 128,-1,29
 399 704 399 704 352.5 678.5 c 128,-1,30
 306 653 306 653 245.5 601 c 128,-1,31
 185 549 185 549 130.5 483 c 128,-1,32
 76 417 76 417 38 323.5 c 128,-1,33
 0 230 0 230 0 134 c 0,34,35
 0 -24 0 -24 111 -24 c 0,36,37
 175 -24 175 -24 260 30 c 128,-1,38
 345 84 345 84 419.5 164.5 c 128,-1,39
 494 245 494 245 546 348.5 c 128,-1,40
 598 452 598 452 598 542 c 0,41,42
 598 661 598 661 518 661 c 0,43,44
 457 661 457 661 373 596 c 128,-1,45
 289 531 289 531 227 436.5 c 128,-1,46
 165 342 165 342 165 268 c 0,47,48
 165 173 165 173 224 173 c 0,49,50
 274 173 274 173 343.5 233 c 128,-1,51
 413 293 413 293 413 321 c 0,0,1
652 784 m 0,52,53
 652 769 652 769 636.5 758 c 128,-1,54
 621 747 621 747 602 747 c 128,-1,55
 583 747 583 747 551 765.5 c 128,-1,56
 519 784 519 784 506.5 784 c 128,-1,57
 494 784 494 784 481 774.5 c 128,-1,58
 468 765 468 765 463 765 c 1,59,-1
 461 766 l 1,60,61
 461 773 461 773 479.5 790 c 128,-1,62
 498 807 498 807 517 807 c 128,-1,63
 536 807 536 807 570 786.5 c 128,-1,64
 604 766 604 766 616.5 766 c 128,-1,65
 629 766 629 766 639 776.5 c 128,-1,66
 649 787 649 787 650.5 787 c 128,-1,67
 652 787 652 787 652 784 c 0,52,53
EndSplineSet
EndChar

StartChar: circumflex
Encoding: 710 710 75
Width: 392
Flags: HMW
HStem: 224 21G<276.5 283.5> 303 20G<239.5 250.5>
LayerCount: 2
Fore
SplineSet
233 289 m 1,0,1
 121.28125 234 121.28125 234 112.140625 234 c 128,-1,2
 103 234 103 234 103 238.5 c 128,-1,3
 103 243 103 243 170 283 c 128,-1,4
 237 323 237 323 245 323 c 0,5,6
 252.716981132 323 252.716981132 323 269.358490566 281 c 128,-1,7
 286 239 286 239 290 230 c 1,8,9
 287 224 287 224 282 224 c 0,10,11
 272.393939394 224 272.393939394 224 243 272.5 c 2,12,-1
 233 289 l 1,0,1
EndSplineSet
EndChar

StartChar: acircumflex
Encoding: 226 226 76
Width: 303
Flags: HMW
HStem: -16 21G<125.5 162.5> -8 23 177 22<170 193> 286 20G<235.5 246.5>
VStem: -16 50<37 59> 110 41<4 36.5>
LayerCount: 2
Fore
SplineSet
189 119 m 0,0,1
 183 119 183 119 183 126 c 1,2,-1
 186 133 l 1,3,4
 204 150 204 150 204 162 c 0,5,6
 204 177 204 177 188 177 c 0,7,8
 153 177 153 177 93.5 128.5 c 128,-1,9
 34 80 34 80 34 42 c 0,10,11
 34 26 34 26 55 26 c 128,-1,12
 76 26 76 26 103.5 43.5 c 128,-1,13
 131 61 131 61 150.5 78.5 c 128,-1,14
 170 96 170 96 172 96 c 0,15,16
 182 95 182 95 182 86 c 0,17,18
 182 82 182 82 166.5 60 c 128,-1,19
 151 38 151 38 151 25 c 0,20,21
 151 15 151 15 167.5 15 c 128,-1,22
 184 15 184 15 226 34.5 c 128,-1,23
 268 54 268 54 300 74 c 2,24,-1
 332 94 l 1,25,26
 333 92 333 92 333 86 c 128,-1,27
 333 80 333 80 324 76 c 1,28,29
 189 -16 189 -16 136 -16 c 0,30,31
 110 -16 110 -16 110 10 c 0,32,33
 110 21 110 21 114 33 c 1,34,35
 107 25 107 25 72.5 8.5 c 128,-1,36
 38 -8 38 -8 11 -8 c 128,-1,37
 -16 -8 -16 -8 -16 17 c 0,38,39
 -16 76 -16 76 66 137.5 c 128,-1,40
 148 199 148 199 204 199 c 0,41,42
 237 199 237 199 237 171 c 0,43,44
 237 155 237 155 217 137 c 128,-1,45
 197 119 197 119 189 119 c 0,0,1
229 272 m 1,46,47
 117.28125 217 117.28125 217 108.140625 217 c 128,-1,48
 99 217 99 217 99 221.5 c 128,-1,49
 99 226 99 226 166 266 c 128,-1,50
 233 306 233 306 241 306 c 0,51,52
 248.716981132 306 248.716981132 306 265.358490566 264 c 128,-1,53
 282 222 282 222 286 213 c 1,54,55
 283 207 283 207 278 207 c 0,56,57
 269.625 207 269.625 207 239 256 c 2,58,-1
 229 272 l 1,46,47
EndSplineSet
EndChar

StartChar: ecircumflex
Encoding: 234 234 77
Width: 228
Flags: HMW
HStem: -25 28<1 57.5> 97 23<34.5 77> 218 21<156 163.5> 335 20G<196.5 207.5>
VStem: -31 43<-4 47> -4 42<130.5 143.5> -4 228<115.5 229>
LayerCount: 2
Fore
SplineSet
56 97 m 1,0,1
 -4 97 -4 97 -4 123 c 0,2,3
 -4 154 -4 154 67 196.5 c 128,-1,4
 138 239 138 239 195 239 c 0,5,6
 224 239 224 239 224 221 c 0,7,8
 224 211 224 211 209 199 c 128,-1,9
 194 187 194 187 180 180 c 128,-1,10
 166 173 166 173 164 173 c 0,11,12
 158 173 158 173 156.5 178 c 0,13,14
 154.347826087 185.173913043 154.347826087 185.173913043 166.673913043 192.586956522 c 128,-1,15
 179 200 179 200 179 209 c 128,-1,16
 179 218 179 218 156.5 218 c 128,-1,17
 134 218 134 218 86 186.5 c 128,-1,18
 38 155 38 155 38 135 c 0,19,20
 38 120 38 120 73 120 c 0,21,22
 79 120 79 120 95 121 c 128,-1,23
 111 122 111 122 111 117 c 128,-1,24
 111 112 111 112 61.5 81 c 128,-1,25
 12 50 12 50 12 28 c 0,26,27
 12 3 12 3 44.5 3 c 128,-1,28
 77 3 77 3 118 20.5 c 0,29,30
 184.252115059 48.7783417936 184.252115059 48.7783417936 238.5 82.5 c 2,31,-1
 257 94 l 1,32,33
 258 92 258 92 258 86 c 128,-1,34
 258 80 258 80 249 76 c 1,35,36
 196 40 196 40 133 7.5 c 128,-1,37
 70 -25 70 -25 19.5 -25 c 128,-1,38
 -31 -25 -31 -25 -31 8.5 c 128,-1,39
 -31 42 -31 42 56 97 c 1,0,1
190 321 m 1,40,41
 78.28125 266 78.28125 266 69.140625 266 c 128,-1,42
 60 266 60 266 60 270.5 c 128,-1,43
 60 275 60 275 127 315 c 128,-1,44
 194 355 194 355 202 355 c 0,45,46
 209.716981132 355 209.716981132 355 226.358490566 313 c 128,-1,47
 243 271 243 271 247 262 c 1,48,49
 244 256 244 256 239 256 c 0,50,51
 229.393939394 256 229.393939394 256 200 304.5 c 2,52,-1
 190 321 l 1,40,41
EndSplineSet
EndChar

StartChar: icircumflex
Encoding: 238 238 78
Width: 183
Flags: HMW
HStem: -16 31<5.5 67> 277 20G<155.5 166.5>
LayerCount: 2
Fore
SplineSet
85 173 m 1,0,1
 90 181 90 181 99 181 c 128,-1,2
 108 181 108 181 117 172 c 1,3,4
 117 168 117 168 104 154 c 128,-1,5
 91 140 91 140 60 91.5 c 128,-1,6
 29 43 29 43 29 27 c 0,7,8
 29 16.875 29 16.875 44 15 c 1,9,10
 64 15 64 15 106 34.5 c 128,-1,11
 148 54 148 54 180 74 c 2,12,-1
 212 94 l 1,13,14
 213 92 213 92 213 86 c 128,-1,15
 213 80 213 80 204 76 c 1,16,17
 69 -16 69 -16 16 -16 c 0,18,19
 -10 -16 -10 -16 -10 10 c 128,-1,20
 -10 36 -10 36 18.5 82.5 c 128,-1,21
 47 129 47 129 85 173 c 1,0,1
149 263 m 1,22,23
 37.28125 208 37.28125 208 28.140625 208 c 128,-1,24
 19 208 19 208 19 212.5 c 128,-1,25
 19 217 19 217 86 257 c 128,-1,26
 153 297 153 297 161 297 c 0,27,28
 168.716981132 297 168.716981132 297 185.358490566 255 c 128,-1,29
 202 213 202 213 206 204 c 1,30,31
 203 198 203 198 198 198 c 0,32,33
 188.393939394 198 188.393939394 198 159 246.5 c 2,34,-1
 149 263 l 1,22,23
EndSplineSet
EndChar

StartChar: ocircumflex
Encoding: 244 244 79
Width: 207
Flags: HMW
HStem: -19 33<16.5 58> 201 26<107.5 131.5> 306 20G<177.5 188.5>
VStem: -5 39<25.5 33> 34 151<25.5 184.5 145 165>
LayerCount: 2
Fore
SplineSet
220 70 m 1,0,1
 189 51 189 51 148 51 c 2,2,-1
 136 51 l 1,3,4
 109 20 109 20 78.5 0.5 c 128,-1,5
 48 -19 48 -19 26 -19 c 0,6,7
 -5 -19 -5 -19 -5 21 c 128,-1,8
 -5 61 -5 61 38 114 c 1,9,10
 34 125 34 125 34 141 c 0,11,12
 34 176 34 176 64.5 201.5 c 128,-1,13
 95 227 95 227 124 227 c 0,14,15
 185 227 185 227 185 161 c 0,16,17
 185 117 185 117 147 65 c 1,18,-1
 159 65 l 2,19,20
 191 65 191 65 214 80 c 0,21,22
 217 83 217 83 222 83 c 128,-1,23
 227 83 227 83 227 79.5 c 128,-1,24
 227 76 227 76 220 70 c 1,0,1
124 185 m 0,25,26
 129 187 129 187 132 187 c 128,-1,27
 135 187 135 187 135 182.5 c 128,-1,28
 135 178 135 178 124 169.5 c 0,29,30
 83.9465648855 138.549618321 83.9465648855 138.549618321 64 114 c 1,31,32
 86 79 86 79 131 68 c 1,33,34
 170 114 170 114 170 154 c 0,35,36
 170 177 170 177 155 189 c 128,-1,37
 140 201 140 201 116.5 201 c 128,-1,38
 93 201 93 201 73 187.5 c 128,-1,39
 53 174 53 174 53 158.5 c 128,-1,40
 53 143 53 143 56 134 c 1,41,42
 87 166 87 166 124 185 c 0,25,26
50 92 m 1,43,44
 34 65 34 65 34 32 c 0,45,46
 34 14 34 14 50 14 c 0,47,48
 77 14 77 14 117 54 c 1,49,50
 72 62 72 62 50 92 c 1,43,44
171 292 m 1,51,52
 59.28125 237 59.28125 237 50.140625 237 c 128,-1,53
 41 237 41 237 41 241.5 c 128,-1,54
 41 246 41 246 108 286 c 128,-1,55
 175 326 175 326 183 326 c 0,56,57
 190.716981132 326 190.716981132 326 207.358490566 284 c 128,-1,58
 224 242 224 242 228 233 c 1,59,60
 225 227 225 227 220 227 c 0,61,62
 211.625 227 211.625 227 181 276 c 2,63,-1
 171 292 l 1,51,52
EndSplineSet
EndChar

StartChar: ucircumflex
Encoding: 251 251 80
Width: 318
Flags: HMW
HStem: -16 31<175 177.5> -6 21G 303 20G<240.5 251.5>
LayerCount: 2
Fore
SplineSet
125 10 m 0,0,1
 125 21.1428571429 125 21.1428571429 141.5 47.0714285714 c 128,-1,2
 158 73 158 73 163.5 80 c 128,-1,3
 169 87 169 87 180 102 c 1,4,5
 61 -6 61 -6 16 -6 c 0,6,7
 -9 -6 -9 -6 -9 15 c 0,8,9
 -9 45 -9 45 92 184 c 0,10,11
 97 192 97 192 105 192 c 1,12,13
 128 185 128 185 128 182 c 128,-1,14
 128 179 128 179 122 170 c 0,15,16
 36 54 36 54 36 39.5 c 128,-1,17
 36 25 36 25 46 25 c 0,18,19
 74 25 74 25 145.5 89.5 c 128,-1,20
 217 154 217 154 249 196 c 1,21,22
 253 203 253 203 262 203 c 1,23,24
 282 199 282 199 282 195 c 1,25,26
 271 179 271 179 252 153 c 128,-1,27
 233 127 233 127 221 110.5 c 128,-1,28
 209 94 209 94 195.5 75 c 0,29,30
 171.325581395 40.976744186 171.325581395 40.976744186 166 25 c 1,31,32
 166 15 166 15 182.5 15 c 128,-1,33
 199 15 199 15 241 34.5 c 128,-1,34
 283 54 283 54 315 74 c 2,35,-1
 347 94 l 1,36,37
 348 92 348 92 348 86 c 128,-1,38
 348 80 348 80 339 76 c 1,39,40
 204 -16 204 -16 151 -16 c 0,41,42
 125 -16 125 -16 125 10 c 0,0,1
234 289 m 1,43,44
 122.28125 234 122.28125 234 113.140625 234 c 128,-1,45
 104 234 104 234 104 238.5 c 128,-1,46
 104 243 104 243 171 283 c 128,-1,47
 238 323 238 323 246 323 c 0,48,49
 253.716981132 323 253.716981132 323 270.358490566 281 c 128,-1,50
 287 239 287 239 291 230 c 1,51,52
 288 224 288 224 283 224 c 0,53,54
 273.393939394 224 273.393939394 224 244 272.5 c 2,55,-1
 234 289 l 1,43,44
EndSplineSet
EndChar

StartChar: Ecircumflex
Encoding: 202 202 81
Width: 400
Flags: HMW
HStem: -54 28<95 137 95 158.5> 323 23<173.5 194> 495 241<408.5 412.5> 711 25<414.5 499> 834 20G<506.5 517.5>
VStem: -14 54<42.5 88.5> 48 51<390.5 452> 351 38
LayerCount: 2
Fore
SplineSet
378 495 m 0,0,1
 351 495 351 495 351 511 c 0,2,3
 351 536 351 536 409.5 583.5 c 128,-1,4
 468 631 468 631 539 659 c 1,5,6
 540 661 540 661 540 666 c 0,7,8
 540 711 540 711 478 711 c 128,-1,9
 416 711 416 711 325.5 657.5 c 128,-1,10
 235 604 235 604 167 531.5 c 128,-1,11
 99 459 99 459 99 409 c 0,12,13
 99 346 99 346 215 346 c 0,14,15
 283 346 283 346 332 378 c 1,16,17
 335 382 335 382 339 382 c 0,18,19
 346 382 346 382 346 371.5 c 128,-1,20
 346 361 346 361 339 358 c 0,21,22
 213.746922025 300.592339261 213.746922025 300.592339261 132.5 228.5 c 0,23,24
 97 197 97 197 68.5 150.5 c 128,-1,25
 40 104 40 104 40 64.5 c 128,-1,26
 40 25 40 25 60.5 -0.5 c 128,-1,27
 81 -26 81 -26 137 -26 c 1,28,29
 156 -25 156 -25 180 -20 c 128,-1,30
 204 -15 204 -15 261 14 c 128,-1,31
 318 43 318 43 370 91 c 1,32,33
 378 101 378 101 383 101 c 0,34,35
 389 100 389 100 389 93 c 0,36,37
 389 76 389 76 342 41 c 128,-1,38
 295 6 295 6 224.5 -24 c 128,-1,39
 154 -54 154 -54 101 -54 c 0,40,41
 25.1707317073 -54 25.1707317073 -54 -3 -1.5 c 0,42,43
 -14 19 -14 19 -14 46 c 0,44,45
 -14 112 -14 112 62.5 194.5 c 128,-1,46
 139 277 139 277 261 333 c 1,47,48
 214 323 214 323 174 323 c 0,49,50
 48 323 48 323 48 393 c 0,51,52
 48 436 48 436 95 496.5 c 128,-1,53
 142 557 142 557 208.5 609 c 128,-1,54
 275 661 275 661 352.5 698.5 c 128,-1,55
 430 736 430 736 485 736 c 0,56,57
 570 736 570 736 570 678 c 0,58,59
 570 672 570 672 569 669 c 1,60,61
 613 683 613 683 635 683 c 128,-1,62
 657 683 657 683 663 681.5 c 128,-1,63
 669 680 669 680 669 669 c 128,-1,64
 669 658 669 658 661 656 c 1,65,66
 615 656 615 656 561 639 c 1,67,68
 539 586 539 586 483.5 540.5 c 128,-1,69
 428 495 428 495 378 495 c 0,0,1
384 523 m 0,70,71
 384 514 384 514 400 514 c 0,72,73
 430 514 430 514 471 550.5 c 128,-1,74
 512 587 512 587 530 628 c 1,75,76
 472 604 472 604 428 571.5 c 128,-1,77
 384 539 384 539 384 523 c 0,70,71
500 820 m 1,78,79
 388.28125 765 388.28125 765 379.140625 765 c 128,-1,80
 370 765 370 765 370 769.5 c 128,-1,81
 370 774 370 774 437 814 c 128,-1,82
 504 854 504 854 512 854 c 0,83,84
 519.716981132 854 519.716981132 854 536.358490566 812 c 128,-1,85
 553 770 553 770 557 761 c 1,86,87
 554 755 554 755 549 755 c 0,88,89
 540.625 755 540.625 755 510 804 c 2,90,-1
 500 820 l 1,78,79
EndSplineSet
EndChar

StartChar: Icircumflex
Encoding: 206 206 82
Width: 574
Flags: HMW
HStem: -55 33<-40.5 -8> 188 36<275 378.5> 705 54<604.5 632.5> 846 20G<700.5 711.5>
VStem: -119 39 408 31<387.5 448.5> 548 30<128 150> 660 41<582 666.5>
LayerCount: 2
Fore
SplineSet
-119 1 m 1,0,1
 -119 53 -119 53 -39.5 106 c 128,-1,2
 40 159 40 159 156.5 191.5 c 128,-1,3
 273 224 273 224 381 224 c 0,4,5
 408 224 408 224 440 221 c 1,6,7
 660 427 660 427 660 646 c 0,8,9
 660 705 660 705 621 705 c 0,10,11
 597 705 597 705 566 680.5 c 128,-1,12
 535 656 535 656 506.5 616 c 128,-1,13
 478 576 478 576 458.5 517 c 128,-1,14
 439 458 439 458 439 392.5 c 128,-1,15
 439 327 439 327 457 316 c 0,16,17
 462 313 462 313 462 309 c 1,18,19
 454 292 454 292 439.5 292 c 128,-1,20
 425 292 425 292 416.5 300.5 c 128,-1,21
 408 309 408 309 408 325 c 0,22,23
 408 413 408 413 433.5 496.5 c 128,-1,24
 459 580 459 580 496 635.5 c 128,-1,25
 533 691 533 691 574 725 c 128,-1,26
 615 759 615 759 647 759 c 0,27,28
 701 759 701 759 701 674 c 0,29,30
 701 429 701 429 471 217 c 1,31,32
 578 198 578 198 578 142 c 0,33,34
 578 122 578 122 552.5 100.5 c 128,-1,35
 527 79 527 79 511.5 78 c 128,-1,36
 496 77 496 77 495 81 c 0,37,38
 495 84 495 84 506 91 c 0,39,40
 548 117 548 117 548 135 c 0,41,42
 548 176 548 176 435 185 c 1,43,44
 310 79 310 79 165 12 c 128,-1,45
 20 -55 20 -55 -44 -55 c 0,46,47
 -76 -55 -76 -55 -94.5 -41 c 128,-1,48
 -113 -27 -113 -27 -116 -13 c 2,49,-1
 -119 1 l 1,0,1
374 188 m 0,50,51
 275 188 275 188 170.5 164 c 128,-1,52
 66 140 66 140 -6.5 99 c 128,-1,53
 -79 58 -79 58 -80 15 c 1,54,55
 -77 -22 -77 -22 -24 -22 c 0,56,57
 47 -22 47 -22 169 36 c 128,-1,58
 291 94 291 94 402 187 c 1,59,60
 392 188 392 188 374 188 c 0,50,51
694 832 m 1,61,62
 582.28125 777 582.28125 777 573.140625 777 c 128,-1,63
 564 777 564 777 564 781.5 c 128,-1,64
 564 786 564 786 631 826 c 128,-1,65
 698 866 698 866 706 866 c 0,66,67
 713.716981132 866 713.716981132 866 730.358490566 824 c 128,-1,68
 747 782 747 782 751 773 c 1,69,70
 748 767 748 767 743 767 c 0,71,72
 734.625 767 734.625 767 704 816 c 2,73,-1
 694 832 l 1,61,62
EndSplineSet
EndChar

StartChar: Ocircumflex
Encoding: 212 212 83
Width: 434
Flags: HMW
HStem: -24 29<108 197.5> 173 34<238 260.5> 630 31<455.5 513> 630 74<389 513> 798 20G<570.5 581.5>
VStem: 0 42<91 275 91 304.5> 165 37<255 345.5> 165 248<305 322 305 345.5> 557 41<417 570.5>
LayerCount: 2
Fore
SplineSet
418 704 m 0,0,1
 423 704 423 704 425 698 c 1,2,3
 425 690 425 690 413 688 c 1,4,5
 357 669 357 669 293.5 619 c 128,-1,6
 230 569 230 569 173.5 498.5 c 128,-1,7
 117 428 117 428 79.5 332 c 128,-1,8
 42 236 42 236 42 138 c 0,9,10
 42 5 42 5 136 5 c 0,11,12
 191 5 191 5 264.5 53.5 c 128,-1,13
 338 102 338 102 402.5 175.5 c 128,-1,14
 467 249 467 249 512 348 c 128,-1,15
 557 447 557 447 557 538.5 c 128,-1,16
 557 630 557 630 494 630 c 0,17,18
 443 630 443 630 374 575.5 c 128,-1,19
 305 521 305 521 253.5 437.5 c 128,-1,20
 202 354 202 354 202 280.5 c 128,-1,21
 202 207 202 207 253 207 c 0,22,23
 285 207 285 207 325.5 237.5 c 128,-1,24
 366 268 366 268 398 319 c 0,25,26
 402 327 402 327 407.5 327 c 128,-1,27
 413 327 413 327 413 321 c 0,28,29
 413 293 413 293 343.5 233 c 128,-1,30
 274 173 274 173 224 173 c 0,31,32
 165 173 165 173 165 268 c 0,33,34
 165 342 165 342 227 436.5 c 128,-1,35
 289 531 289 531 373 596 c 128,-1,36
 457 661 457 661 518 661 c 0,37,38
 598 661 598 661 598 542 c 0,39,40
 598 452 598 452 546 348.5 c 128,-1,41
 494 245 494 245 419.5 164.5 c 128,-1,42
 345 84 345 84 260 30 c 128,-1,43
 175 -24 175 -24 111 -24 c 0,44,45
 0 -24 0 -24 0 134 c 0,46,47
 0 230 0 230 38 323.5 c 128,-1,48
 76 417 76 417 130.5 483 c 128,-1,49
 185 549 185 549 245.5 601 c 128,-1,50
 306 653 306 653 352.5 678.5 c 128,-1,51
 399 704 399 704 418 704 c 0,0,1
564 784 m 1,52,53
 452.28125 729 452.28125 729 443.140625 729 c 128,-1,54
 434 729 434 729 434 733.5 c 128,-1,55
 434 738 434 738 501 778 c 128,-1,56
 568 818 568 818 576 818 c 0,57,58
 583.716981132 818 583.716981132 818 600.358490566 776 c 128,-1,59
 617 734 617 734 621 725 c 1,60,61
 618 719 618 719 613 719 c 0,62,63
 604.625 719 604.625 719 574 768 c 2,64,-1
 564 784 l 1,52,53
EndSplineSet
EndChar

StartChar: Ucircumflex
Encoding: 219 219 84
Width: 500
Flags: HMW
HStem: -16 31<322.5 385> 7 27<105 138> 323 42<-148 -67.5 -148 -65> 675 20G<98 242>
VStem: -227 30<398 441.5> 43 47<60.5 124> 310 43<583 625.5>
LayerCount: 2
Fore
SplineSet
362 15 m 1,0,1
 382 15 382 15 424 34.5 c 128,-1,2
 466 54 466 54 498 74 c 2,3,-1
 530 94 l 1,4,5
 531 92 531 92 531 86 c 128,-1,6
 531 80 531 80 522 76 c 1,7,8
 387 -16 387 -16 334 -16 c 0,9,10
 299 -16 299 -16 299 28 c 0,11,12
 299 107 299 107 400 254 c 1,13,14
 361.96460177 207.814159292 361.96460177 207.814159292 293.482300885 141.407079646 c 0,15,16
 154.875 7 154.875 7 93 7 c 0,17,18
 69 7 69 7 56 23.5 c 128,-1,19
 43 40 43 40 43 60 c 0,20,21
 43 103 43 103 84.5 181.5 c 128,-1,22
 126 260 126 260 176.5 332.5 c 128,-1,23
 227 405 227 405 268.5 481 c 128,-1,24
 310 557 310 557 310 597 c 128,-1,25
 310 637 310 637 278 659 c 128,-1,26
 246 681 246 681 191 681 c 128,-1,27
 136 681 136 681 62 651.5 c 128,-1,28
 -12 622 -12 622 -67.5 579.5 c 128,-1,29
 -123 537 -123 537 -160 491 c 128,-1,30
 -197 445 -197 445 -197 412 c 0,31,32
 -197 365 -197 365 -121 365 c 128,-1,33
 -45 365 -45 365 36 422 c 128,-1,34
 117 479 117 479 178 563 c 0,35,36
 183 571 183 571 188 571 c 2,37,-1
 189 571 l 1,38,39
 194 568 194 568 194 563 c 0,40,41
 194 539 194 539 142 482 c 128,-1,42
 90 425 90 425 10 374 c 128,-1,43
 -70 323 -70 323 -132 323 c 0,44,45
 -227 323 -227 323 -227 388 c 0,46,47
 -227 428 -227 428 -189.5 481 c 128,-1,48
 -152 534 -152 534 -93 581.5 c 128,-1,49
 -34 629 -34 629 48 662 c 128,-1,50
 130 695 130 695 199.5 695 c 128,-1,51
 269 695 269 695 311 669.5 c 128,-1,52
 353 644 353 644 353 583 c 0,53,54
 353 521.112244898 353 521.112244898 221 328.5 c 0,55,56
 172 257 172 257 131 181 c 128,-1,57
 90 105 90 105 90 69.5 c 128,-1,58
 90 34 90 34 116 34 c 0,59,60
 139 34 139 34 180 63.5 c 128,-1,61
 221 93 221 93 263.5 134.5 c 0,62,63
 349.575949367 218.550632911 349.575949367 218.550632911 408.5 289.5 c 2,64,-1
 433 319 l 1,65,-1
 522 441 l 2,66,67
 529 452 529 452 542 452 c 2,68,-1
 559 451 l 2,69,70
 565 451 565 451 565 447 c 128,-1,71
 565 443 565 443 455.5 272.5 c 128,-1,72
 346 102 346 102 346 39 c 0,73,74
 346 28 346 28 350 22 c 128,-1,75
 354 16 354 16 362 15 c 1,0,1
535 659 m 1,76,77
 423.28125 604 423.28125 604 414.140625 604 c 128,-1,78
 405 604 405 604 405 608.5 c 128,-1,79
 405 613 405 613 472 653 c 128,-1,80
 539 693 539 693 547 693 c 0,81,82
 554.716981132 693 554.716981132 693 571.358490566 651 c 128,-1,83
 588 609 588 609 592 600 c 1,84,85
 589 594 589 594 584 594 c 0,86,87
 574.393939394 594 574.393939394 594 545 642.5 c 2,88,-1
 535 659 l 1,76,77
EndSplineSet
EndChar

StartChar: Acircumflex
Encoding: 194 194 85
Width: 515
Flags: HMW
HStem: -68 21G<-51.5 -41> -4 21G<345.5 358> 686 28 804 20G<674.5 685.5>
VStem: 13 30<331.5 366.5> 622 37<646 673.5>
LayerCount: 2
Fore
SplineSet
-41 -68 m 1,0,1
 -64 -68 -64 -68 -72 -53 c 0,2,3
 -75 -48 -75 -48 -75 -45 c 128,-1,4
 -75 -42 -75 -42 -73 -40 c 0,5,6
 18 27 18 27 143 170 c 1,7,8
 81 204 81 204 47 251.5 c 128,-1,9
 13 299 13 299 13 339.5 c 128,-1,10
 13 380 13 380 38 403 c 128,-1,11
 63 426 63 426 111 426 c 0,12,13
 202 426 202 426 266 321 c 1,14,15
 294 356 294 356 355.5 435 c 128,-1,16
 417 514 417 514 445 548.5 c 128,-1,17
 473 583 473 583 514.5 629.5 c 0,18,19
 589.913978495 714 589.913978495 714 629 714 c 0,20,21
 659 713 659 713 659 682 c 0,22,23
 659 648.677419355 659 648.677419355 636.5 591.338709677 c 128,-1,24
 614 534 614 534 600.5 500.5 c 128,-1,25
 587 467 587 467 560.5 411.5 c 128,-1,26
 534 356 534 356 519 323.5 c 128,-1,27
 504 291 504 291 473 227.5 c 128,-1,28
 442 164 442 164 430 139 c 1,29,30
 507 144 507 144 552 166 c 0,31,32
 560 170 560 170 562 175 c 128,-1,33
 564 180 564 180 567.5 180 c 128,-1,34
 571 180 571 180 574.5 176 c 128,-1,35
 578 172 578 172 578 168 c 0,36,37
 578 134 578 134 422 121 c 1,38,39
 383 40 383 40 368 4 c 0,40,41
 364 -4 364 -4 356 -4 c 0,42,43
 335 -4 335 -4 335 36 c 1,44,45
 331 67 331 67 321 121 c 1,46,47
 242 127 242 127 173 156 c 1,48,-1
 173 155 l 1,49,50
 130 102 130 102 76.5 46.5 c 128,-1,51
 23 -9 23 -9 -9 -38.5 c 2,52,-1
 -41 -68 l 1,0,1
393 138 m 1,53,54
 622 614 622 614 622 669 c 0,55,56
 622 686 622 686 610 686 c 0,57,58
 591.8 686 591.8 686 559.4 650 c 128,-1,59
 527 614 527 614 507 590 c 128,-1,60
 487 566 487 566 454 523.5 c 128,-1,61
 421 481 421 481 399.5 453 c 128,-1,62
 378 425 378 425 339 372.5 c 128,-1,63
 300 320 300 320 281 295 c 1,64,65
 312 237 312 237 337 142 c 1,66,67
 361 138 361 138 393 138 c 1,53,54
255 306 m 1,68,69
 196 408 196 408 115 408 c 0,70,71
 79 408 79 408 61 393 c 128,-1,72
 43 378 43 378 43 348.5 c 128,-1,73
 43 319 43 319 76.5 275.5 c 128,-1,74
 110 232 110 232 167 199 c 1,75,76
 197 234 197 234 255 306 c 1,68,69
269 279 m 1,77,78
 237 236 237 236 195 183 c 1,79,80
 254 155 254 155 315 145 c 1,81,82
 294 229 294 229 269 279 c 1,77,78
668 790 m 1,83,84
 556.28125 735 556.28125 735 547.140625 735 c 128,-1,85
 538 735 538 735 538 739.5 c 128,-1,86
 538 744 538 744 605 784 c 128,-1,87
 672 824 672 824 680 824 c 0,88,89
 687.716981132 824 687.716981132 824 704.358490566 782 c 128,-1,90
 721 740 721 740 725 731 c 1,91,92
 722 725 722 725 717 725 c 0,93,94
 708.625 725 708.625 725 678 774 c 2,95,-1
 668 790 l 1,83,84
384 119 m 1,96,-1
 342 119 l 1,97,-1
 354 56 l 1,98,99
 366 80 366 80 384 119 c 1,96,-1
EndSplineSet
EndChar

StartChar: acute
Encoding: 180 180 86
Width: 380
Flags: HMW
HStem: 236 21G<165 168> 303 20G<256 262.5>
LayerCount: 2
Fore
SplineSet
165 236 m 1,0,1
 160 238 160 238 160 242 c 0,2,3
 161 246 161 246 169 254 c 1,4,-1
 248 319 l 2,5,6
 252 323 252 323 258 323 c 0,7,8
 272 323 272 323 272 309 c 0,9,10
 272 302 272 302 266 296 c 1,11,-1
 181 242 l 1,12,13
 169 236 169 236 165 236 c 1,0,1
EndSplineSet
EndChar

StartChar: aacute
Encoding: 225 225 87
Width: 303
Flags: HMW
HStem: -16 42 -8 21G<3.5 32> 177 22<170 193> 303 20G<306 312.5>
VStem: -16 50<37 59> -16 167<21 36.5 21 59>
LayerCount: 2
Fore
SplineSet
189 119 m 0,0,1
 197 119 197 119 217 137 c 128,-1,2
 237 155 237 155 237 171 c 0,3,4
 237 199 237 199 204 199 c 0,5,6
 148 199 148 199 66 137.5 c 128,-1,7
 -16 76 -16 76 -16 17 c 0,8,9
 -16 -8 -16 -8 11 -8 c 128,-1,10
 38 -8 38 -8 72.5 8.5 c 128,-1,11
 107 25 107 25 114 33 c 1,12,13
 110 21 110 21 110 10 c 0,14,15
 110 -16 110 -16 135 -16 c 128,-1,16
 160 -16 160 -16 207 7 c 128,-1,17
 254 30 254 30 289 53 c 2,18,-1
 324 76 l 1,19,20
 333 80 333 80 333 89 c 1,21,-1
 332 94 l 1,22,23
 210 15 210 15 164 15 c 0,24,25
 151 15 151 15 151 25 c 0,26,27
 151 38 151 38 166.5 60 c 128,-1,28
 182 82 182 82 182 86 c 0,29,30
 182 95 182 95 172 96 c 0,31,32
 170 96 170 96 150.5 78.5 c 0,33,34
 92 26 92 26 54 26 c 0,35,36
 34 26 34 26 34 42 c 0,37,38
 34 80 34 80 93.5 128.5 c 128,-1,39
 153 177 153 177 188 177 c 0,40,41
 204 177 204 177 204 162 c 0,42,43
 204 150 204 150 186 133 c 0,44,45
 183 130 183 130 183 126 c 0,46,47
 183 119 183 119 189 119 c 0,0,1
215 236 m 1,48,49
 210 238 210 238 210 242 c 0,50,51
 211 246 211 246 219 254 c 1,52,-1
 298 319 l 2,53,54
 302 323 302 323 308 323 c 0,55,56
 322 323 322 323 322 309 c 0,57,58
 322 302 322 302 316 296 c 1,59,-1
 231 242 l 1,60,61
 219 236 219 236 215 236 c 1,48,49
EndSplineSet
EndChar

StartChar: grave
Encoding: 96 96 88
Width: 380
Flags: HMW
HStem: 236 21G<264 267> 303 20G<169.5 176>
LayerCount: 2
Fore
SplineSet
267 236 m 1,0,1
 263 236 263 236 251 242 c 1,2,-1
 166 296 l 1,3,4
 160 302 160 302 160 309 c 0,5,6
 160 323 160 323 174 323 c 0,7,8
 180 323 180 323 184 319 c 2,9,-1
 263 254 l 1,10,11
 277 240 277 240 267 236 c 1,0,1
EndSplineSet
EndChar

StartChar: agrave
Encoding: 224 224 89
Width: 303
Flags: HMW
HStem: -16 21G<125.5 162.5> -8 23 177 22<170 193> 282 20G<172.5 179>
VStem: -16 50<37 59> -16 167<21 36.5 21 59>
LayerCount: 2
Fore
SplineSet
189 119 m 0,0,1
 183 119 183 119 183 126 c 1,2,-1
 186 133 l 1,3,4
 204 150 204 150 204 162 c 0,5,6
 204 177 204 177 188 177 c 0,7,8
 153 177 153 177 93.5 128.5 c 128,-1,9
 34 80 34 80 34 42 c 0,10,11
 34 26 34 26 55 26 c 0,12,13
 76 26 76 26 103.5 43.5 c 128,-1,14
 131 61 131 61 150.5 78.5 c 128,-1,15
 170 96 170 96 172 96 c 0,16,17
 182 95 182 95 182 86 c 0,18,19
 182 82 182 82 166.5 60 c 128,-1,20
 151 38 151 38 151 25 c 0,21,22
 151 15 151 15 167.5 15 c 0,23,24
 184 15 184 15 226 34.5 c 128,-1,25
 268 54 268 54 300 74 c 2,26,-1
 332 94 l 1,27,28
 333 92 333 92 333 86 c 0,29,30
 333 80 333 80 324 76 c 1,31,32
 189 -16 189 -16 136 -16 c 0,33,34
 110 -16 110 -16 110 10 c 0,35,36
 110 21 110 21 114 33 c 1,37,38
 107 25 107 25 72.5 8.5 c 128,-1,39
 38 -8 38 -8 11 -8 c 0,40,41
 -16 -8 -16 -8 -16 17 c 0,42,43
 -16 76 -16 76 66 137.5 c 128,-1,44
 148 199 148 199 204 199 c 0,45,46
 237 199 237 199 237 171 c 0,47,48
 237 155 237 155 217 137 c 128,-1,49
 197 119 197 119 189 119 c 0,0,1
270 215 m 1,50,51
 266 215 266 215 254 221 c 1,52,-1
 169 275 l 1,53,54
 163 281 163 281 163 288 c 0,55,56
 163 302 163 302 177 302 c 0,57,58
 183 302 183 302 187 298 c 2,59,-1
 266 233 l 1,60,61
 280 219 280 219 270 215 c 1,50,51
EndSplineSet
EndChar

StartChar: uacute
Encoding: 250 250 90
Width: 318
Flags: HMW
HStem: -16 21G<140.5 177.5> -6 31<7 67.5> 291 20G<276 282.5>
LayerCount: 2
Fore
SplineSet
180 102 m 1,0,1
 125 27 125 27 125 10 c 0,2,3
 125 -16 125 -16 150 -16 c 128,-1,4
 175 -16 175 -16 222 7 c 128,-1,5
 269 30 269 30 304 53 c 2,6,-1
 339 76 l 1,7,8
 348 80 348 80 348 89 c 1,9,-1
 347 94 l 1,10,11
 225 15 225 15 179 15 c 0,12,13
 166 15 166 15 166 25 c 1,14,15
 172.076923077 43.2307692308 172.076923077 43.2307692308 202.538461538 85.1153846154 c 128,-1,16
 233 127 233 127 252 153 c 128,-1,17
 271 179 271 179 282 195 c 1,18,19
 282 199 282 199 270 201 c 0,20,21
 254.666666667 203.555555556 254.666666667 203.555555556 249 196 c 0,22,23
 217 154 217 154 145.5 89.5 c 128,-1,24
 74 25 74 25 46 25 c 0,25,26
 36 25 36 25 36 39.5 c 128,-1,27
 36 54 36 54 122 170 c 0,28,29
 128 179 128 179 128 182 c 128,-1,30
 128 185 128 185 105 192 c 1,31,32
 98 192 98 192 92 184 c 0,33,34
 -9 45 -9 45 -9 15 c 0,35,36
 -9 -6 -9 -6 16 -6 c 0,37,38
 61 -6 61 -6 180 102 c 1,0,1
185 224 m 1,39,40
 180 226 180 226 180 230 c 0,41,42
 181 234 181 234 189 242 c 1,43,-1
 268 307 l 2,44,45
 272 311 272 311 278 311 c 0,46,47
 292 311 292 311 292 297 c 0,48,49
 292 290 292 290 286 284 c 1,50,-1
 201 230 l 1,51,52
 189 224 189 224 185 224 c 1,39,40
EndSplineSet
EndChar

StartChar: ugrave
Encoding: 249 249 91
Width: 318
Flags: HMW
HStem: -16 31<175 177.5> -6 21G 300 20G<126.5 133>
LayerCount: 2
Fore
SplineSet
125 10 m 0,0,1
 125 21.1428571429 125 21.1428571429 141.5 47.0714285714 c 128,-1,2
 158 73 158 73 163.5 80 c 128,-1,3
 169 87 169 87 180 102 c 1,4,5
 61 -6 61 -6 16 -6 c 0,6,7
 -9 -6 -9 -6 -9 15 c 0,8,9
 -9 45 -9 45 92 184 c 0,10,11
 97 192 97 192 105 192 c 1,12,13
 128 185 128 185 128 182 c 128,-1,14
 128 179 128 179 122 170 c 0,15,16
 36 54 36 54 36 39.5 c 128,-1,17
 36 25 36 25 46 25 c 0,18,19
 74 25 74 25 145.5 89.5 c 128,-1,20
 217 154 217 154 249 196 c 1,21,22
 253 203 253 203 262 203 c 1,23,24
 282 199 282 199 282 195 c 1,25,26
 271 179 271 179 252 153 c 128,-1,27
 233 127 233 127 221 110.5 c 128,-1,28
 209 94 209 94 195.5 75 c 0,29,30
 171.325581395 40.976744186 171.325581395 40.976744186 166 25 c 1,31,32
 166 15 166 15 182.5 15 c 128,-1,33
 199 15 199 15 241 34.5 c 128,-1,34
 283 54 283 54 315 74 c 2,35,-1
 347 94 l 1,36,37
 348 92 348 92 348 86 c 128,-1,38
 348 80 348 80 339 76 c 1,39,40
 204 -16 204 -16 151 -16 c 0,41,42
 125 -16 125 -16 125 10 c 0,0,1
224 233 m 1,43,44
 220 233 220 233 208 239 c 1,45,-1
 123 293 l 1,46,47
 117 299 117 299 117 306 c 0,48,49
 117 320 117 320 131 320 c 0,50,51
 137 320 137 320 141 316 c 2,52,-1
 220 251 l 1,53,54
 234 237 234 237 224 233 c 1,43,44
EndSplineSet
EndChar

StartChar: ring
Encoding: 730 730 92
Width: 500
Flags: HMW
HStem: 250 89<254.5 261.5>
LayerCount: 2
Fore
SplineSet
226.5 259 m 128,-1,1
 218 268 218 268 218 282.5 c 128,-1,2
 218 297 218 297 233 318 c 128,-1,3
 248 339 248 339 268 339 c 0,4,5
 305 339 305 339 305 305 c 0,6,7
 305 286 305 286 286.5 268 c 128,-1,8
 268 250 268 250 251.5 250 c 128,-1,0
 235 250 235 250 226.5 259 c 128,-1,1
269 320 m 0,9,10
 255 320 255 320 246 308.5 c 128,-1,11
 237 297 237 297 237 288 c 128,-1,12
 237 279 237 279 242 273.5 c 128,-1,13
 247 268 247 268 257 268 c 128,-1,14
 267 268 267 268 276.5 278.5 c 128,-1,15
 286 289 286 289 286 301 c 0,16,17
 286 320 286 320 269 320 c 0,9,10
EndSplineSet
EndChar

StartChar: aring
Encoding: 229 229 93
Width: 303
Flags: HMW
HStem: -16 42 -8 21G<3.5 32> 26 151<47 193> 177 22<170 193> 199 42<170 261> 223 89<252.5 259.5> 241 52<256.5 261>
VStem: -16 50<37 59>
LayerCount: 2
Fore
SplineSet
189 119 m 0,0,1
 197 119 197 119 217 137 c 128,-1,2
 237 155 237 155 237 171 c 0,3,4
 237 199 237 199 204 199 c 0,5,6
 148 199 148 199 66 137.5 c 128,-1,7
 -16 76 -16 76 -16 17 c 0,8,9
 -16 -8 -16 -8 11 -8 c 128,-1,10
 38 -8 38 -8 72.5 8.5 c 128,-1,11
 107 25 107 25 114 33 c 1,12,13
 110 21 110 21 110 10 c 0,14,15
 110 -16 110 -16 135 -16 c 128,-1,16
 160 -16 160 -16 207 7 c 128,-1,17
 254 30 254 30 289 53 c 2,18,-1
 324 76 l 1,19,20
 333 80 333 80 333 89 c 1,21,-1
 332 94 l 1,22,23
 210 15 210 15 164 15 c 0,24,25
 151 15 151 15 151 25 c 0,26,27
 151 38 151 38 166.5 60 c 128,-1,28
 182 82 182 82 182 86 c 0,29,30
 182 95 182 95 172 96 c 0,31,32
 170 96 170 96 150.5 78.5 c 0,33,34
 92 26 92 26 54 26 c 0,35,36
 34 26 34 26 34 42 c 0,37,38
 34 80 34 80 93.5 128.5 c 128,-1,39
 153 177 153 177 188 177 c 0,40,41
 204 177 204 177 204 162 c 0,42,43
 204 150 204 150 186 133 c 0,44,45
 183 130 183 130 183 126 c 0,46,47
 183 119 183 119 189 119 c 0,0,1
224.5 232 m 128,-1,49
 216 241 216 241 216 255.5 c 128,-1,50
 216 270 216 270 231 291 c 128,-1,51
 246 312 246 312 266 312 c 0,52,53
 303 312 303 312 303 278 c 0,54,55
 303 259 303 259 284.5 241 c 128,-1,56
 266 223 266 223 249.5 223 c 128,-1,48
 233 223 233 223 224.5 232 c 128,-1,49
267 293 m 0,57,58
 253 293 253 293 244 281.5 c 128,-1,59
 235 270 235 270 235 261 c 128,-1,60
 235 252 235 252 240 246.5 c 128,-1,61
 245 241 245 241 255 241 c 128,-1,62
 265 241 265 241 274.5 251.5 c 128,-1,63
 284 262 284 262 284 274 c 0,64,65
 284 293 284 293 267 293 c 0,57,58
EndSplineSet
EndChar

StartChar: Aring
Encoding: 197 197 94
Width: 515
Flags: HMW
HStem: -68 21G<-51.5 -41> -4 21G<345.5 358> 714 37 733 89<668.5 675.5>
VStem: 13 30<331.5 366.5> 622 37<646 673.5>
LayerCount: 2
Fore
SplineSet
-41 -68 m 1,0,1
 76 36 76 36 173 155 c 1,2,-1
 173 156 l 1,3,4
 242 127 242 127 321 121 c 1,5,6
 331 67 331 67 335 36 c 1,7,8
 335 -4 335 -4 356 -4 c 0,9,10
 364 -4 364 -4 368 4 c 0,11,12
 383 40 383 40 422 121 c 1,13,14
 578 134 578 134 578 168 c 0,15,16
 578 172 578 172 574.5 176 c 128,-1,17
 571 180 571 180 567.5 180 c 128,-1,18
 564 180 564 180 563 177.5 c 0,19,20
 560 170 560 170 552 166 c 0,21,22
 507 144 507 144 430 139 c 1,23,24
 442 164 442 164 473 227.5 c 128,-1,25
 504 291 504 291 519 323.5 c 128,-1,26
 534 356 534 356 560.5 411.5 c 128,-1,27
 587 467 587 467 600.5 500.5 c 128,-1,28
 614 534 614 534 629.5 573.5 c 0,29,30
 659 648.677419355 659 648.677419355 659 680.838709677 c 128,-1,31
 659 713 659 713 629 714 c 1,32,33
 589.913978495 714 589.913978495 714 514.5 629.5 c 0,34,35
 455.111641791 562.95641791 455.111641791 562.95641791 374.555820896 459.478208955 c 128,-1,36
 294 356 294 356 266 321 c 1,37,38
 202 426 202 426 111 426 c 0,39,40
 63 426 63 426 38 403 c 128,-1,41
 13 380 13 380 13 339.5 c 128,-1,42
 13 299 13 299 47 251.5 c 128,-1,43
 81 204 81 204 143 170 c 1,44,45
 18 27 18 27 -73 -40 c 0,46,47
 -75 -42 -75 -42 -75 -45 c 128,-1,48
 -75 -48 -75 -48 -72 -53 c 0,49,50
 -64 -68 -64 -68 -41 -68 c 1,0,1
393 138 m 1,51,52
 361 138 361 138 337 142 c 1,53,54
 312 237 312 237 281 295 c 1,55,56
 300 320 300 320 339 372.5 c 128,-1,57
 378 425 378 425 399.5 453 c 128,-1,58
 421 481 421 481 454 523.5 c 128,-1,59
 487 566 487 566 507 590 c 128,-1,60
 527 614 527 614 549.5 639 c 0,61,62
 591.8 686 591.8 686 610 686 c 0,63,64
 622 686 622 686 622 669 c 0,65,66
 622 614 622 614 393 138 c 1,51,52
255 306 m 1,67,68
 197 234 197 234 167 199 c 1,69,70
 110 232 110 232 76.5 275.5 c 128,-1,71
 43 319 43 319 43 348.5 c 0,72,73
 43 408 43 408 119.5 408 c 128,-1,74
 196 408 196 408 255 306 c 1,67,68
269 279 m 1,75,76
 294 229 294 229 315 145 c 1,77,78
 254 155 254 155 195 183 c 1,79,80
 237 236 237 236 269 279 c 1,75,76
640.5 742 m 128,-1,82
 632 751 632 751 632 765.5 c 128,-1,83
 632 780 632 780 647 801 c 128,-1,84
 662 822 662 822 682 822 c 0,85,86
 719 822 719 822 719 788 c 0,87,88
 719 769 719 769 700.5 751 c 128,-1,89
 682 733 682 733 665.5 733 c 128,-1,81
 649 733 649 733 640.5 742 c 128,-1,82
683 803 m 0,90,91
 669 803 669 803 660 791.5 c 128,-1,92
 651 780 651 780 651 771 c 128,-1,93
 651 762 651 762 656 756.5 c 128,-1,94
 661 751 661 751 671 751 c 128,-1,95
 681 751 681 751 690.5 761.5 c 128,-1,96
 700 772 700 772 700 784 c 0,97,98
 700 803 700 803 683 803 c 0,90,91
384 119 m 1,99,-1
 354 56 l 1,100,101
 351 82 351 82 342 119 c 1,102,-1
 384 119 l 1,99,-1
EndSplineSet
EndChar

StartChar: Eacute
Encoding: 201 201 95
Width: 400
Flags: HMW
HStem: -54 28<95 137 95 158.5> 323 23<173.5 194> 495 241<408.5 412.5> 711 25<414.5 499> 846 20G<599 605.5>
VStem: -14 54<42.5 88.5> 48 51<390.5 452> 351 38
LayerCount: 2
Fore
SplineSet
378 495 m 0,0,1
 428 495 428 495 483.5 540.5 c 128,-1,2
 539 586 539 586 561 639 c 1,3,4
 615 656 615 656 661 656 c 1,5,6
 669 658 669 658 669 669 c 128,-1,7
 669 680 669 680 663 681.5 c 128,-1,8
 657 683 657 683 635 683 c 128,-1,9
 613 683 613 683 569 669 c 1,10,11
 570 672 570 672 570 678 c 0,12,13
 570 736 570 736 485 736 c 0,14,15
 430 736 430 736 352.5 698.5 c 128,-1,16
 275 661 275 661 208.5 609 c 128,-1,17
 142 557 142 557 95 496.5 c 128,-1,18
 48 436 48 436 48 393 c 0,19,20
 48 323 48 323 174 323 c 0,21,22
 209 323 209 323 248 330.5 c 2,23,-1
 261 333 l 1,24,25
 139 277 139 277 62.5 194.5 c 128,-1,26
 -14 112 -14 112 -14 46 c 0,27,28
 -14 19 -14 19 -3 -1.5 c 128,-1,29
 8 -22 8 -22 21.5 -31.5 c 128,-1,30
 35 -41 35 -41 54 -46.5 c 0,31,32
 79.9090909091 -54 79.9090909091 -54 101 -54 c 0,33,34
 154 -54 154 -54 224.5 -24 c 128,-1,35
 295 6 295 6 342 41 c 128,-1,36
 389 76 389 76 389 93 c 0,37,38
 389 100 389 100 385 100.5 c 0,39,40
 378.272727273 101.340909091 378.272727273 101.340909091 370 91 c 1,41,42
 318 43 318 43 261 14 c 128,-1,43
 204 -15 204 -15 180 -20 c 128,-1,44
 156 -25 156 -25 137 -26 c 1,45,46
 81 -26 81 -26 60.5 -0.5 c 128,-1,47
 40 25 40 25 40 64.5 c 128,-1,48
 40 104 40 104 68.5 150.5 c 128,-1,49
 97 197 97 197 132.5 228.5 c 128,-1,50
 168 260 168 260 218.5 292 c 0,51,52
 279.931764706 330.927058824 279.931764706 330.927058824 339 358 c 0,53,54
 346 361 346 361 346 371.5 c 128,-1,55
 346 382 346 382 339 382 c 1,56,-1
 332 378 l 1,57,58
 283 346 283 346 215 346 c 0,59,60
 99 346 99 346 99 409 c 0,61,62
 99 459 99 459 167 531.5 c 128,-1,63
 235 604 235 604 325.5 657.5 c 128,-1,64
 416 711 416 711 478 711 c 128,-1,65
 540 711 540 711 540 666 c 0,66,67
 540 661 540 661 539 659 c 1,68,69
 468 631 468 631 409.5 583.5 c 128,-1,70
 351 536 351 536 351 511 c 0,71,72
 351 495 351 495 378 495 c 0,0,1
384 523 m 0,73,74
 384 539 384 539 428 571.5 c 128,-1,75
 472 604 472 604 530 628 c 1,76,77
 512 587 512 587 471 550.5 c 128,-1,78
 430 514 430 514 400 514 c 0,79,80
 384 514 384 514 384 523 c 0,73,74
508 779 m 1,81,82
 503 781 503 781 503 785 c 0,83,84
 504 789 504 789 512 797 c 1,85,-1
 591 862 l 2,86,87
 595 866 595 866 601 866 c 0,88,89
 615 866 615 866 615 852 c 0,90,91
 615 845 615 845 609 839 c 1,92,-1
 524 785 l 1,93,94
 512 779 512 779 508 779 c 1,81,82
EndSplineSet
EndChar

StartChar: eacute
Encoding: 233 233 96
Width: 228
Flags: HMW
HStem: -25 28<1 57.5> -25 145<1 77> 218 21<156 163.5> 344 20G<235 241.5>
VStem: -31 43<-4 47> -4 42<130.5 143.5> -4 228<115.5 229>
LayerCount: 2
Fore
SplineSet
56 97 m 1,0,1
 -31 42 -31 42 -31 8.5 c 128,-1,2
 -31 -25 -31 -25 19.5 -25 c 0,3,4
 94.8421052632 -25 94.8421052632 -25 234.5 66.5 c 2,5,-1
 249 76 l 1,6,7
 258 80 258 80 258 89 c 1,8,-1
 257 94 l 1,9,10
 189 50 189 50 133 26.5 c 128,-1,11
 77 3 77 3 44.5 3 c 128,-1,12
 12 3 12 3 12 28 c 0,13,14
 12 50 12 50 61.5 81 c 128,-1,15
 111 112 111 112 111 117 c 128,-1,16
 111 122 111 122 95 121 c 128,-1,17
 79 120 79 120 73 120 c 0,18,19
 38 120 38 120 38 135 c 0,20,21
 38 155 38 155 86 186.5 c 128,-1,22
 134 218 134 218 156.5 218 c 128,-1,23
 179 218 179 218 179 208 c 0,24,25
 179 201.75 179 201.75 162 189 c 1,26,27
 155 186 155 186 155 181 c 1,28,29
 158 173 158 173 164 173 c 0,30,31
 166 173 166 173 180 180 c 128,-1,32
 194 187 194 187 209 199 c 128,-1,33
 224 211 224 211 224 221 c 0,34,35
 224 239 224 239 195 239 c 0,36,37
 138 239 138 239 67 196.5 c 128,-1,38
 -4 154 -4 154 -4 123 c 0,39,40
 -4 97 -4 97 56 97 c 1,0,1
144 277 m 1,41,42
 139 279 139 279 139 283 c 0,43,44
 140 287 140 287 148 295 c 1,45,-1
 227 360 l 2,46,47
 231 364 231 364 237 364 c 0,48,49
 251 364 251 364 251 350 c 0,50,51
 251 343 251 343 245 337 c 1,52,-1
 160 283 l 1,53,54
 148 277 148 277 144 277 c 1,41,42
EndSplineSet
EndChar

StartChar: egrave
Encoding: 232 232 97
Width: 228
Flags: HMW
HStem: -25 28<1 57.5> 97 23<34.5 77> 218 21<156 163.5> 350 20G<117.5 124>
VStem: -31 43<-4 47> -4 42<130.5 143.5> -4 228<115.5 229>
LayerCount: 2
Fore
SplineSet
56 97 m 1,0,1
 -4 97 -4 97 -4 123 c 0,2,3
 -4 154 -4 154 67 196.5 c 128,-1,4
 138 239 138 239 195 239 c 0,5,6
 224 239 224 239 224 221 c 0,7,8
 224 211 224 211 209 199 c 128,-1,9
 194 187 194 187 180 180 c 128,-1,10
 166 173 166 173 164 173 c 0,11,12
 158 173 158 173 156.5 178 c 0,13,14
 154.347826087 185.173913043 154.347826087 185.173913043 166.673913043 192.586956522 c 128,-1,15
 179 200 179 200 179 209 c 128,-1,16
 179 218 179 218 156.5 218 c 128,-1,17
 134 218 134 218 86 186.5 c 128,-1,18
 38 155 38 155 38 135 c 0,19,20
 38 120 38 120 73 120 c 0,21,22
 79 120 79 120 95 121 c 128,-1,23
 111 122 111 122 111 117 c 128,-1,24
 111 112 111 112 61.5 81 c 128,-1,25
 12 50 12 50 12 28 c 0,26,27
 12 3 12 3 44.5 3 c 128,-1,28
 77 3 77 3 118 20.5 c 0,29,30
 184.252115059 48.7783417936 184.252115059 48.7783417936 238.5 82.5 c 2,31,-1
 257 94 l 1,32,33
 258 92 258 92 258 86 c 128,-1,34
 258 80 258 80 249 76 c 1,35,36
 196 40 196 40 133 7.5 c 128,-1,37
 70 -25 70 -25 19.5 -25 c 128,-1,38
 -31 -25 -31 -25 -31 8.5 c 128,-1,39
 -31 42 -31 42 56 97 c 1,0,1
215 283 m 1,40,41
 211 283 211 283 199 289 c 1,42,-1
 114 343 l 1,43,44
 108 349 108 349 108 356 c 0,45,46
 108 370 108 370 122 370 c 0,47,48
 128 370 128 370 132 366 c 2,49,-1
 211 301 l 1,50,51
 225 287 225 287 215 283 c 1,40,41
EndSplineSet
EndChar

StartChar: iacute
Encoding: 237 237 98
Width: 183
Flags: HMW
HStem: -16 31<5.5 67> 291 20G<221 227.5>
VStem: -10 39<21 28.5>
LayerCount: 2
Fore
SplineSet
29 27 m 0,0,1
 29 43 29 43 60 91.5 c 128,-1,2
 91 140 91 140 104 154 c 128,-1,3
 117 168 117 168 117 172 c 1,4,5
 110 181 110 181 102 181 c 0,6,7
 91 181 91 181 85 173 c 0,8,9
 47 129 47 129 18.5 82.5 c 128,-1,10
 -10 36 -10 36 -10 10 c 128,-1,11
 -10 -16 -10 -16 15 -16 c 128,-1,12
 40 -16 40 -16 87 7 c 128,-1,13
 134 30 134 30 169 53 c 2,14,-1
 204 76 l 1,15,16
 213 80 213 80 213 89 c 1,17,-1
 212 94 l 1,18,19
 90 15 90 15 44 15 c 0,20,21
 29 15 29 15 29 27 c 0,0,1
130 224 m 1,22,23
 125 226 125 226 125 230 c 0,24,25
 126 234 126 234 134 242 c 1,26,-1
 213 307 l 2,27,28
 217 311 217 311 223 311 c 0,29,30
 237 311 237 311 237 297 c 0,31,32
 237 290 237 290 231 284 c 1,33,-1
 146 230 l 1,34,35
 134 224 134 224 130 224 c 1,22,23
EndSplineSet
EndChar

StartChar: igrave
Encoding: 236 236 99
Width: 183
Flags: HMW
HStem: -16 31<5.5 67> 276 20G<60.5 67>
LayerCount: 2
Fore
SplineSet
85 173 m 1,0,1
 90 181 90 181 99 181 c 128,-1,2
 108 181 108 181 117 172 c 1,3,4
 117 168 117 168 104 154 c 128,-1,5
 91 140 91 140 60 91.5 c 128,-1,6
 29 43 29 43 29 27 c 0,7,8
 29 16.875 29 16.875 44 15 c 1,9,10
 64 15 64 15 106 34.5 c 128,-1,11
 148 54 148 54 180 74 c 2,12,-1
 212 94 l 1,13,14
 213 92 213 92 213 86 c 128,-1,15
 213 80 213 80 204 76 c 1,16,17
 69 -16 69 -16 16 -16 c 0,18,19
 -10 -16 -10 -16 -10 10 c 128,-1,20
 -10 36 -10 36 18.5 82.5 c 128,-1,21
 47 129 47 129 85 173 c 1,0,1
158 209 m 1,22,23
 154 209 154 209 142 215 c 1,24,-1
 57 269 l 1,25,26
 51 275 51 275 51 282 c 0,27,28
 51 296 51 296 65 296 c 0,29,30
 71 296 71 296 75 292 c 2,31,-1
 154 227 l 1,32,33
 168 213 168 213 158 209 c 1,22,23
EndSplineSet
EndChar

StartChar: oacute
Encoding: 243 243 100
Width: 207
Flags: HMW
HStem: -19 33<16.5 58> 201 26<107.5 131.5> 304 20G<272 278.5>
VStem: -5 39<25.5 33> 34 151<25.5 184.5 145 165>
LayerCount: 2
Fore
SplineSet
220 70 m 1,0,1
 227 76 227 76 227 79.5 c 128,-1,2
 227 83 227 83 222 83 c 128,-1,3
 217 83 217 83 214 80 c 0,4,5
 191 65 191 65 159 65 c 2,6,-1
 147 65 l 1,7,8
 185 117 185 117 185 155.5 c 128,-1,9
 185 194 185 194 169 210.5 c 128,-1,10
 153 227 153 227 124 227 c 128,-1,11
 95 227 95 227 64.5 201.5 c 128,-1,12
 34 176 34 176 34 141 c 0,13,14
 34 125 34 125 38 114 c 1,15,16
 -5 61 -5 61 -5 21 c 128,-1,17
 -5 -19 -5 -19 26 -19 c 0,18,19
 48 -19 48 -19 78.5 0.5 c 128,-1,20
 109 20 109 20 136 51 c 1,21,-1
 148 51 l 2,22,23
 189 51 189 51 220 70 c 1,0,1
124 185 m 1,24,25
 87 166 87 166 56 134 c 1,26,27
 53 143 53 143 53 158.5 c 128,-1,28
 53 174 53 174 73 187.5 c 128,-1,29
 93 201 93 201 116.5 201 c 128,-1,30
 140 201 140 201 155 189 c 128,-1,31
 170 177 170 177 170 154 c 0,32,33
 170 114 170 114 131 68 c 1,34,35
 86 79 86 79 64 114 c 1,36,37
 83.9465648855 138.549618321 83.9465648855 138.549618321 109.473282443 158.27480916 c 128,-1,38
 135 178 135 178 135 182.5 c 128,-1,39
 135 187 135 187 132 187 c 2,40,-1
 124 185 l 1,24,25
50 92 m 1,41,42
 72 62 72 62 117 54 c 1,43,44
 77 14 77 14 50 14 c 0,45,46
 34 14 34 14 34 32 c 0,47,48
 34 65 34 65 50 92 c 1,41,42
181 237 m 1,49,50
 176 239 176 239 176 243 c 0,51,52
 177 247 177 247 185 255 c 1,53,-1
 264 320 l 2,54,55
 268 324 268 324 274 324 c 0,56,57
 288 324 288 324 288 310 c 0,58,59
 288 303 288 303 282 297 c 1,60,-1
 197 243 l 1,61,62
 185 237 185 237 181 237 c 1,49,50
EndSplineSet
EndChar

StartChar: ograve
Encoding: 242 242 101
Width: 207
Flags: HMW
HStem: -19 33<16.5 58> 201 26<107.5 131.5> 309 20G<129.5 136>
VStem: -5 39<25.5 33> 34 151<25.5 184.5 145 165>
LayerCount: 2
Fore
SplineSet
220 70 m 1,0,1
 189 51 189 51 148 51 c 2,2,-1
 136 51 l 1,3,4
 109 20 109 20 78.5 0.5 c 128,-1,5
 48 -19 48 -19 26 -19 c 0,6,7
 -5 -19 -5 -19 -5 21 c 128,-1,8
 -5 61 -5 61 38 114 c 1,9,10
 34 125 34 125 34 141 c 0,11,12
 34 176 34 176 64.5 201.5 c 128,-1,13
 95 227 95 227 124 227 c 0,14,15
 185 227 185 227 185 161 c 0,16,17
 185 117 185 117 147 65 c 1,18,-1
 159 65 l 2,19,20
 191 65 191 65 214 80 c 0,21,22
 217 83 217 83 222 83 c 128,-1,23
 227 83 227 83 227 79.5 c 128,-1,24
 227 76 227 76 220 70 c 1,0,1
124 185 m 0,25,26
 129 187 129 187 132 187 c 128,-1,27
 135 187 135 187 135 182.5 c 128,-1,28
 135 178 135 178 124 169.5 c 0,29,30
 83.9465648855 138.549618321 83.9465648855 138.549618321 64 114 c 1,31,32
 86 79 86 79 131 68 c 1,33,34
 170 114 170 114 170 154 c 0,35,36
 170 177 170 177 155 189 c 128,-1,37
 140 201 140 201 116.5 201 c 128,-1,38
 93 201 93 201 73 187.5 c 128,-1,39
 53 174 53 174 53 158.5 c 128,-1,40
 53 143 53 143 56 134 c 1,41,42
 87 166 87 166 124 185 c 0,25,26
50 92 m 1,43,44
 34 65 34 65 34 32 c 0,45,46
 34 14 34 14 50 14 c 0,47,48
 77 14 77 14 117 54 c 1,49,50
 72 62 72 62 50 92 c 1,43,44
227 242 m 1,51,52
 223 242 223 242 211 248 c 1,53,-1
 126 302 l 1,54,55
 120 308 120 308 120 315 c 0,56,57
 120 329 120 329 134 329 c 0,58,59
 140 329 140 329 144 325 c 2,60,-1
 223 260 l 1,61,62
 237 246 237 246 227 242 c 1,51,52
EndSplineSet
EndChar

StartChar: Yacute
Encoding: 221 221 102
Width: 465
Flags: HMW
HStem: -442 45<-18 0> -44 28<402 424> 35 24<129.5 186> 345 44<-131 -61.5 -131 -52> 703 20<113 243.5>
VStem: -208 38<421 464> -63 35<-382.5 -370> 65 38<88.5 162.5 88.5 175> 319 42<523.5 620 523.5 632.5>
LayerCount: 2
Fore
SplineSet
361 620 m 1,0,1
 361 567 361 567 334.5 505 c 128,-1,2
 308 443 308 443 270 388.5 c 128,-1,3
 232 334 232 334 194 282.5 c 0,4,5
 103 159.171052632 103 159.171052632 103 100 c 0,6,7
 103 82 103 82 113.5 70.5 c 128,-1,8
 124 59 124 59 143 59 c 0,9,10
 238 59 238 59 475 318 c 0,11,12
 509.86407767 354.699029126 509.86407767 354.699029126 528.5 383.5 c 2,13,-1
 534 392 l 2,14,15
 541 403 541 403 548 403 c 0,16,17
 572 400 572 400 572 388 c 0,18,19
 572 383.5 572 383.5 569 379 c 2,20,-1
 523 305 l 2,21,22
 516 294 516 294 439 168 c 128,-1,23
 362 42 362 42 317 -29 c 1,24,25
 371 -16 371 -16 426 -16 c 128,-1,26
 481 -16 481 -16 483 -47 c 1,27,28
 483 -64 483 -64 469 -75 c 0,29,30
 446.090909091 -93 446.090909091 -93 433.045454545 -93 c 128,-1,31
 420 -93 420 -93 420 -89.5 c 0,32,33
 420 -87 420 -87 428 -83 c 128,-1,34
 436 -79 436 -79 439.5 -76.5 c 128,-1,35
 443 -74 443 -74 447 -71 c 0,36,37
 456 -64.25 456 -64.25 456 -58 c 0,38,39
 456 -44 456 -44 406 -44 c 128,-1,40
 356 -44 356 -44 297 -60 c 1,41,42
 53 -442 53 -442 -37 -442 c 0,43,44
 -63 -442 -63 -442 -63 -410 c 0,45,46
 -63 -339 -63 -339 34.5 -218.5 c 128,-1,47
 132 -98 132 -98 268 -45 c 1,48,49
 306 19 306 19 368.5 128.5 c 128,-1,50
 431 238 431 238 448 266 c 1,51,52
 376.128342246 185.144385027 376.128342246 185.144385027 290.5 115.5 c 0,53,54
 253 85 253 85 206.5 60 c 128,-1,55
 160 35 160 35 126 35 c 0,56,57
 113 35 113 35 101.5 38 c 128,-1,58
 90 41 90 41 77.5 55.5 c 128,-1,59
 65 70 65 70 65 104.5 c 128,-1,60
 65 139 65 139 91 193.5 c 128,-1,61
 117 248 117 248 154.5 299.5 c 128,-1,62
 192 351 192 351 229.5 401.5 c 0,63,64
 319 522.026666667 319 522.026666667 319 594 c 0,65,66
 319 651 319 651 291.5 677 c 128,-1,67
 264 703 264 703 200 703 c 128,-1,68
 136 703 136 703 65.5 673.5 c 128,-1,69
 -5 644 -5 644 -55.5 601.5 c 128,-1,70
 -106 559 -106 559 -138 513.5 c 128,-1,71
 -170 468 -170 468 -170 435 c 0,72,73
 -170 389 -170 389 -110 389 c 0,74,75
 37 389 37 389 174 573 c 1,76,77
 179 583 179 583 183.5 583 c 128,-1,78
 188 583 188 583 188 571 c 128,-1,79
 188 559 188 559 158.5 522 c 128,-1,80
 129 485 129 485 86 445 c 128,-1,81
 43 405 43 405 -15 375 c 128,-1,82
 -73 345 -73 345 -122 345 c 0,83,84
 -208 345 -208 345 -208 410 c 0,85,86
 -208 451 -208 451 -172 504.5 c 128,-1,87
 -136 558 -136 558 -78 607 c 128,-1,88
 -20 656 -20 656 63.5 689.5 c 128,-1,89
 147 723 147 723 232 723 c 0,90,91
 268 723 268 723 294.5 712.5 c 128,-1,92
 321 702 321 702 333.5 687 c 0,93,94
 357.344086022 658.387096774 357.344086022 658.387096774 360 630.5 c 2,95,-1
 361 620 l 1,0,1
-28 -376 m 0,96,97
 -28 -397 -28 -397 -13 -397 c 0,98,99
 56 -397 56 -397 249 -77 c 1,100,101
 130 -125 130 -125 51 -223 c 128,-1,102
 -28 -321 -28 -321 -28 -376 c 0,96,97
489 562 m 1,103,104
 484 564 484 564 484 568 c 0,105,106
 485 572 485 572 493 580 c 1,107,-1
 572 645 l 2,108,109
 576 649 576 649 582 649 c 0,110,111
 596 649 596 649 596 635 c 0,112,113
 596 628 596 628 590 622 c 1,114,-1
 505 568 l 1,115,116
 493 562 493 562 489 562 c 1,103,104
EndSplineSet
EndChar

StartChar: yacute
Encoding: 253 253 103
Width: 249
Flags: HMW
HStem: -414 29<-183.5 -159> -6 31<-6 45> 300 20G<268 274.5>
VStem: -228 34<-370.5 -344.5> 133 34<-102.5 -101>
LayerCount: 2
Fore
SplineSet
93 -69 m 1,0,1
 185 81 185 81 197.5 99 c 128,-1,2
 210 117 210 117 232.5 151.5 c 128,-1,3
 255 186 255 186 255 187 c 0,4,5
 255 194 255 194 236 197 c 1,6,-1
 221 190 l 1,7,8
 164.003083248 110.837615622 164.003083248 110.837615622 92.5 57 c 0,9,10
 50 25 50 25 36.5 25 c 128,-1,11
 23 25 23 25 23 37 c 0,12,13
 23 56 23 56 113 178 c 0,14,15
 119 187 119 187 119 190 c 128,-1,16
 119 193 119 193 96 200 c 1,17,18
 89 200 89 200 83 192 c 0,19,20
 -22 47 -22 47 -22 15 c 0,21,22
 -22 -6 -22 -6 1 -6 c 128,-1,23
 24 -6 24 -6 62 18 c 128,-1,24
 100 42 100 42 127.5 66 c 2,25,-1
 155 90 l 1,26,27
 113 14 113 14 59 -76 c 1,28,29
 -47 -106 -47 -106 -137.5 -212.5 c 128,-1,30
 -228 -319 -228 -319 -228 -379 c 0,31,32
 -228 -414 -228 -414 -194 -414 c 0,33,34
 -147 -414 -147 -414 -81 -330 c 128,-1,35
 -15 -246 -15 -246 76 -97 c 1,36,37
 94 -94 94 -94 113.5 -94 c 128,-1,38
 133 -94 133 -94 133 -105.5 c 128,-1,39
 133 -117 133 -117 122 -125.5 c 128,-1,40
 111 -134 111 -134 111 -138 c 0,41,42
 111 -145 111 -145 121 -145 c 128,-1,43
 131 -145 131 -145 149 -126 c 128,-1,44
 167 -107 167 -107 167 -93 c 0,45,46
 167 -68 167 -68 119 -68 c 0,47,48
 101 -68 101 -68 93 -69 c 1,0,1
-178 -385 m 0,49,50
 -194 -385 -194 -385 -194 -364.5 c 128,-1,51
 -194 -344 -194 -344 -177 -308.5 c 128,-1,52
 -160 -273 -160 -273 -131 -233.5 c 128,-1,53
 -102 -194 -102 -194 -55.5 -157.5 c 128,-1,54
 -9 -121 -9 -121 41 -105 c 1,55,56
 -128 -385 -128 -385 -178 -385 c 0,49,50
177 233 m 1,57,58
 172 235 172 235 172 239 c 0,59,60
 173 243 173 243 181 251 c 1,61,-1
 260 316 l 2,62,63
 264 320 264 320 270 320 c 0,64,65
 284 320 284 320 284 306 c 0,66,67
 284 299 284 299 278 293 c 1,68,-1
 193 239 l 1,69,70
 181 233 181 233 177 233 c 1,57,58
EndSplineSet
EndChar

StartChar: thorn
Encoding: 254 254 104
Width: 281
Flags: HMW
HStem: -389 29<-267 -243 -267 -242> 168 29<214.5 222> 524 20G<319 323>
VStem: -299 28<-354 -307> 55 223<4.5 168> 237 41<123.5 148>
LayerCount: 2
Fore
SplineSet
117 158 m 1,0,1
 185 197 185 197 231.5 197 c 128,-1,2
 278 197 278 197 278 158 c 0,3,4
 278 105 278 105 211.5 47.5 c 128,-1,5
 145 -10 145 -10 79 -10 c 0,6,7
 73 -10 73 -10 64 -4 c 128,-1,8
 55 2 55 2 55 16 c 128,-1,9
 55 30 55 30 77.5 49 c 128,-1,10
 100 68 100 68 104.5 68 c 128,-1,11
 109 68 109 68 113.5 66.5 c 128,-1,12
 118 65 118 65 122.5 61 c 128,-1,13
 127 57 127 57 127 54 c 128,-1,14
 127 51 127 51 122 46 c 1,15,16
 112 39 112 39 100.5 27.5 c 128,-1,17
 89 16 89 16 89 11.5 c 128,-1,18
 89 7 89 7 99 7 c 128,-1,19
 109 7 109 7 141 21.5 c 128,-1,20
 173 36 173 36 205 69.5 c 128,-1,21
 237 103 237 103 237 143 c 0,22,23
 237 168 237 168 208 168 c 0,24,25
 163 168 163 168 102 132 c 1,26,27
 1 -40 1 -40 -4 -50 c 0,28,29
 -91 -210 -91 -210 -159 -299.5 c 128,-1,30
 -227 -389 -227 -389 -281 -389 c 0,31,32
 -299 -389 -299 -389 -299 -367 c 0,33,34
 -299 -279 -299 -279 -184 -125.5 c 128,-1,35
 -69 28 -69 28 62 123 c 1,36,-1
 272 485 l 1,37,38
 261 472 261 472 235 454 c 2,39,-1
 178 415 l 1,40,41
 172 413 172 413 167 413 c 128,-1,42
 162 413 162 413 161 418 c 1,43,44
 254.658536585 476.536585366 254.658536585 476.536585366 300 526 c 0,45,46
 311 538 311 538 312 541 c 1,47,48
 315 544 315 544 326 543 c 128,-1,49
 337 542 337 542 337 533 c 0,50,51
 337 530 337 530 334 525 c 2,52,-1
 117 158 l 1,0,1
-33 -42 m 1,53,54
 -2 13 -2 13 46 95 c 1,55,56
 -68 7 -68 7 -169.5 -138 c 128,-1,57
 -271 -283 -271 -283 -271 -351 c 0,58,59
 -271 -360 -271 -360 -265 -360 c 0,60,61
 -202 -360 -202 -360 -33 -42 c 1,53,54
EndSplineSet
EndChar

StartChar: Thorn
Encoding: 222 222 105
Width: 331
Flags: HMW
HStem: -26 21G<46.5 52.5> 213 39<-80 -33.5> 617 35 734 20G<503.5 511.5>
VStem: -171 42<289 359.5> 603 49<484 549.5>
LayerCount: 2
Fore
SplineSet
514 750 m 1,0,1
 514 745.674418605 514 745.674418605 461 652 c 1,2,-1
 462 652 l 2,3,4
 652 652 652 652 652 548 c 0,5,6
 652 485 652 485 584 402 c 128,-1,7
 516 319 516 319 403 244 c 128,-1,8
 290 169 290 169 169 129 c 1,9,10
 107 21 107 21 98 4.5 c 128,-1,11
 89 -12 89 -12 73 -19 c 128,-1,12
 57 -26 57 -26 48.5 -26 c 128,-1,13
 40 -26 40 -26 40 -21 c 1,14,-1
 116 114 l 1,15,16
 76 104 76 104 36 99 c 0,17,18
 30 99 30 99 30 111.5 c 128,-1,19
 30 124 30 124 41 125 c 0,20,21
 82 128 82 128 130 139 c 1,22,-1
 399 617 l 1,23,24
 294 611 294 611 170 562.5 c 128,-1,25
 46 514 46 514 -41.5 442.5 c 128,-1,26
 -129 371 -129 371 -129 308 c 0,27,28
 -129 252 -129 252 -59 252 c 0,29,30
 0 252 0 252 80.5 293.5 c 128,-1,31
 161 335 161 335 225 404 c 1,32,33
 233 417 233 417 239.5 417 c 128,-1,34
 246 417 246 417 246 410 c 0,35,36
 246 387 246 387 187 339.5 c 128,-1,37
 128 292 128 292 45 252.5 c 128,-1,38
 -38 213 -38 213 -94 213 c 0,39,40
 -171 213 -171 213 -171 292 c 0,41,42
 -171 357 -171 357 -74 437.5 c 128,-1,43
 23 518 23 518 162 578 c 128,-1,44
 301 638 301 638 418 649 c 1,45,-1
 466 735 l 1,46,47
 469 743 469 743 484 748.5 c 128,-1,48
 499 754 499 754 509 754 c 1,49,-1
 514 750 l 1,0,1
183 155 m 1,50,51
 341 209 341 209 472 323.5 c 128,-1,52
 603 438 603 438 603 523 c 0,53,54
 603 613 603 613 442 617 c 1,55,56
 273 312 273 312 183 155 c 1,50,51
EndSplineSet
EndChar

StartChar: caron
Encoding: 711 711 106
Width: 392
Flags: HMW
HStem: 225 21G<223.5 234.5> 304 20G<190.5 197.5>
LayerCount: 2
Fore
SplineSet
241 259 m 1,0,1
 352.71875 314 352.71875 314 361.859375 314 c 128,-1,2
 371 314 371 314 371 309.5 c 128,-1,3
 371 305 371 305 304 265 c 128,-1,4
 237 225 237 225 229 225 c 0,5,6
 221.283018868 225 221.283018868 225 204.641509434 267 c 128,-1,7
 188 309 188 309 184 318 c 1,8,9
 187 324 187 324 192 324 c 0,10,11
 201.606060606 324 201.606060606 324 231 275.5 c 2,12,-1
 241 259 l 1,0,1
EndSplineSet
EndChar

StartChar: zcaron
Encoding: 382 382 107
Width: 242
Flags: HMW
HStem: -417 29<-106.5 -80> 0 21G<12 16.5> 31 140<94 101.5 73.5 116> 141 30<73.5 89.5> 141 43 310 20G<108.5 115.5>
VStem: -151 34<-373.5 -344.5> 13 178<-14.5 179.5> 156 35<-14.5 4> 243 35<-90 -54>
LayerCount: 2
Fore
SplineSet
197 163 m 128,-1,1
 197 142 197 142 150 99.5 c 128,-1,2
 103 57 103 57 86 47 c 1,3,4
 95 50 95 50 119.5 50 c 128,-1,5
 144 50 144 50 167.5 33.5 c 128,-1,6
 191 17 191 17 191 -4.5 c 128,-1,7
 191 -26 191 -26 187 -41 c 1,8,9
 206 -37 206 -37 230 -37 c 0,10,11
 278 -37 278 -37 278 -62 c 0,12,13
 278 -76 278 -76 259.5 -97.5 c 128,-1,14
 241 -119 241 -119 231 -119 c 128,-1,15
 221 -119 221 -119 221 -112 c 0,16,17
 221 -108 221 -108 232 -99.5 c 128,-1,18
 243 -91 243 -91 243 -79 c 0,19,20
 243 -63 243 -63 224 -63 c 128,-1,21
 205 -63 205 -63 180 -68 c 1,22,23
 145 -172 145 -172 41.5 -294.5 c 128,-1,24
 -62 -417 -62 -417 -117 -417 c 0,25,26
 -151 -417 -151 -417 -151 -382 c 0,27,28
 -151 -320 -151 -320 -55.5 -207 c 128,-1,29
 40 -94 40 -94 147 -53 c 1,30,31
 156 -27.5 156 -27.5 156 -9.25 c 128,-1,32
 156 9 156 9 139.5 20 c 128,-1,33
 123 31 123 31 104 31 c 0,34,35
 58 31 58 31 30 8 c 0,36,37
 20 0 20 0 13.5 0 c 128,-1,38
 7 0 7 0 7 4.5 c 128,-1,39
 7 9 7 9 14 14.5 c 128,-1,40
 21 20 21 20 41.5 34.5 c 128,-1,41
 62 49 62 49 80.5 63.5 c 128,-1,42
 99 78 99 78 120.5 97 c 0,43,44
 168 138.976744186 168 138.976744186 168 164 c 1,45,46
 161 157 161 157 129.5 149 c 128,-1,47
 98 141 98 141 70 141 c 0,48,49
 13 141 13 141 13 168 c 0,50,51
 13 178 13 178 28 190 c 128,-1,52
 43 202 43 202 57 209 c 128,-1,53
 71 216 71 216 73 216 c 0,54,55
 79 216 79 216 80.5 211 c 0,56,57
 82.3333333333 204.888888889 82.3333333333 204.888888889 70.1666666667 196.944444444 c 128,-1,58
 58 189 58 189 58 180 c 128,-1,59
 58 171 58 171 81 171 c 128,-1,60
 104 171 104 171 130.5 177.5 c 128,-1,61
 157 184 157 184 168 184 c 0,62,0
 197 184 197 184 197 163 c 128,-1,1
-84.5 -281 m 128,-1,64
 -117 -337 -117 -337 -117 -362.5 c 128,-1,65
 -117 -388 -117 -388 -101 -388 c 0,66,67
 -61 -388 -61 -388 20 -281.5 c 128,-1,68
 101 -175 101 -175 138 -80 c 1,69,70
 71 -105 71 -105 9.5 -165 c 128,-1,63
 -52 -225 -52 -225 -84.5 -281 c 128,-1,64
159 265 m 1,71,72
 270.71875 320 270.71875 320 279.859375 320 c 128,-1,73
 289 320 289 320 289 315.5 c 128,-1,74
 289 311 289 311 222 271 c 128,-1,75
 155 231 155 231 147 231 c 0,76,77
 139.283018868 231 139.283018868 231 122.641509434 273 c 128,-1,78
 106 315 106 315 102 324 c 1,79,80
 105 330 105 330 110 330 c 0,81,82
 119.606060606 330 119.606060606 330 149 281.5 c 2,83,-1
 159 265 l 1,71,72
EndSplineSet
EndChar

StartChar: Zcaron
Encoding: 381 381 108
Width: 633
Flags: HMW
HStem: -440 36<51.5 81> 8 31<575.5 588> 36 26<120 142> 178 24<271.5 312.5> 339 42<101 153.5> 713 26<383 519> 853 20G<509.5 516.5>
VStem: 0 38<-391 -356> 30 34<418 470> 53 42<73 84> 427 41<76 101> 613 48<564.5 635>
LayerCount: 2
Fore
SplineSet
631 -10 m 0,0,1
 631 8 631 8 572.5 8 c 128,-1,2
 514 8 514 8 447 -17 c 1,3,4
 412 -112 412 -112 329.5 -213.5 c 128,-1,5
 247 -315 247 -315 164 -377.5 c 128,-1,6
 81 -440 81 -440 35 -440 c 0,7,8
 0 -440 0 -440 0 -398 c 0,9,10
 0 -332 0 -332 132.5 -203.5 c 128,-1,11
 265 -75 265 -75 415 -7 c 1,12,13
 427 41 427 41 427 79 c 0,14,15
 427 150 427 150 363 170 c 1,16,17
 207 36 207 36 108 36 c 0,18,19
 53 36 53 36 53 60 c 128,-1,20
 53 84 53 84 95.5 117.5 c 128,-1,21
 138 151 138 151 206.5 176.5 c 128,-1,22
 275 202 275 202 338 202 c 0,23,24
 351 202 351 202 369 200 c 1,25,26
 470 294 470 294 541.5 408 c 128,-1,27
 613 522 613 522 613 602 c 0,28,29
 613 713 613 713 466 713 c 0,30,31
 379 713 379 713 282.5 662.5 c 128,-1,32
 186 612 186 612 125 547.5 c 128,-1,33
 64 483 64 483 64 439 c 0,34,35
 64 381 64 381 117 381 c 0,36,37
 162 381 162 381 232 419 c 128,-1,38
 302 457 302 457 356 504.5 c 128,-1,39
 410 552 410 552 417 579 c 0,40,41
 419 590 419 590 423.5 590 c 128,-1,42
 428 590 428 590 428 582 c 0,43,44
 428 546 428 546 369.5 487.5 c 128,-1,45
 311 429 311 429 231 384 c 128,-1,46
 151 339 151 339 97 339 c 0,47,48
 30 339 30 339 30 414 c 0,49,50
 30 456 30 456 71 512 c 128,-1,51
 112 568 112 568 176 618.5 c 128,-1,52
 240 669 240 669 328.5 704 c 128,-1,53
 417 739 417 739 502 739 c 0,54,55
 661 739 661 739 661 623 c 0,56,57
 661 539 661 539 582.5 418.5 c 128,-1,58
 504 298 504 298 392 195 c 1,59,60
 468 173 468 173 468 89 c 0,61,62
 468 50 468 50 456 10 c 1,63,64
 535 39 535 39 595 39 c 128,-1,65
 655 39 655 39 655 5 c 0,66,67
 655 -19 655 -19 635.5 -35.5 c 128,-1,68
 616 -52 616 -52 603 -52 c 128,-1,69
 590 -52 590 -52 590 -46.5 c 128,-1,70
 590 -41 590 -41 597 -39 c 128,-1,71
 604 -37 604 -37 617.5 -27.5 c 128,-1,72
 631 -18 631 -18 631 -10 c 0,0,1
38 -384 m 0,73,74
 38 -404 38 -404 58 -404 c 0,75,76
 93 -404 93 -404 161.5 -354 c 128,-1,77
 230 -304 230 -304 303 -214 c 128,-1,78
 376 -124 376 -124 407 -33 c 1,79,80
 271 -93 271 -93 154.5 -209.5 c 128,-1,81
 38 -326 38 -326 38 -384 c 0,73,74
342 175 m 1,82,83
 325.5 178 325.5 178 294.75 178 c 128,-1,84
 264 178 264 178 213 159.5 c 128,-1,85
 162 141 162 141 128.5 117.5 c 128,-1,86
 95 94 95 94 95 78 c 128,-1,87
 95 62 95 62 134 62 c 0,88,89
 214 62 214 62 342 175 c 1,82,83
560 808 m 1,90,91
 671.71875 863 671.71875 863 680.859375 863 c 128,-1,92
 690 863 690 863 690 858.5 c 128,-1,93
 690 854 690 854 623 814 c 128,-1,94
 556 774 556 774 548 774 c 0,95,96
 540.283018868 774 540.283018868 774 523.641509434 816 c 128,-1,97
 507 858 507 858 503 867 c 1,98,99
 506 873 506 873 511 873 c 0,100,101
 519.375 873 519.375 873 550 824 c 2,102,-1
 560 808 l 1,90,91
EndSplineSet
EndChar

StartChar: Scaron
Encoding: 352 352 109
Width: 455
Flags: HMW
HStem: -140 36<-70.5 -25> 146 25<352.5 380.5> 470 21<473 496.5> 737 30<465.5 543> 871 20G<551.5 558.5>
VStem: -150 39<-84.5 -41> 217 33<463.5 570.5> 280 30<205 253.5> 427 31 427 213
LayerCount: 2
Fore
SplineSet
466 470 m 0,0,1
 427 470 427 470 427 504 c 0,2,3
 427 556 427 556 485 602 c 128,-1,4
 543 648 543 648 623 677 c 1,5,6
 616 706 616 706 587 721.5 c 128,-1,7
 558 737 558 737 515.5 737 c 128,-1,8
 473 737 473 737 427.5 721 c 128,-1,9
 382 705 382 705 341.5 675.5 c 128,-1,10
 301 646 301 646 275.5 597.5 c 128,-1,11
 250 549 250 549 250 491 c 0,12,13
 250 471 250 471 280 374 c 128,-1,14
 310 277 310 277 310 213 c 0,15,16
 310 197 310 197 306 167 c 1,17,18
 344 171 344 171 361 171 c 0,19,20
 458 171 458 171 458 120 c 0,21,22
 458 102 458 102 447 90 c 128,-1,23
 436 78 436 78 410 62 c 1,24,25
 402 67 402 67 402 71 c 128,-1,26
 402 75 402 75 406 78 c 0,27,28
 436 95 436 95 436 112 c 0,29,30
 436 146 436 146 357 146 c 0,31,32
 328 146 328 146 301 142 c 1,33,34
 284 78 284 78 237.5 22.5 c 128,-1,35
 191 -33 191 -33 134 -67.5 c 128,-1,36
 77 -102 77 -102 19.5 -121 c 128,-1,37
 -38 -140 -38 -140 -82 -140 c 0,38,39
 -150 -140 -150 -140 -150 -100 c 0,40,41
 -150 -44 -150 -44 -80 13 c 128,-1,42
 -10 70 -10 70 86.5 108.5 c 128,-1,43
 183 147 183 147 276 163 c 1,44,45
 280 191 280 191 280 208 c 0,46,47
 280 251 280 251 248.5 342.5 c 128,-1,48
 217 434 217 434 217 500 c 128,-1,49
 217 566 217 566 269 631.5 c 128,-1,50
 321 697 321 697 392.5 732 c 128,-1,51
 464 767 464 767 528 767 c 0,52,53
 629 767 629 767 639 682 c 1,54,55
 695 700 695 700 715 700 c 128,-1,56
 735 700 735 700 736.5 698.5 c 128,-1,57
 738 697 738 697 738 687 c 128,-1,58
 738 677 738 677 729 674 c 1,59,60
 684 672 684 672 640 661 c 1,61,62
 638 580 638 580 579 525 c 128,-1,63
 520 470 520 470 466 470 c 0,0,1
-111 -75 m 0,64,65
 -111 -104 -111 -104 -53 -104 c 0,66,67
 28.0357142857 -104 28.0357142857 -104 128.5 -46 c 0,68,69
 177 -18 177 -18 216.5 30.5 c 128,-1,70
 256 79 256 79 271 138 c 1,71,72
 186 124 186 124 100.5 93 c 128,-1,73
 15 62 15 62 -48 16.5 c 128,-1,74
 -111 -29 -111 -29 -111 -75 c 0,64,65
459 510 m 0,75,76
 459 491 459 491 479 491 c 0,77,78
 517 491 517 491 570.5 542.5 c 128,-1,79
 624 594 624 594 625 656 c 1,80,81
 555 634 555 634 507 595 c 128,-1,82
 459 556 459 556 459 510 c 0,75,76
602 826 m 1,83,84
 713.71875 881 713.71875 881 722.859375 881 c 128,-1,85
 732 881 732 881 732 876.5 c 128,-1,86
 732 872 732 872 665 832 c 128,-1,87
 598 792 598 792 590 792 c 0,88,89
 582.283018868 792 582.283018868 792 565.641509434 834 c 128,-1,90
 549 876 549 876 545 885 c 1,91,92
 548 891 548 891 553 891 c 0,93,94
 561.375 891 561.375 891 592 842 c 2,95,-1
 602 826 l 1,83,84
EndSplineSet
EndChar

